{"glyphs":{"0":{"ha":590,"x_min":26,"x_max":517,"o":"m 503 792 q 485 553 517 671 q 383 338 454 436 q 240 228 333 254 q 156 241 196 221 q 97 300 117 261 q 35 495 44 390 q 64 697 26 600 q 147 847 94 779 q 268 943 199 915 q 419 926 347 971 q 501 797 490 881 q 501 794 501 796 q 503 792 501 793 m 407 456 q 463 789 482 614 q 430 865 457 832 q 361 910 403 897 q 286 906 324 918 q 221 865 249 894 q 83 621 114 765 q 83 444 65 532 q 153 293 97 360 q 214 264 181 264 q 275 283 247 264 q 331 336 303 303 q 376 399 358 369 q 407 456 394 428 z "},"1":{"ha":331,"x_min":32,"x_max":303,"o":"m 263 950 q 288 951 275 963 q 294 925 301 940 q 136 264 153 610 q 124 247 135 253 q 104 247 114 242 q 96 264 94 253 q 217 844 110 564 q 68 689 68 689 q 49 683 60 679 q 35 697 38 688 q 39 717 32 707 l 263 950 z "},"2":{"ha":533,"x_min":28,"x_max":514,"o":"m 460 282 q 471 265 471 275 q 461 249 471 256 q 440 247 451 242 q 346 308 389 272 q 183 219 278 238 q 88 246 129 211 q 60 335 46 281 q 122 412 75 386 q 221 424 169 438 q 340 363 288 406 q 411 464 383 408 q 458 639 454 549 q 415 813 461 729 q 351 879 392 854 q 264 907 311 904 q 172 888 215 910 q 103 824 129 865 q 76 733 78 782 q 98 642 75 685 q 162 574 121 600 q 251 547 203 549 q 269 535 264 546 q 269 515 275 525 q 251 506 264 506 q 135 541 189 507 q 55 633 82 575 q 35 753 28 690 q 83 865 43 815 q 182 936 122 915 q 304 943 242 957 q 403 892 360 929 q 468 800 446 854 q 490 568 514 686 q 389 356 467 450 q 374 338 385 350 q 460 282 414 304 m 296 319 q 301 324 299 322 q 307 329 304 326 q 311 333 310 332 q 244 372 281 357 q 131 371 188 404 q 101 332 108 357 q 107 283 94 307 q 149 257 124 261 q 203 265 175 253 q 253 290 232 276 q 296 319 275 303 z "},"3":{"ha":563,"x_min":31,"x_max":533,"o":"m 132 826 q 228 908 164 875 q 355 947 292 940 q 469 917 418 953 q 526 806 519 882 q 494 673 532 738 q 394 560 456 608 q 303 500 353 525 q 336 414 333 463 q 291 298 339 346 q 176 235 243 250 q 49 233 110 219 q 34 247 36 236 q 40 267 32 258 q 60 272 47 275 q 153 271 106 265 q 241 307 200 276 q 293 385 282 338 q 264 483 307 442 q 135 453 201 458 q 117 463 122 451 q 117 483 113 474 q 173 533 136 518 q 249 538 210 549 q 269 529 258 535 q 389 608 335 558 q 437 663 415 633 q 474 726 458 692 q 488 798 489 761 q 463 865 486 835 q 388 907 436 901 q 298 897 340 913 q 218 857 256 882 q 144 746 156 818 q 155 690 140 717 q 196 651 169 664 q 209 635 207 647 q 204 616 211 624 q 185 613 197 608 q 122 666 143 628 q 104 747 101 704 q 132 826 107 790 z "},"4":{"ha":465,"x_min":31,"x_max":435,"o":"m 385 360 q 399 354 393 360 q 406 340 406 349 q 399 326 406 332 q 385 319 393 319 l 344 319 l 326 219 q 313 206 324 208 q 294 211 303 203 q 286 231 285 219 l 303 321 l 54 322 q 38 331 44 322 q 35 349 32 339 q 304 899 132 642 q 323 908 311 910 q 340 898 335 907 q 339 878 344 889 q 83 363 178 636 l 310 361 l 392 815 q 405 830 394 828 q 424 824 415 832 q 431 804 433 817 q 351 361 394 599 l 385 360 z "},"5":{"ha":476,"x_min":29,"x_max":447,"o":"m 424 563 q 440 467 446 517 q 400 378 433 417 q 225 268 326 300 q 38 289 86 210 q 37 308 31 299 q 53 319 43 318 q 72 310 64 319 q 86 293 78 300 q 104 284 94 286 q 123 281 114 282 q 145 283 132 281 q 167 288 158 286 q 190 296 176 290 q 210 304 204 301 q 230 313 217 307 q 246 321 243 319 q 381 422 329 350 q 401 493 403 454 q 374 561 399 532 q 310 592 346 585 q 240 586 275 599 q 107 482 158 553 q 85 478 97 469 q 70 486 75 479 q 67 503 65 493 q 97 694 88 631 q 128 872 126 868 q 156 929 132 906 q 225 949 186 953 q 285 949 254 949 q 356 948 317 949 q 415 947 394 947 q 430 942 424 947 q 436 928 436 936 q 430 913 436 919 q 415 907 424 907 l 243 908 q 206 908 228 911 q 175 892 185 906 q 160 825 161 860 q 114 551 135 678 q 271 633 178 621 q 358 620 317 639 q 424 563 399 601 z "},"6":{"ha":422,"x_min":-6,"x_max":400,"o":"m 356 518 q 383 390 399 461 q 306 283 368 318 q 167 269 239 247 q 60 358 94 292 q 96 679 -6 475 q 310 944 174 836 q 331 947 319 951 q 344 934 342 943 q 339 917 347 925 q 132 664 207 813 q 76 497 90 586 q 204 575 125 560 q 288 567 247 582 q 356 518 328 551 m 119 344 q 210 303 156 307 q 306 331 265 299 q 349 421 347 364 q 322 495 349 463 q 254 535 296 528 q 164 519 207 540 q 96 458 121 499 q 75 450 88 447 q 119 344 76 389 z "},"7":{"ha":468,"x_min":31,"x_max":436,"o":"m 413 943 q 431 933 425 943 q 431 913 436 924 l 140 290 q 125 281 135 281 q 108 290 115 281 q 106 311 101 300 l 381 901 l 53 888 q 35 897 40 888 q 35 917 31 907 q 53 928 40 926 l 413 943 z "},"8":{"ha":526,"x_min":21,"x_max":525,"o":"m 483 876 q 378 644 524 769 q 288 576 349 618 q 210 522 226 535 q 278 392 263 467 q 265 305 286 346 q 203 244 244 264 q 121 248 161 229 q 65 308 81 267 q 65 411 44 360 q 153 526 93 482 q 144 536 150 529 q 135 546 138 543 q 59 644 86 597 q 33 743 32 690 q 70 837 40 794 q 144 903 100 879 q 231 942 183 926 q 328 963 278 958 q 422 947 379 968 q 483 876 465 925 m 239 338 q 233 412 249 368 q 179 497 217 456 q 115 425 138 469 q 101 326 86 378 q 147 280 111 290 q 208 294 182 269 q 239 338 229 313 m 378 697 q 451 818 436 744 q 422 896 457 868 q 336 922 386 924 q 113 825 204 918 q 150 588 21 726 q 169 567 157 581 q 185 550 182 553 q 208 567 193 556 q 229 582 224 578 q 378 697 308 633 z "},"9":{"ha":546,"x_min":33,"x_max":517,"o":"m 474 822 q 499 831 482 838 q 510 807 517 824 l 282 193 q 266 180 278 182 q 247 185 254 178 q 243 204 239 192 l 421 682 q 272 533 354 600 q 201 489 238 506 q 123 476 165 472 q 56 519 81 481 q 35 599 35 553 q 47 683 35 644 q 79 760 60 721 q 268 943 143 882 q 328 963 297 957 q 389 965 358 968 q 443 942 419 961 q 476 889 467 922 q 474 873 478 881 q 462 863 469 865 q 447 865 454 861 q 438 878 439 869 q 413 914 431 901 q 374 927 396 926 q 330 923 351 928 q 289 908 308 918 q 186 836 231 881 q 75 610 89 743 q 99 533 72 561 q 174 518 126 504 q 293 603 242 547 q 474 822 399 700 z "},"\u000b":{"ha":732,"x_min":69,"x_max":663,"o":"m 69 972 l 663 972 l 663 0 l 69 0 l 69 972 m 108 944 l 365 515 l 624 944 l 108 944 m 349 486 l 99 903 l 99 68 l 349 486 m 367 457 l 110 29 l 624 29 l 367 457 m 383 486 l 635 65 l 635 906 l 383 486 z "},"\u0000":{"ha":0,"x_min":0,"x_max":0,"o":""},"\n":{"ha":0,"x_min":0,"x_max":0,"o":""},"\r":{"ha":0,"x_min":0,"x_max":0,"o":""}," ":{"ha":288,"x_min":0,"x_max":0,"o":""},"!":{"ha":283,"x_min":31,"x_max":203,"o":"m 75 508 q 98 498 89 508 q 104 474 107 488 q 90 449 101 458 q 63 439 78 439 q 40 449 49 439 q 35 474 32 460 q 49 499 38 489 q 75 508 60 508 m 161 958 q 178 968 168 968 q 196 958 189 968 q 197 938 203 949 q 99 560 106 760 q 88 542 99 547 q 67 542 78 536 q 57 560 57 547 q 161 958 64 771 z "},"\"":{"ha":228,"x_min":31,"x_max":149,"o":"m 74 857 q 86 833 92 851 q 71 721 68 779 q 66 708 71 714 q 53 703 61 703 q 40 708 46 703 q 35 721 35 714 q 51 844 31 785 q 74 857 56 861 m 131 857 q 143 833 149 851 q 128 721 125 779 q 122 708 128 714 q 109 703 117 703 q 96 708 101 703 q 90 721 90 714 q 107 844 88 785 q 131 857 113 861 z "},"#":{"ha":424,"x_min":33,"x_max":340,"o":"m 318 657 q 334 651 328 657 q 340 635 340 644 q 333 621 339 626 q 318 615 328 615 l 281 615 q 249 507 261 550 l 275 507 q 290 501 283 507 q 296 485 296 494 q 290 471 296 476 q 275 465 283 465 l 236 465 l 210 376 q 198 362 207 367 q 179 360 189 357 q 164 371 169 363 q 161 389 158 379 q 183 467 174 432 l 122 468 l 94 376 q 83 361 92 367 q 64 358 74 356 q 49 370 54 361 q 46 389 43 379 q 69 469 57 426 l 54 469 q 40 476 46 469 q 33 490 33 482 q 40 505 33 499 q 54 511 46 511 l 82 511 q 114 619 90 539 l 99 619 q 84 626 90 619 q 78 640 78 632 q 84 655 78 649 q 99 661 90 661 l 126 661 l 165 792 q 177 806 168 801 q 196 808 186 811 q 210 797 206 806 q 214 779 215 789 q 197 722 208 763 q 178 660 185 682 l 240 658 l 281 792 q 292 807 283 801 q 311 810 301 813 q 326 798 321 807 q 329 779 332 789 q 293 657 308 710 l 318 657 m 196 508 q 228 617 211 561 l 167 618 q 133 510 150 564 l 196 508 z "},"$":{"ha":379,"x_min":29,"x_max":304,"o":"m 243 801 q 292 741 282 783 q 276 664 303 699 q 260 656 271 654 q 245 665 250 657 q 244 683 240 672 q 258 728 260 701 q 232 765 256 754 l 190 619 l 194 615 q 249 492 267 556 q 204 428 238 453 q 129 406 171 404 l 111 339 q 88 327 106 322 q 75 349 71 332 q 94 415 85 382 q 35 568 29 449 q 44 584 35 579 q 63 584 53 589 q 71 568 72 579 q 99 457 60 506 q 104 453 101 454 l 149 607 q 109 653 122 624 q 100 713 96 682 q 137 777 107 751 q 206 806 167 803 q 219 856 217 846 q 242 867 225 872 q 256 846 260 863 q 243 801 249 821 m 210 544 q 179 581 199 565 l 140 443 q 192 467 171 444 q 213 503 208 482 q 210 544 218 525 m 160 647 q 194 767 176 704 q 146 731 163 758 q 138 686 133 710 q 160 647 142 663 z "},"%":{"ha":314,"x_min":29,"x_max":233,"o":"m 71 713 q 51 722 58 713 q 46 743 43 731 q 59 765 49 757 q 82 774 69 774 q 103 765 94 775 q 108 743 111 756 q 95 722 106 731 q 71 713 85 713 m 204 547 q 224 538 215 547 q 229 517 232 528 q 216 494 226 503 q 193 485 206 486 q 172 494 181 485 q 167 517 164 504 q 180 538 169 529 q 204 547 190 547 m 179 826 q 199 843 185 840 q 223 836 213 846 q 228 813 233 826 l 85 418 q 65 401 79 404 q 40 408 50 399 q 35 432 31 417 q 179 826 100 608 z "},"&":{"ha":656,"x_min":31,"x_max":572,"o":"m 561 308 q 571 294 571 303 q 562 278 571 285 q 543 276 553 272 q 425 368 475 310 q 313 311 378 324 q 185 324 247 299 q 79 406 121 350 q 33 533 38 463 q 65 668 31 604 q 161 769 99 732 q 276 828 217 803 q 303 935 282 883 q 394 1025 336 1018 q 449 1009 425 1031 q 472 956 474 988 q 401 851 465 885 q 311 804 358 824 q 311 793 311 793 q 318 715 311 754 q 410 690 368 717 q 475 619 453 664 q 495 505 501 565 q 450 396 489 444 q 561 308 496 340 m 356 957 q 317 846 324 906 q 419 915 375 869 q 435 951 432 932 q 419 985 438 971 q 385 984 403 994 q 356 957 367 974 m 301 346 q 403 397 360 356 q 356 481 375 438 q 307 618 328 547 q 290 674 296 651 q 241 642 261 665 q 218 589 221 619 q 229 534 215 560 q 269 494 243 508 q 279 480 279 489 q 270 465 279 471 q 250 463 261 458 q 182 569 188 497 q 233 686 176 642 q 282 710 256 703 q 274 778 275 743 l 274 788 q 153 718 208 761 q 78 606 97 674 q 85 471 60 538 q 172 371 111 406 q 301 346 232 336 m 386 504 q 428 428 403 464 q 460 526 460 472 q 424 629 463 585 q 328 679 386 674 q 340 633 332 660 q 386 504 360 568 z "},"'":{"ha":172,"x_min":31,"x_max":92,"o":"m 74 857 q 86 833 92 851 q 71 721 68 779 q 63 704 72 710 q 43 704 53 699 q 35 721 33 710 q 51 844 31 785 q 74 857 56 861 z "},"(":{"ha":260,"x_min":33,"x_max":179,"o":"m 71 649 q 171 322 63 468 q 172 304 178 313 q 157 296 167 296 q 139 303 147 296 q 33 622 33 446 q 140 940 33 799 q 158 949 147 950 q 174 940 169 947 q 172 922 178 932 q 71 649 81 800 z "},")":{"ha":261,"x_min":31,"x_max":189,"o":"m 122 857 q 175 573 189 722 q 71 303 161 424 q 53 296 64 294 q 37 305 42 297 q 38 322 32 313 q 140 646 149 465 q 38 922 132 800 q 36 940 31 931 q 51 949 42 949 q 69 940 61 949 q 122 857 100 901 z "},"*":{"ha":308,"x_min":32,"x_max":228,"o":"m 213 829 q 224 824 221 831 q 224 812 226 818 q 213 804 221 806 l 160 799 l 208 753 q 211 742 214 749 q 202 733 208 735 q 190 736 196 731 l 140 782 l 138 725 q 131 714 138 717 q 119 714 125 711 q 113 725 113 717 q 115 778 114 761 l 78 742 q 60 741 69 732 q 61 758 51 750 l 96 793 l 46 789 q 35 794 39 788 q 35 806 32 800 q 46 814 39 813 l 103 819 l 61 858 q 58 871 56 864 q 66 880 60 878 q 79 876 72 882 l 118 839 q 121 893 121 875 q 128 903 122 900 q 141 903 135 907 q 147 893 147 900 q 144 840 146 869 l 181 876 q 193 880 186 882 q 201 872 200 878 q 199 858 203 865 l 164 825 l 213 829 z "},"+":{"ha":303,"x_min":33,"x_max":219,"o":"m 197 635 q 212 628 206 635 q 218 614 218 622 q 212 599 218 606 q 197 593 206 593 l 143 594 l 135 539 q 124 526 132 531 q 108 525 117 522 q 94 550 90 531 q 101 596 99 572 l 54 597 q 40 603 46 597 q 33 617 33 608 q 40 631 33 625 q 54 638 46 638 l 108 636 q 118 692 113 664 q 127 704 119 700 q 143 706 135 708 q 157 681 163 700 q 150 635 154 658 l 197 635 z "},",":{"ha":232,"x_min":32,"x_max":150,"o":"m 142 336 q 146 319 150 329 q 76 233 128 263 q 46 225 63 225 q 33 240 33 228 q 42 254 35 250 q 51 261 46 257 q 81 296 68 276 q 97 329 92 311 q 110 340 101 338 q 128 342 118 343 q 142 336 136 342 z "},"-":{"ha":303,"x_min":33,"x_max":218,"o":"m 197 622 q 212 616 206 622 q 218 601 218 610 q 212 587 218 593 q 197 581 206 581 l 54 583 q 40 590 46 583 q 33 604 33 596 q 40 619 33 613 q 54 625 46 625 l 197 622 z "},".":{"ha":183,"x_min":33,"x_max":100,"o":"m 67 350 q 90 339 81 349 q 99 315 99 329 q 90 292 99 301 q 67 282 81 282 q 43 292 53 282 q 33 315 33 301 q 43 339 33 329 q 67 350 53 349 z "},"/":{"ha":314,"x_min":29,"x_max":233,"o":"m 179 826 q 199 843 185 840 q 223 836 213 846 q 228 813 233 826 l 85 418 q 65 401 79 404 q 40 408 50 399 q 35 432 31 417 l 179 826 z "},":":{"ha":197,"x_min":31,"x_max":115,"o":"m 71 535 q 91 526 83 536 q 96 504 99 517 q 83 482 93 490 q 60 474 74 474 q 40 482 47 472 q 35 504 32 492 q 47 526 38 517 q 71 535 57 535 m 86 665 q 107 656 99 665 q 113 635 115 646 q 99 613 110 621 q 76 603 89 604 q 56 613 64 603 q 50 635 47 622 q 63 656 53 647 q 86 665 74 665 z "},";":{"ha":240,"x_min":32,"x_max":158,"o":"m 118 631 q 98 640 106 631 q 93 663 90 650 q 106 684 96 675 q 129 693 117 693 q 150 683 142 693 q 156 663 158 674 q 142 640 153 649 q 118 631 132 632 m 128 563 q 143 556 136 561 q 146 539 150 549 q 76 453 128 482 q 46 446 63 446 q 33 461 33 447 q 42 475 35 469 q 51 482 46 478 q 81 517 68 497 q 97 549 92 532 q 110 560 101 557 q 128 563 118 564 z "},"<":{"ha":371,"x_min":33,"x_max":288,"o":"m 258 738 q 278 736 269 743 q 288 720 288 729 q 278 706 288 711 l 90 615 l 257 506 q 266 489 267 500 q 257 473 265 478 q 239 474 249 468 l 43 601 q 33 617 33 607 q 43 633 33 628 l 258 738 z "},"=":{"ha":303,"x_min":33,"x_max":218,"o":"m 54 631 q 40 636 46 631 q 35 650 35 642 q 40 665 35 658 q 54 671 46 671 l 197 668 q 211 661 206 667 q 217 647 217 656 q 211 633 217 639 q 197 626 206 626 l 54 631 m 197 585 q 212 578 206 585 q 218 564 218 572 q 212 549 218 556 q 197 543 206 543 l 54 546 q 40 552 46 546 q 33 567 33 558 q 40 581 33 575 q 54 588 46 588 l 197 585 z "},">":{"ha":371,"x_min":33,"x_max":288,"o":"m 278 633 q 288 617 288 628 q 278 601 288 607 l 82 474 q 64 473 72 467 q 56 489 56 479 q 64 506 56 499 l 231 615 l 43 706 q 33 720 33 711 q 42 735 33 729 q 63 738 51 742 l 278 633 z "},"?":{"ha":444,"x_min":31,"x_max":369,"o":"m 75 508 q 98 498 89 508 q 104 474 107 488 q 90 449 101 458 q 63 439 78 439 q 40 449 49 439 q 35 474 32 460 q 49 499 38 489 q 75 508 60 508 m 238 956 q 331 908 293 949 q 358 813 368 867 q 352 792 356 801 q 342 772 349 782 q 330 756 335 763 q 313 740 325 749 q 297 726 301 731 q 278 714 292 722 q 260 703 264 706 q 241 692 257 700 q 222 682 225 683 q 147 626 175 654 q 110 554 119 597 q 96 540 107 542 q 76 545 85 538 q 69 565 67 553 q 160 693 89 647 q 283 769 224 726 q 318 838 317 794 q 274 901 314 882 q 190 915 235 922 q 115 876 146 908 q 93 804 85 846 q 167 779 104 764 q 188 773 179 782 q 193 753 196 764 q 178 739 190 742 q 117 736 147 728 q 64 768 86 744 q 63 872 33 819 q 137 942 89 919 q 238 956 185 965 z "},"@":{"ha":719,"x_min":22,"x_max":636,"o":"m 357 353 q 347 440 338 394 q 281 415 318 415 q 222 439 246 414 q 204 508 196 469 q 271 644 221 585 q 324 690 290 675 q 393 699 357 704 q 442 654 429 689 q 496 711 467 685 q 515 715 504 718 q 528 702 525 711 q 522 685 531 693 q 408 521 446 617 q 406 513 408 517 l 404 511 q 386 450 393 481 q 407 353 369 367 q 444 359 424 346 q 475 383 465 372 q 500 414 485 394 q 597 621 578 504 q 578 734 606 681 q 496 814 550 788 q 283 822 394 860 q 113 689 171 783 q 75 488 57 596 q 175 311 93 381 q 369 256 261 246 q 549 346 476 265 q 565 351 556 354 q 578 338 575 347 q 575 319 581 329 q 465 243 528 269 q 333 219 401 217 q 204 251 265 221 q 100 336 143 282 q 35 567 24 439 q 142 782 47 694 q 368 874 239 868 q 505 851 440 878 q 603 768 569 824 q 635 642 635 708 q 606 517 635 576 q 536 400 578 454 q 442 318 500 346 q 392 319 417 308 q 357 353 368 329 m 303 457 q 371 526 349 481 q 404 597 383 564 q 404 615 397 607 q 400 653 418 636 q 354 663 381 671 q 281 594 306 642 q 254 544 265 571 q 240 493 243 519 q 260 458 239 468 q 303 457 281 447 z "},"A":{"ha":1608,"x_min":81,"x_max":1703,"o":"m 1671 1150 q 1697 1101 1693 1131 q 1685 1047 1701 1071 q 1606 963 1658 993 q 1533 932 1572 942 q 1468 700 1489 819 q 1467 692 1468 700 q 1522 716 1500 697 q 1539 764 1543 735 q 1553 782 1536 781 q 1575 764 1574 783 q 1560 705 1578 732 q 1514 667 1543 678 q 1461 653 1489 656 q 1451 556 1454 604 q 1467 406 1453 479 q 1478 339 1469 392 q 1490 258 1486 286 q 1492 248 1490 256 q 1494 235 1493 240 q 1561 244 1525 251 q 1607 211 1592 239 q 1610 154 1622 183 q 1563 122 1593 128 q 1507 136 1532 117 q 1472 181 1483 153 q 1400 144 1439 156 q 1349 149 1374 139 q 1311 182 1324 160 q 1319 268 1288 228 q 1344 268 1332 283 q 1346 242 1357 256 q 1339 215 1338 229 q 1351 189 1340 200 q 1428 196 1378 167 q 1460 217 1432 199 q 1454 249 1457 229 q 1442 331 1450 276 q 1429 408 1433 385 q 1415 560 1415 483 q 1424 653 1417 606 q 1395 653 1417 653 q 1363 654 1374 654 q 1208 629 1283 654 q 1160 551 1178 578 q 1113 484 1143 525 q 1052 415 1083 443 q 983 365 1021 386 q 820 324 908 318 q 665 388 732 331 q 585 517 607 442 q 582 668 563 592 q 581 669 582 668 q 581 671 581 671 q 429 715 538 733 q 346 697 415 714 q 238 681 276 679 q 110 738 160 681 q 88 781 94 757 q 88 830 81 806 q 119 865 96 854 q 150 867 135 872 q 174 849 165 863 q 179 819 182 835 q 164 793 176 803 q 139 800 149 785 l 124 821 q 122 811 122 817 q 128 776 119 793 q 179 731 146 744 q 340 732 260 703 q 408 748 379 743 q 474 754 436 753 q 542 744 511 756 q 597 708 574 733 q 692 820 624 782 q 836 843 760 858 q 949 767 908 829 q 946 636 985 701 q 837 541 910 567 q 693 547 764 515 q 629 593 656 564 q 613 618 619 606 q 632 496 607 556 q 727 389 661 426 q 868 361 793 351 q 1111 543 1001 381 q 1151 607 1129 569 q 1069 561 1108 588 q 1052 561 1061 556 q 1043 576 1043 567 q 1051 593 1043 586 q 1183 660 1113 636 q 1279 806 1226 736 q 1393 908 1328 867 q 1422 926 1407 918 q 1346 940 1383 931 q 1204 992 1299 953 q 1058 1044 1110 1032 q 926 1032 967 1067 q 911 981 900 1011 q 933 963 918 967 q 961 968 949 958 q 980 968 971 974 q 989 953 989 963 q 981 936 989 943 q 926 926 956 919 q 882 957 897 932 q 872 1010 868 982 q 897 1057 876 1038 q 956 1088 922 1081 q 1029 1089 989 1096 q 1097 1074 1069 1082 q 1161 1050 1124 1065 q 1226 1024 1179 1043 q 1297 994 1272 1004 q 1361 974 1322 985 q 1435 961 1400 964 q 1507 965 1471 958 q 1510 973 1507 965 q 1515 985 1514 981 q 1582 1113 1544 1051 q 1671 1150 1624 1181 m 682 769 q 622 674 639 729 q 657 618 636 643 q 711 579 681 592 q 835 581 774 550 q 897 631 871 599 q 927 699 922 663 q 900 771 932 736 q 790 812 853 813 q 682 769 728 811 m 1514 204 q 1508 201 1513 203 q 1503 199 1504 200 q 1551 158 1519 158 q 1576 171 1568 158 q 1572 196 1583 183 q 1514 204 1546 221 m 1433 710 q 1486 911 1450 813 q 1349 825 1406 883 q 1236 676 1292 767 q 1306 688 1271 683 q 1429 689 1368 692 q 1433 710 1432 703 m 1649 1057 q 1650 1119 1675 1106 q 1640 1122 1646 1124 q 1632 1118 1635 1119 q 1625 1110 1629 1117 q 1619 1101 1621 1104 q 1613 1092 1617 1099 q 1608 1085 1610 1086 q 1553 978 1578 1032 q 1649 1057 1617 999 z "},"B":{"ha":1003,"x_min":81,"x_max":1053,"o":"m 507 1060 q 969 989 818 1132 q 1032 899 1011 951 q 1049 792 1053 847 q 1011 692 1042 738 q 931 624 981 647 q 857 594 896 606 q 896 519 888 563 q 875 428 906 467 q 792 371 844 389 q 603 344 729 350 q 460 338 478 339 q 424 272 442 301 q 394 226 407 243 q 360 185 382 210 q 315 151 339 161 q 264 146 290 142 q 224 170 240 151 q 208 213 208 189 q 256 299 211 267 q 435 371 335 358 q 471 450 451 404 q 586 713 529 582 q 644 843 615 778 q 667 907 661 874 q 654 933 667 922 q 639 931 646 942 q 613 924 629 914 q 607 949 597 933 q 639 972 618 967 q 678 964 660 976 q 701 923 696 947 q 697 875 707 899 q 683 838 692 857 q 663 793 675 818 q 646 756 651 768 l 533 499 q 479 376 483 386 q 591 381 504 378 q 725 393 678 385 q 831 433 783 400 q 860 481 854 451 q 853 536 865 510 q 815 585 839 564 q 751 574 789 579 q 697 574 725 568 q 664 598 675 578 q 660 640 653 618 q 695 671 672 663 q 742 669 718 679 q 826 625 788 654 q 844 629 842 628 q 951 682 904 644 q 1008 775 994 719 q 999 883 1021 831 q 931 974 975 936 q 832 1028 888 1011 q 572 1036 703 1063 q 386 965 469 1026 q 458 936 426 958 q 514 860 500 907 q 499 771 528 814 q 423 735 468 738 q 343 761 378 732 q 301 845 308 796 q 318 938 294 894 q 225 944 236 942 q 129 983 169 953 q 85 1064 89 1014 q 115 1146 81 1107 q 193 1171 150 1185 q 226 1118 231 1158 q 196 1078 224 1085 q 164 1083 181 1075 q 156 1099 156 1090 q 165 1115 156 1108 q 183 1115 174 1121 q 190 1122 190 1111 q 178 1136 189 1135 q 139 1117 161 1140 q 122 1072 122 1097 q 136 1028 121 1047 q 235 979 175 983 q 268 976 250 978 q 308 973 286 974 q 342 971 329 972 q 507 1060 410 1043 m 478 806 q 476 858 485 832 q 446 899 468 883 q 360 933 407 929 q 358 932 358 933 q 357 931 358 931 q 338 869 340 904 q 352 806 335 835 q 404 772 369 778 q 446 776 425 767 q 478 806 467 786 m 351 232 q 414 331 388 278 q 297 283 351 318 q 275 265 286 275 q 253 241 264 256 q 244 214 243 226 q 257 189 244 201 q 351 232 293 160 m 717 607 q 772 614 744 607 l 768 615 q 710 636 725 640 q 695 626 697 633 q 700 614 693 619 q 717 607 707 608 z "},"C":{"ha":879,"x_min":81,"x_max":883,"o":"m 843 486 q 857 499 846 497 q 875 494 868 501 q 878 476 882 488 q 839 390 863 432 q 704 256 790 304 q 518 211 618 207 q 351 281 425 221 q 247 429 278 340 q 217 558 224 492 q 133 514 161 561 q 122 468 118 493 q 137 451 125 456 q 158 456 149 447 q 183 449 174 467 q 178 424 190 433 q 114 422 146 400 q 86 462 90 436 q 92 512 82 488 q 117 556 101 536 q 214 594 156 597 q 251 807 208 706 q 364 960 290 896 q 532 1047 438 1024 q 711 1047 622 1074 q 828 947 789 1019 q 857 831 857 893 q 836 714 857 768 q 778 608 815 660 q 644 485 725 531 q 476 457 567 433 q 390 544 413 481 q 331 551 381 546 q 254 557 281 556 q 310 385 264 465 q 435 271 354 307 q 604 254 517 235 q 753 340 689 279 q 843 486 817 401 m 517 678 q 447 651 476 681 q 421 581 418 622 q 503 579 461 575 q 546 599 526 585 q 564 636 565 614 q 549 664 563 653 q 517 678 535 675 m 258 704 q 251 594 249 650 q 272 592 258 593 q 290 590 286 592 l 383 583 l 383 592 q 415 670 386 636 q 486 715 443 704 q 558 702 525 724 q 600 642 592 681 q 565 567 606 594 q 474 540 524 540 q 432 542 456 540 q 474 500 447 515 q 532 486 501 485 q 679 554 617 496 q 786 693 747 611 q 821 849 825 765 q 763 974 814 922 q 669 1019 725 1010 q 563 1018 614 1029 q 464 982 511 1007 q 329 867 383 940 q 258 704 275 794 z "},"D":{"ha":1071,"x_min":79,"x_max":1053,"o":"m 689 1083 q 882 1003 796 1068 q 1013 838 968 938 q 1033 643 1053 744 q 931 468 1010 539 q 744 360 851 393 q 497 315 636 326 l 493 314 q 458 263 478 288 q 325 190 389 169 q 275 230 294 201 q 272 285 256 258 q 382 338 294 318 q 471 350 425 346 q 514 443 490 386 q 589 686 565 560 q 606 811 600 749 q 597 876 613 846 q 580 889 590 885 q 561 886 569 893 q 542 883 553 879 q 529 896 532 888 q 535 913 526 904 q 573 927 551 926 q 611 914 594 928 q 643 815 654 872 q 626 688 638 751 q 553 439 603 558 q 514 354 532 389 q 539 356 533 356 q 793 419 671 365 q 960 565 901 471 q 994 769 1019 660 q 882 954 969 881 q 678 1047 794 1028 q 439 1033 557 1067 q 336 985 382 1021 q 264 899 290 950 q 410 897 336 911 q 463 857 444 885 q 480 798 482 829 q 465 738 478 767 q 422 690 451 708 q 358 674 393 672 q 271 708 308 678 q 219 786 233 739 q 215 864 208 824 q 111 931 147 872 q 87 994 94 960 q 90 1062 79 1028 q 133 1108 101 1096 q 178 1112 156 1119 q 214 1083 201 1104 q 217 1043 224 1064 q 193 1011 211 1022 q 168 1019 178 1003 q 175 1043 158 1035 q 182 1060 183 1050 q 171 1075 181 1071 q 144 1073 157 1079 q 126 1053 132 1067 q 142 953 111 999 q 222 899 168 904 l 224 899 q 271 978 240 943 q 467 1078 353 1060 q 689 1083 576 1101 m 443 814 q 433 840 440 829 q 413 856 425 850 q 389 865 400 861 q 360 867 378 868 q 333 867 342 867 q 304 865 324 867 q 279 863 285 863 q 253 861 265 861 q 266 772 242 814 q 338 715 290 729 q 418 735 383 703 q 443 814 453 768 m 422 276 q 446 310 435 292 q 394 301 418 306 q 346 290 371 297 q 310 273 321 282 q 304 253 299 264 q 330 230 314 238 q 363 226 346 222 q 422 276 400 243 z "},"E":{"ha":699,"x_min":79,"x_max":799,"o":"m 428 1058 q 545 1085 485 1083 q 661 1061 606 1088 q 750 982 717 1035 q 768 825 799 908 q 724 758 754 786 q 656 717 694 729 q 490 740 567 693 q 350 874 413 788 q 332 900 344 882 q 317 922 319 918 q 308 910 310 914 q 266 795 271 858 q 289 674 261 732 q 381 703 332 696 q 533 665 500 719 q 526 596 556 628 q 456 557 497 564 q 358 568 406 550 q 279 626 311 586 q 205 540 229 594 q 192 426 181 485 q 283 296 211 343 q 440 264 356 249 q 584 342 524 281 q 661 486 644 403 q 674 499 664 497 q 691 494 683 501 q 697 476 699 488 q 667 394 688 433 q 544 263 626 310 q 368 226 463 217 q 216 303 278 236 q 150 460 154 369 q 179 572 150 519 q 258 657 208 625 q 226 761 231 704 q 294 954 224 871 q 206 1021 261 1003 q 133 1006 165 1033 q 122 974 119 993 q 133 954 122 961 q 144 953 138 951 q 146 963 150 956 q 147 981 140 972 q 162 990 153 990 q 178 981 171 990 q 183 951 186 967 q 168 925 181 935 q 110 926 139 900 q 85 989 81 953 q 118 1040 93 1019 q 175 1061 143 1060 q 314 988 264 1060 q 319 982 315 986 q 428 1058 367 1031 m 381 665 q 311 644 344 660 q 349 614 328 626 q 398 595 371 601 q 453 594 425 589 q 497 618 482 599 q 503 640 508 631 q 489 656 499 650 q 467 665 479 663 q 381 665 424 674 m 710 792 q 733 932 760 856 q 688 999 718 971 q 617 1039 657 1026 q 471 1035 546 1061 q 342 951 396 1010 q 422 840 379 894 q 567 750 479 772 q 644 751 606 740 q 710 792 682 763 z "},"F":{"ha":763,"x_min":74,"x_max":1226,"o":"m 997 1133 q 1059 1160 1022 1157 q 1128 1151 1096 1164 q 1186 1110 1161 1138 q 1217 1051 1211 1083 q 1185 962 1225 994 q 1085 918 1146 929 q 789 949 933 894 q 701 988 771 956 q 583 1031 631 1019 q 488 1036 536 1043 q 422 1013 453 1032 q 444 1004 435 1008 q 542 944 504 993 q 549 856 565 901 q 486 792 532 810 q 390 799 436 775 q 329 874 343 824 q 357 1006 307 947 q 300 1075 318 1032 q 294 1151 288 1113 q 332 1215 301 1189 q 404 1235 363 1242 q 450 1208 433 1232 q 461 1156 467 1183 q 429 1119 454 1129 q 382 1124 404 1110 q 373 1141 372 1131 q 382 1156 374 1151 q 400 1156 390 1161 q 418 1154 411 1149 q 425 1169 425 1160 q 419 1188 425 1179 q 389 1199 406 1199 q 358 1189 372 1200 q 328 1138 333 1169 q 339 1079 322 1107 q 383 1032 354 1050 q 400 1044 392 1039 q 624 1056 510 1101 q 741 1008 656 1046 q 876 960 826 971 q 1121 965 1000 929 q 1160 988 1144 971 q 1181 1028 1176 1004 q 1164 1080 1181 1057 q 1121 1113 1147 1103 q 1059 1122 1094 1126 q 1010 1090 1024 1118 q 1004 1066 1003 1079 q 1017 1044 1006 1053 q 1053 1040 1033 1029 q 1072 1044 1061 1049 q 1084 1032 1082 1040 q 1079 1015 1086 1024 q 1027 1001 1056 997 q 982 1026 999 1004 q 969 1083 964 1051 q 997 1133 974 1114 m 506 931 q 475 955 494 946 q 429 972 456 964 q 390 985 403 981 l 390 986 q 360 926 364 961 q 375 860 356 890 q 424 825 393 833 q 485 832 456 817 q 517 876 511 847 q 506 931 524 906 m 713 844 q 738 838 728 853 q 746 799 749 819 q 729 764 743 778 q 667 721 703 733 q 651 715 658 718 q 629 633 642 675 q 513 407 597 506 q 335 313 442 326 q 319 313 331 313 q 328 265 317 288 q 363 240 339 244 q 404 250 386 235 q 422 255 411 258 q 434 242 432 251 q 431 224 436 233 q 349 206 394 190 q 288 265 303 221 q 282 315 279 289 q 154 376 208 326 q 89 490 104 422 q 99 620 74 557 q 186 715 125 683 q 274 738 226 738 q 361 714 321 738 q 422 648 400 689 q 442 560 444 607 q 422 495 439 526 q 378 428 406 464 q 339 372 350 392 q 329 350 333 361 q 369 357 349 351 q 522 478 468 389 q 604 682 579 574 q 607 691 606 686 q 610 701 608 696 q 611 710 611 707 q 593 711 601 710 q 576 714 589 711 q 556 717 564 717 q 540 715 549 718 q 528 704 532 713 q 503 697 518 688 q 496 722 488 707 q 526 750 506 744 q 578 751 546 756 q 619 747 610 747 q 644 918 638 832 q 656 934 646 929 q 674 935 665 939 q 682 918 683 931 q 660 758 675 838 q 685 772 672 764 q 706 819 719 799 q 713 844 696 835 m 188 396 q 290 351 232 360 q 354 457 314 410 q 389 632 431 558 q 325 690 367 672 q 239 696 283 707 q 143 623 174 679 q 125 502 113 567 q 188 396 138 438 z "},"G":{"ha":869,"x_min":79,"x_max":865,"o":"m 790 801 q 839 810 813 822 q 863 767 865 797 q 836 715 858 736 q 794 671 818 696 q 751 626 772 646 q 743 549 747 603 q 735 468 739 496 q 613 271 717 343 q 501 230 561 238 q 382 242 440 222 q 290 296 331 260 q 267 275 278 288 q 254 214 240 249 q 273 201 261 203 q 294 206 285 199 q 313 209 303 213 q 325 197 322 206 q 321 179 328 188 q 275 163 301 161 q 232 183 249 164 q 213 237 213 207 q 232 289 213 267 q 267 324 246 310 q 239 399 242 357 q 275 488 238 451 q 363 507 313 524 q 401 481 386 500 q 419 439 417 463 q 369 346 419 379 q 322 317 347 329 q 461 265 385 269 q 589 301 531 264 q 676 400 647 338 q 711 590 711 492 q 708 588 711 590 q 704 585 706 586 q 483 489 608 500 q 369 508 424 483 q 282 583 315 533 q 250 826 211 697 q 164 832 208 846 q 121 778 125 818 q 132 748 121 760 q 161 736 143 736 q 174 731 168 736 q 179 717 179 725 q 174 704 179 710 q 161 699 168 699 q 115 714 135 699 q 86 754 94 729 q 90 808 81 782 q 122 850 100 835 q 229 871 171 885 q 261 861 246 867 q 413 1046 304 979 q 537 1083 469 1082 q 663 1049 604 1083 q 744 966 714 1018 q 774 854 774 914 q 742 738 774 792 q 657 651 711 683 q 540 628 603 618 q 438 688 478 639 q 404 765 411 722 q 293 807 347 782 l 283 811 q 278 693 267 753 q 326 585 289 633 q 422 530 367 544 q 531 533 476 515 q 718 646 639 565 q 726 686 721 667 q 790 801 740 754 m 438 1018 q 294 847 335 958 q 340 826 338 828 q 403 804 371 814 q 432 880 407 846 q 495 931 457 914 q 575 944 533 949 q 651 917 617 940 q 683 869 675 899 q 679 814 690 840 q 638 765 665 783 q 579 743 611 747 q 443 756 510 738 q 483 694 454 719 q 549 664 511 669 q 661 699 611 661 q 728 796 711 736 q 728 906 744 851 q 669 999 713 961 q 556 1044 619 1039 q 438 1018 492 1050 m 439 794 q 478 786 460 790 q 617 796 576 769 q 647 841 644 810 q 625 890 650 872 q 519 901 578 925 q 443 824 461 878 q 439 794 439 810 m 278 419 q 296 343 269 378 q 339 369 329 363 q 369 399 356 381 q 381 439 382 418 q 357 469 381 460 q 305 465 329 481 q 278 419 281 449 m 825 764 q 824 776 828 774 q 811 771 819 778 q 778 721 789 750 q 768 696 772 708 q 801 733 785 714 q 825 764 817 746 z "},"H":{"ha":903,"x_min":76,"x_max":1133,"o":"m 1015 1083 q 1122 1079 1069 1110 q 1133 1056 1132 1069 q 1124 1031 1133 1042 q 1093 1006 1113 1013 q 1054 1007 1074 1000 q 1004 1038 1025 1017 q 908 947 949 1000 q 815 807 856 882 q 769 708 790 760 q 790 717 790 706 q 798 734 789 729 q 817 734 807 739 q 826 718 826 729 q 806 679 828 692 q 758 672 783 667 q 758 672 758 672 q 756 672 757 672 q 718 478 721 578 q 726 392 715 433 q 746 413 735 403 q 789 431 764 429 q 833 419 814 433 q 855 383 851 406 q 847 343 858 361 q 796 306 831 311 q 735 322 761 300 q 672 239 722 267 q 615 240 643 225 q 582 288 586 256 q 591 303 582 299 q 610 303 600 308 q 620 288 619 299 q 634 272 621 276 q 656 272 647 268 q 692 313 682 286 q 707 350 696 321 q 706 351 706 351 q 688 551 665 410 q 719 685 697 619 q 708 688 713 686 q 663 693 686 693 q 583 679 622 693 q 529 503 569 586 q 409 383 488 425 q 250 360 331 340 q 218 314 229 340 q 214 263 206 289 q 246 225 222 238 q 297 225 271 214 q 332 261 322 236 q 346 274 335 272 q 364 269 357 276 q 367 251 371 263 q 307 189 351 207 q 217 200 260 172 q 174 279 175 228 q 213 372 174 333 q 186 388 199 379 q 123 454 146 413 q 100 543 100 496 q 128 627 103 589 q 193 686 153 665 q 288 696 239 707 q 368 647 336 685 q 401 555 401 607 q 371 461 401 503 q 289 392 335 421 q 382 408 338 388 q 488 504 453 442 q 543 660 522 567 q 492 619 514 643 q 474 614 485 611 q 462 626 464 617 q 465 646 460 636 q 553 707 503 685 q 576 821 569 794 q 621 939 592 883 q 536 979 576 956 q 513 992 528 983 q 488 1006 497 1001 q 464 1019 479 1011 q 438 1032 449 1028 q 413 1042 428 1036 q 385 1051 397 1049 q 360 1056 374 1054 q 332 1058 346 1058 q 304 1056 318 1058 q 204 983 238 1043 q 276 961 238 965 q 375 951 326 961 q 440 896 419 938 q 442 811 460 854 q 376 746 421 767 q 286 739 332 725 q 203 785 238 750 q 154 865 168 819 q 158 971 140 918 q 88 1085 101 1015 q 100 1184 78 1136 q 175 1226 122 1232 q 213 1208 197 1224 q 231 1169 228 1192 q 215 1131 231 1147 q 176 1115 199 1115 q 163 1120 168 1115 q 158 1133 158 1125 q 163 1146 158 1140 q 176 1151 168 1151 q 192 1165 192 1151 q 181 1186 193 1179 q 136 1172 153 1199 q 129 1069 106 1122 q 174 1006 144 1032 q 201 1042 185 1025 q 290 1090 239 1078 q 393 1086 342 1101 q 514 1034 438 1075 q 607 985 590 993 q 642 971 624 978 q 676 1011 657 993 q 712 1040 692 1026 q 756 1063 732 1053 q 804 1070 781 1074 q 843 1047 828 1067 q 854 1008 856 1029 q 838 969 853 986 q 753 922 806 929 q 658 928 706 915 q 592 721 606 831 q 619 726 606 725 q 708 725 664 733 q 732 718 710 725 q 860 944 781 840 q 981 1064 910 1015 q 942 1154 951 1106 q 948 1172 940 1165 q 965 1177 956 1179 q 978 1164 975 1175 q 1014 1083 985 1119 q 1015 1083 1015 1083 m 199 944 q 194 947 197 946 q 189 950 190 949 q 185 908 185 929 q 224 817 188 856 q 315 772 261 778 q 403 815 372 767 q 412 860 414 836 q 393 900 410 883 q 293 924 347 929 q 199 944 243 925 m 743 1015 q 681 961 707 993 q 721 957 700 957 q 815 1003 797 957 q 813 1025 819 1017 q 790 1032 806 1033 q 743 1015 764 1029 m 186 435 q 243 401 211 413 q 292 438 254 410 q 361 525 343 469 q 354 602 372 565 q 299 655 336 639 q 222 658 261 671 q 161 611 182 646 q 140 518 133 568 q 186 435 147 468 m 817 385 l 815 385 q 795 396 808 399 q 771 384 782 393 q 754 365 760 375 q 749 356 751 360 q 788 342 765 340 q 814 356 803 342 q 817 385 825 371 m 1088 1044 q 1090 1047 1089 1044 q 1093 1051 1092 1050 q 1094 1053 1094 1053 q 1082 1056 1089 1056 q 1043 1054 1063 1058 q 1088 1044 1071 1032 z "},"I":{"ha":919,"x_min":76,"x_max":1110,"o":"m 1072 1103 q 1101 1064 1094 1089 q 1097 1015 1108 1039 q 1007 954 1068 963 q 883 947 946 943 q 815 706 844 872 q 746 465 785 540 q 644 329 707 388 q 696 228 661 274 q 756 256 724 247 q 803 251 781 261 q 838 217 826 240 q 833 172 846 193 q 796 147 819 151 q 701 172 743 138 q 692 181 697 175 q 656 158 669 165 q 544 132 606 121 q 509 165 519 140 q 511 213 499 189 q 527 221 518 221 q 542 212 536 221 q 543 193 549 203 q 552 169 533 175 q 588 168 571 164 q 643 193 617 178 q 665 208 649 197 q 615 304 632 251 q 376 203 510 219 q 256 213 315 194 q 149 274 196 232 q 92 365 108 311 q 92 474 76 419 q 150 569 108 529 q 247 625 192 610 q 481 582 374 658 q 621 396 579 511 q 631 368 625 385 q 731 518 696 433 q 794 793 774 653 q 843 950 810 874 q 715 957 744 957 q 710 957 714 957 q 704 957 706 957 q 746 811 758 894 q 699 715 739 756 q 604 664 660 674 q 507 685 551 654 q 451 768 463 715 q 467 872 443 822 q 538 949 490 922 q 600 978 567 968 q 539 989 569 985 q 453 1036 485 992 q 453 1128 426 1082 q 525 1175 476 1171 q 564 1156 550 1178 q 563 1111 578 1133 q 544 1103 556 1103 q 529 1113 533 1104 q 531 1131 525 1121 q 525 1136 536 1138 q 496 1125 507 1133 q 478 1085 479 1108 q 499 1042 476 1054 q 557 1024 521 1029 q 658 994 611 1019 q 662 993 660 994 q 664 990 664 992 q 794 990 729 997 q 824 988 800 990 q 861 985 849 986 q 882 1019 871 1003 q 910 1053 896 1038 q 945 1085 925 1069 q 985 1110 965 1101 q 1028 1117 1006 1118 q 1072 1103 1051 1117 m 710 867 q 654 951 699 919 q 563 922 606 949 q 497 851 521 894 q 499 747 472 797 q 588 699 526 696 q 685 756 649 706 q 710 867 721 806 m 775 219 q 724 200 746 218 q 754 186 738 190 q 801 190 789 174 q 798 210 808 201 q 775 219 788 219 m 585 328 q 593 334 588 329 q 601 340 599 339 q 585 386 592 371 q 429 569 542 507 q 305 597 371 601 q 186 553 239 592 q 126 456 139 515 q 142 343 114 397 q 231 259 174 285 q 352 239 289 233 q 476 267 415 244 q 585 328 538 290 m 1065 1033 q 1063 1063 1071 1049 q 1038 1078 1054 1076 q 982 1065 1007 1085 q 903 983 933 1033 q 943 983 925 983 q 1065 1033 1050 989 z "},"J":{"ha":875,"x_min":83,"x_max":1049,"o":"m 1019 1101 q 1044 1061 1039 1085 q 1038 1015 1049 1038 q 971 956 1017 972 q 843 939 908 932 q 797 763 811 853 q 736 542 778 649 q 605 364 693 436 q 406 269 517 292 q 251 296 324 251 q 176 407 192 336 q 181 512 164 460 q 240 600 199 564 q 204 633 225 619 q 153 642 183 647 q 121 606 122 636 q 115 593 121 599 q 103 588 110 588 q 90 593 96 588 q 85 606 85 599 q 129 672 86 653 q 268 624 197 706 q 339 661 301 647 q 442 668 389 683 q 525 606 494 653 q 531 517 550 563 q 463 460 511 472 q 365 469 413 444 q 283 540 318 494 q 261 572 278 547 q 238 544 249 560 q 212 420 197 488 q 286 318 226 353 q 453 319 369 285 q 632 442 558 357 q 681 513 660 475 q 717 598 703 551 q 740 679 732 644 q 760 770 749 714 q 778 856 772 826 q 804 943 789 900 q 740 954 786 944 q 553 963 647 979 q 624 908 599 949 q 640 821 649 868 q 596 749 633 775 q 513 729 558 722 q 437 772 467 735 q 411 854 407 808 q 464 954 419 914 l 463 954 q 395 1003 419 971 q 378 1081 371 1036 q 428 1145 385 1126 q 508 1138 471 1164 q 517 1119 518 1131 q 508 1104 515 1108 q 490 1106 500 1100 q 445 1113 469 1121 q 415 1079 421 1104 q 429 1018 404 1040 q 500 981 454 996 q 529 993 514 988 q 572 1003 549 1000 q 611 1006 594 1006 q 656 1004 628 1007 q 695 999 683 1001 q 739 991 707 997 q 779 983 771 985 q 819 978 804 979 q 864 1051 838 1017 q 908 1091 883 1074 q 963 1115 932 1108 q 1019 1101 994 1122 m 606 836 q 601 877 608 860 q 576 906 593 894 q 544 925 560 918 q 504 939 529 932 q 463 894 479 922 q 449 834 447 865 q 478 782 451 803 q 558 771 515 753 q 606 836 601 789 m 411 636 q 290 596 344 636 q 293 592 292 593 q 467 501 385 458 q 499 535 490 511 q 496 582 507 560 q 411 636 469 633 m 1006 1035 q 989 1075 1015 1067 q 940 1068 963 1083 q 865 986 890 1039 q 862 981 864 985 q 860 975 860 976 q 907 976 883 974 q 1006 1035 992 989 z "},"K":{"ha":871,"x_min":63,"x_max":1094,"o":"m 1065 1024 q 1088 1011 1083 1029 q 1076 988 1093 993 q 960 935 1017 974 q 865 858 903 897 q 774 764 828 819 q 685 678 721 708 q 707 581 701 631 l 742 314 q 745 287 743 308 q 750 253 747 265 q 806 268 775 269 q 860 247 836 267 q 888 183 893 224 q 843 128 882 142 q 772 138 806 119 q 728 194 739 157 q 717 183 722 189 q 688 157 697 165 q 658 133 679 149 q 623 112 638 117 q 588 107 608 107 q 549 117 567 107 q 513 176 513 135 q 550 233 514 217 q 568 231 561 238 q 573 213 575 224 q 561 199 571 201 q 551 167 543 192 q 586 144 561 143 q 622 153 603 143 q 651 171 642 163 q 678 198 660 179 q 717 232 696 217 q 706 306 714 242 q 690 431 697 368 l 674 551 q 656 654 669 604 q 582 621 624 626 l 581 621 q 394 376 514 436 q 376 368 386 372 q 344 304 356 339 q 342 256 335 281 q 368 217 349 232 q 443 222 408 193 q 462 225 451 229 q 475 213 472 221 q 469 196 478 204 q 414 170 446 174 q 354 182 382 167 q 313 226 326 197 q 303 286 299 256 q 325 354 308 322 q 185 371 250 340 q 94 474 119 401 q 118 642 64 563 q 265 715 174 714 q 412 642 357 715 q 443 482 467 569 q 426 444 436 463 q 535 603 499 511 q 544 628 539 615 q 515 660 524 638 q 527 722 507 693 q 583 751 547 751 q 650 942 608 850 q 513 985 603 950 q 379 1029 422 1021 q 263 1029 321 1043 q 321 992 294 1015 q 357 915 354 960 q 331 835 360 869 q 258 793 303 800 q 176 813 214 786 q 132 877 143 838 q 135 956 121 917 q 185 1029 149 999 q 157 1050 169 1038 q 131 1131 126 1085 q 174 1203 135 1176 q 212 1214 190 1217 q 244 1193 233 1211 q 245 1157 256 1175 q 214 1139 235 1139 q 198 1148 203 1139 q 198 1166 193 1157 q 214 1176 203 1175 q 192 1171 197 1175 q 176 1153 182 1163 q 167 1113 165 1133 q 218 1051 176 1068 q 260 1067 238 1061 q 465 1042 367 1086 q 669 978 564 997 q 700 1022 683 1001 q 723 1049 711 1036 q 753 1076 735 1061 q 787 1099 771 1092 q 821 1105 803 1107 q 854 1089 839 1103 q 869 1040 875 1067 q 843 992 863 1014 q 801 960 824 971 q 690 938 749 935 q 688 935 689 938 q 688 933 688 933 q 619 746 644 843 q 667 711 649 736 q 735 776 699 740 q 774 819 739 782 q 819 865 810 856 q 860 903 829 874 q 909 944 892 933 q 955 975 926 956 q 1010 1006 983 994 q 1065 1024 1038 1017 m 242 999 q 231 1003 240 999 q 218 1010 222 1007 q 190 982 201 999 q 167 933 174 961 q 171 877 161 904 q 207 838 181 850 q 293 850 254 815 q 315 933 332 885 q 242 999 292 982 m 746 1019 q 713 976 728 999 q 785 993 750 978 q 822 1023 806 1004 q 829 1060 839 1042 q 746 1019 813 1092 m 236 390 q 354 399 297 376 q 397 467 378 431 q 410 555 417 508 q 371 636 403 601 q 294 676 339 668 q 207 665 249 685 q 141 607 164 647 q 122 521 118 567 q 158 437 126 472 q 236 390 190 401 m 817 229 q 758 218 785 236 q 765 200 761 208 q 794 169 774 179 q 836 164 814 158 q 849 199 860 176 q 817 229 839 222 m 572 714 l 572 713 q 552 690 558 707 q 557 664 546 674 q 572 714 564 685 m 610 711 q 594 660 601 682 q 638 688 618 669 q 610 711 626 703 z "},"L":{"ha":688,"x_min":82,"x_max":910,"o":"m 724 308 q 772 341 744 329 q 828 350 799 353 q 879 325 858 347 q 888 247 908 289 q 824 197 868 204 q 708 239 756 188 q 681 208 696 222 q 630 179 658 189 q 572 176 601 169 q 526 210 543 183 q 521 260 511 232 q 553 299 531 289 q 603 297 576 310 q 609 272 618 288 q 585 265 600 257 q 569 265 576 269 q 556 251 561 260 q 567 219 547 231 q 598 208 582 208 q 630 217 614 207 q 658 238 646 226 q 685 265 669 249 q 660 296 672 279 q 511 424 601 379 q 446 449 479 439 q 322 356 394 389 q 146 354 201 303 q 127 390 131 369 q 135 428 124 410 q 210 478 163 467 q 400 496 303 510 q 433 489 415 493 q 567 779 526 622 q 593 863 586 843 q 529 853 561 856 q 424 858 476 850 q 357 872 400 861 q 307 885 314 883 q 225 893 267 896 q 246 882 239 886 q 318 817 292 861 q 322 733 335 775 q 271 668 308 692 q 185 656 231 646 q 111 703 139 665 q 85 790 83 742 q 118 874 86 838 q 146 900 131 889 q 113 951 122 921 q 132 1032 96 997 q 167 1049 146 1046 q 206 1042 188 1051 q 215 1026 215 1036 q 206 1010 215 1017 q 186 1010 197 1004 q 165 1010 176 1014 q 149 996 154 1006 q 154 949 139 971 q 181 919 164 931 q 317 921 249 940 q 367 908 324 919 q 433 893 410 897 q 607 903 521 881 q 653 1007 626 957 q 717 1071 672 1050 q 793 1060 758 1089 q 814 1019 813 1042 q 801 978 815 997 q 770 942 788 958 q 733 915 753 926 q 636 874 688 889 q 605 776 625 840 q 572 674 585 713 q 534 583 558 635 q 481 490 510 531 q 476 484 479 488 q 472 479 474 481 q 579 428 529 461 q 653 364 621 400 q 683 326 664 351 q 708 293 703 300 q 724 308 718 303 m 263 826 q 179 878 224 856 q 125 811 139 854 q 144 723 111 763 q 228 690 176 683 q 288 746 274 701 q 288 790 294 768 q 263 826 281 813 m 665 949 q 653 918 658 933 q 658 919 654 918 q 663 922 661 921 q 761 983 719 940 q 768 1032 786 1014 q 728 1036 750 1046 q 717 1029 722 1033 q 707 1021 711 1025 q 698 1010 703 1017 q 690 999 693 1003 q 682 985 686 994 q 676 973 678 976 q 671 960 675 969 q 665 949 667 950 m 332 403 q 404 457 372 425 q 326 463 365 464 q 231 446 278 461 q 201 436 213 440 q 176 419 190 432 q 164 393 161 407 q 236 369 171 361 q 332 403 288 376 m 824 235 l 824 233 q 856 266 847 242 q 843 307 865 290 q 733 265 797 335 q 824 235 769 225 z "},"M":{"ha":1629,"x_min":78,"x_max":1939,"o":"m 1556 640 q 1457 446 1497 547 q 1436 242 1418 346 q 1454 192 1442 215 q 1503 246 1474 224 q 1575 253 1538 271 q 1615 192 1613 235 q 1581 124 1619 149 q 1500 110 1542 99 q 1456 133 1475 117 q 1368 71 1419 92 q 1286 65 1332 53 q 1228 119 1240 78 q 1242 185 1215 157 q 1307 201 1269 214 q 1320 187 1318 197 q 1315 169 1322 176 q 1297 165 1308 161 q 1271 163 1281 172 q 1264 136 1261 153 q 1278 110 1267 119 q 1330 99 1303 97 q 1379 117 1357 100 q 1432 161 1408 135 q 1397 256 1403 204 q 1397 364 1389 310 q 1430 477 1404 418 q 1474 571 1456 536 q 1531 671 1493 606 q 1613 797 1568 736 q 1444 687 1518 757 q 1325 526 1371 617 q 1319 514 1322 519 q 1318 368 1340 440 q 1269 310 1299 317 q 1241 315 1254 304 q 1229 343 1228 326 q 1244 419 1233 382 q 1278 513 1258 467 q 1279 516 1278 514 q 1281 519 1281 518 q 1274 556 1276 543 q 1279 783 1258 669 q 1285 810 1281 792 q 1242 754 1261 783 q 1196 660 1213 710 q 1172 550 1181 606 q 1092 368 1158 447 q 978 284 1044 314 q 838 255 911 254 q 699 287 765 256 q 588 375 633 318 q 556 372 572 371 q 460 406 501 374 q 399 480 419 439 q 349 575 378 521 q 293 657 319 629 q 241 693 272 679 q 176 701 210 707 q 128 664 143 696 q 122 626 118 646 q 143 594 126 606 q 164 590 151 589 q 178 603 176 592 q 177 614 181 608 q 167 621 174 619 q 153 632 156 622 q 158 650 151 642 q 176 657 165 658 q 214 617 207 649 q 197 565 221 586 q 131 559 165 542 q 86 613 96 576 q 97 682 79 649 q 149 731 114 715 q 231 735 189 744 q 306 697 274 726 q 407 538 371 628 q 540 410 467 422 q 564 408 551 408 q 531 532 529 465 q 614 685 535 629 q 807 736 701 744 q 981 661 911 738 q 1011 577 1010 624 q 985 493 1013 531 q 818 397 922 410 q 675 413 744 382 q 626 386 651 397 q 656 358 640 371 q 775 300 708 315 q 908 300 842 285 q 1027 358 974 315 q 1110 463 1081 401 q 1138 569 1126 499 q 1157 663 1150 639 q 1249 826 1188 753 q 1296 876 1271 853 q 1081 939 1214 861 q 1001 983 1033 967 q 922 1015 969 999 q 833 1031 875 1031 q 871 931 874 989 q 849 867 869 896 q 799 823 828 838 q 734 813 769 808 q 671 842 699 817 q 638 899 646 865 q 643 965 631 933 q 751 1056 676 1035 q 756 1058 753 1057 q 758 1058 758 1058 q 736 1169 714 1107 q 779 1219 750 1201 q 843 1231 808 1236 q 858 1219 854 1229 q 858 1201 863 1210 q 843 1194 854 1193 q 797 1185 818 1199 q 768 1147 775 1172 q 796 1072 760 1103 l 801 1067 q 1061 994 942 1071 q 1094 975 1068 990 q 1131 953 1119 960 q 1165 935 1142 947 q 1204 920 1189 924 q 1240 913 1219 917 q 1280 911 1261 908 q 1317 922 1299 914 q 1347 994 1331 958 q 1396 1075 1363 1040 q 1431 1085 1411 1089 q 1461 1064 1451 1081 q 1388 913 1494 1006 q 1338 867 1363 890 q 1315 781 1325 825 q 1308 574 1296 678 q 1519 790 1388 710 q 1660 854 1586 831 q 1817 960 1725 926 q 1904 965 1860 979 q 1928 946 1919 960 q 1935 914 1938 932 q 1828 849 1924 867 q 1777 841 1813 846 q 1725 832 1742 836 q 1679 821 1703 828 q 1669 810 1671 811 q 1556 640 1604 731 m 833 931 q 788 1026 833 990 q 720 1001 750 1024 q 675 944 690 979 q 685 883 665 911 q 738 849 704 854 q 803 870 775 846 q 833 931 832 894 m 643 536 q 674 457 633 488 q 689 471 681 464 q 719 504 706 486 q 733 544 733 522 q 707 575 733 565 q 666 569 685 581 q 643 536 647 557 m 568 508 q 603 417 575 458 q 642 435 624 424 q 633 444 638 440 q 604 524 601 478 q 643 599 607 569 q 716 610 676 622 q 769 558 756 597 q 710 439 785 504 l 708 439 q 869 450 790 415 q 949 506 917 468 q 974 590 981 544 q 924 664 967 638 q 828 697 882 690 q 640 658 728 713 q 582 594 601 635 q 568 508 563 553 m 1403 1024 q 1381 979 1392 1004 q 1364 940 1374 965 q 1388 963 1383 958 q 1417 996 1404 978 q 1431 1040 1436 1028 q 1426 1047 1429 1046 q 1421 1047 1424 1049 q 1415 1044 1418 1046 q 1410 1037 1413 1042 q 1406 1029 1407 1032 q 1403 1024 1404 1026 m 1293 443 q 1292 449 1293 444 q 1285 425 1289 438 q 1272 369 1282 418 q 1269 363 1271 368 q 1268 354 1268 357 l 1268 353 q 1269 354 1268 354 q 1276 365 1272 360 q 1286 390 1282 378 q 1293 443 1294 415 m 1821 921 q 1732 871 1772 903 q 1863 897 1799 875 q 1900 924 1901 915 q 1863 933 1897 939 q 1821 921 1840 929 m 1493 185 q 1478 163 1486 174 q 1480 161 1478 163 q 1483 160 1482 160 q 1524 144 1500 144 q 1565 158 1547 143 q 1578 192 1581 171 q 1557 222 1575 213 q 1493 185 1526 232 z "},"N":{"ha":1599,"x_min":79,"x_max":1738,"o":"m 1703 1185 q 1722 1188 1711 1192 q 1734 1176 1732 1185 q 1729 1158 1736 1167 q 1683 1021 1672 1100 q 1675 856 1692 938 q 1607 724 1653 783 q 1499 594 1572 678 q 1394 469 1425 510 q 1384 456 1390 465 q 1375 444 1378 447 q 1361 333 1375 388 q 1296 219 1347 265 q 1244 217 1271 201 q 1219 264 1217 233 q 1254 338 1226 306 q 1297 401 1275 369 q 1339 457 1315 425 q 1329 590 1339 492 q 1321 746 1325 643 q 1319 792 1321 758 q 1317 844 1317 826 q 1278 803 1294 822 q 1194 656 1222 738 q 1176 572 1186 628 q 1160 488 1167 515 q 1087 362 1138 417 q 967 279 1036 307 q 823 256 897 251 q 682 296 749 260 q 588 375 628 326 q 538 374 563 369 q 418 451 463 388 q 377 520 400 475 q 337 599 354 565 q 288 664 319 633 q 217 701 257 694 q 151 689 181 711 q 122 629 122 667 q 137 599 124 613 q 167 590 150 586 q 178 607 178 594 q 167 621 179 619 q 153 632 156 622 q 159 650 151 642 q 176 657 167 658 q 211 628 200 650 q 211 585 222 607 q 168 553 197 558 q 115 568 139 549 q 88 614 94 586 q 90 668 81 642 q 147 729 107 713 q 229 735 186 746 q 306 697 272 725 q 391 570 346 663 q 475 443 436 478 q 564 410 513 410 q 531 526 532 464 q 584 658 535 601 q 708 728 633 714 q 810 736 758 736 q 913 713 863 736 q 990 649 963 690 q 999 515 1031 583 q 890 418 964 444 q 675 413 783 369 q 628 386 653 396 q 679 342 650 360 q 815 293 740 300 q 958 315 889 286 q 1073 403 1026 344 q 1132 533 1119 461 q 1167 686 1143 611 q 1243 817 1194 757 q 1286 867 1260 839 q 1183 874 1235 856 q 1067 928 1131 892 q 988 972 1019 956 q 908 1004 956 989 q 819 1019 861 1019 q 857 919 860 978 q 835 856 856 885 q 785 813 814 826 q 720 802 756 799 q 657 831 685 806 q 624 888 632 854 q 629 954 617 922 q 738 1044 663 1024 q 742 1047 739 1046 q 744 1047 744 1047 q 722 1158 700 1096 q 765 1208 736 1190 q 829 1221 794 1225 q 844 1209 840 1219 q 844 1190 849 1199 q 829 1183 840 1182 q 783 1174 804 1188 q 754 1136 761 1161 q 781 1061 746 1092 q 788 1056 785 1058 q 1047 983 928 1060 q 1082 962 1053 979 q 1122 940 1111 944 q 1159 922 1132 935 q 1201 906 1186 908 q 1240 901 1217 904 q 1283 903 1263 897 q 1321 921 1303 908 q 1322 924 1322 924 q 1350 1000 1331 964 q 1385 1064 1364 1035 q 1439 1083 1404 1094 q 1469 1036 1471 1069 q 1396 919 1469 983 q 1356 882 1375 901 q 1356 835 1354 872 q 1358 754 1356 808 q 1365 603 1363 640 q 1374 503 1372 528 q 1501 656 1436 582 q 1567 733 1546 706 q 1615 808 1589 760 q 1647 903 1642 857 q 1649 976 1650 936 q 1648 1052 1649 1017 q 1660 1124 1647 1088 q 1703 1185 1674 1160 m 821 921 q 774 1017 819 979 q 706 990 736 1013 q 661 933 676 968 q 672 872 653 900 q 725 838 690 843 q 790 859 761 835 q 821 921 818 883 m 649 489 q 674 457 658 469 q 708 489 693 472 q 729 518 721 503 q 734 549 738 533 q 710 574 731 565 q 654 555 674 589 q 649 489 635 521 m 578 582 q 603 417 547 493 q 617 421 613 419 q 643 435 631 428 q 615 475 625 453 q 608 541 600 507 q 642 597 615 575 q 701 613 668 617 q 754 586 733 610 q 710 439 810 524 q 786 431 747 426 q 933 489 869 435 q 971 549 963 513 q 965 619 979 585 q 839 696 921 690 q 681 681 757 708 q 578 582 606 653 m 1389 994 q 1365 942 1375 969 q 1406 979 1388 958 q 1431 1044 1446 1029 q 1424 1047 1428 1047 q 1417 1043 1421 1047 q 1409 1035 1413 1039 q 1402 1024 1406 1031 q 1397 1012 1399 1017 q 1392 1001 1394 1007 q 1389 994 1389 996 m 1311 301 q 1336 390 1331 344 q 1290 325 1310 356 q 1285 318 1289 324 q 1277 307 1281 313 q 1269 294 1274 301 q 1261 279 1264 286 q 1256 266 1258 272 q 1256 255 1254 260 q 1264 247 1258 250 q 1277 250 1269 244 q 1292 268 1285 256 q 1303 286 1300 281 q 1311 301 1306 292 z "},"O":{"ha":782,"x_min":79,"x_max":750,"o":"m 532 932 q 675 850 618 918 q 742 692 732 782 q 707 512 750 597 q 583 376 664 426 q 462 318 526 338 q 328 308 397 299 q 206 363 258 318 q 109 517 138 421 q 93 710 81 613 q 125 825 101 769 q 85 924 81 864 q 115 993 89 963 q 179 1033 140 1024 q 201 1020 196 1038 q 189 997 206 1003 q 147 974 165 992 q 124 933 129 957 q 143 860 115 892 q 296 1007 196 958 q 470 1042 378 1049 q 639 983 563 1035 q 647 965 647 976 q 638 950 646 954 q 619 951 629 946 q 550 989 588 975 q 389 999 471 1015 q 244 929 307 983 q 172 838 200 890 q 247 824 208 824 q 289 821 264 822 q 393 914 326 883 q 532 932 460 944 m 313 783 q 308 699 296 742 q 358 631 321 656 q 438 620 396 604 q 490 681 481 636 q 478 737 496 711 q 429 769 460 763 q 313 783 372 785 m 635 471 q 703 619 692 535 q 679 779 715 703 q 572 881 644 850 q 426 888 500 911 q 332 819 368 869 q 388 815 365 819 q 507 760 458 813 q 528 685 532 726 q 496 615 525 644 q 418 578 464 582 q 335 601 372 575 q 277 676 294 629 q 271 771 260 722 q 275 783 272 774 q 168 799 219 782 q 157 804 165 800 q 128 622 121 717 q 179 451 133 531 q 306 350 225 372 q 481 364 389 326 q 635 471 574 401 z "},"P":{"ha":885,"x_min":78,"x_max":907,"o":"m 524 479 q 406 310 494 372 q 333 283 372 289 q 344 243 335 261 q 390 213 360 215 q 415 224 403 214 q 425 246 426 233 q 442 269 422 265 q 461 257 458 272 q 451 210 464 232 q 414 181 438 189 q 365 180 389 172 q 325 208 340 188 q 296 281 299 239 q 213 296 253 281 q 131 358 164 317 q 88 450 99 399 q 92 551 78 501 q 143 639 107 601 q 236 691 182 681 q 342 678 290 701 q 406 608 386 654 q 413 515 425 563 q 377 423 406 481 q 340 338 349 365 q 336 321 338 331 q 382 339 360 326 q 490 497 467 397 q 510 565 501 531 q 529 657 518 600 q 543 726 540 714 q 569 856 560 790 q 560 913 572 888 q 518 935 547 938 q 502 942 507 933 q 502 961 497 951 q 518 972 507 971 q 571 955 547 972 q 601 910 594 938 q 607 882 606 896 q 606 851 608 868 q 602 823 604 833 q 596 792 600 813 q 589 765 592 772 q 524 479 564 619 m 201 343 q 299 318 246 317 q 319 390 304 356 q 344 438 325 400 q 372 503 363 476 q 381 556 381 529 q 336 638 378 607 q 244 656 294 668 q 143 578 176 640 q 126 447 110 517 q 201 343 142 378 m 646 1074 q 832 956 757 1044 q 889 758 907 868 q 852 669 881 710 q 781 604 824 628 q 679 582 733 581 q 618 567 646 586 q 612 553 614 563 q 614 539 610 544 q 628 538 618 533 q 644 534 638 542 q 649 516 651 526 q 638 501 647 506 q 596 508 615 494 q 574 543 576 521 q 587 588 572 568 q 625 613 601 607 q 683 620 644 619 q 739 626 721 621 q 821 688 790 644 q 854 779 850 729 q 839 875 858 829 q 692 1018 794 976 q 482 1049 590 1061 q 306 963 375 1043 q 274 863 274 918 l 278 864 q 396 882 335 888 q 435 858 419 876 q 456 816 451 840 q 450 769 460 792 q 419 735 440 747 q 329 724 376 707 q 257 782 282 740 q 242 822 247 801 q 171 857 197 821 q 167 929 143 892 q 184 937 174 938 q 199 928 194 936 q 199 910 204 919 q 197 885 192 897 q 214 867 201 874 q 236 858 224 860 q 261 961 235 914 q 332 1038 286 1008 q 432 1078 378 1068 q 540 1088 486 1089 q 646 1074 594 1086 m 349 846 q 311 836 335 843 q 278 826 288 829 q 294 794 283 810 q 375 756 324 751 q 409 775 396 758 q 419 813 422 792 q 395 843 417 836 q 349 846 374 850 z "},"Q":{"ha":879,"x_min":81,"x_max":833,"o":"m 431 1049 q 615 1017 526 1057 q 760 899 703 976 q 824 724 815 821 q 792 540 833 628 q 680 415 751 464 q 522 358 608 367 q 541 288 519 319 q 599 242 563 256 q 647 247 624 235 q 681 285 671 260 q 695 297 685 294 q 713 292 706 299 q 717 275 721 285 q 668 217 701 238 q 599 204 636 199 q 536 236 563 210 q 485 358 483 286 q 318 419 392 360 q 242 596 239 489 q 322 772 249 699 q 499 854 394 846 q 588 837 544 856 q 660 782 631 818 q 693 699 688 744 q 679 611 699 653 q 567 499 644 532 q 548 450 561 485 q 529 397 535 415 q 607 417 569 401 q 732 515 683 449 q 788 664 781 582 q 760 826 796 749 q 654 953 724 903 q 502 1010 585 999 q 342 993 419 1021 q 206 905 264 964 q 121 768 149 846 q 108 755 118 757 q 90 760 97 753 q 86 778 82 767 q 125 860 101 821 q 256 990 175 940 q 431 1049 336 1040 m 536 529 q 538 576 542 553 q 521 613 535 597 q 488 636 507 629 q 453 625 468 638 q 438 593 438 613 q 448 557 438 574 q 478 533 458 540 q 536 529 507 521 m 307 489 q 387 418 338 443 q 490 396 436 393 q 525 489 506 443 q 448 507 483 483 q 401 572 413 531 q 422 646 393 614 q 494 672 451 678 q 557 627 536 664 q 575 546 578 590 q 657 672 647 589 q 638 749 658 714 q 579 800 617 783 q 404 789 489 840 q 292 658 324 744 q 307 489 261 572 z "},"R":{"ha":879,"x_min":65,"x_max":907,"o":"m 722 319 q 772 267 758 304 q 754 203 785 229 q 685 202 718 181 q 642 261 651 224 q 638 293 639 276 q 586 299 611 292 q 532 342 550 310 q 535 408 514 374 q 553 415 542 417 q 568 406 564 414 q 567 389 572 399 q 561 367 560 379 q 572 347 563 356 q 622 331 594 329 q 635 329 632 329 q 635 356 635 347 l 631 471 q 622 575 631 524 q 542 638 568 588 q 503 517 526 576 q 392 367 471 425 q 263 338 333 329 q 261 276 253 307 q 287 233 265 250 q 336 218 308 217 q 354 211 347 219 q 359 193 361 203 q 346 182 357 183 q 260 209 297 176 q 221 290 222 242 q 226 344 219 318 q 214 349 217 347 q 138 397 171 364 q 92 475 106 431 q 121 650 65 569 q 190 710 147 689 q 279 726 232 731 q 359 681 328 719 q 385 594 390 643 q 370 527 383 558 q 326 451 357 496 q 288 394 296 407 q 278 374 282 385 q 379 404 333 371 q 472 544 447 460 q 528 736 486 581 q 537 771 531 749 q 548 812 543 793 q 557 847 553 831 q 562 871 561 858 q 562 898 563 883 q 553 922 561 913 q 529 931 544 931 q 515 936 521 931 q 510 949 510 942 q 515 963 510 957 q 529 968 521 968 q 576 948 556 967 q 599 901 596 929 q 575 767 600 832 q 551 675 568 743 q 553 676 551 675 q 614 660 586 679 q 650 608 642 640 q 726 619 689 604 q 802 678 771 640 q 843 764 833 717 q 808 943 865 858 q 657 1061 751 1028 q 561 1080 613 1076 q 459 1074 510 1083 q 368 1035 408 1065 q 311 957 328 1004 q 304 914 304 936 q 393 933 347 931 q 481 883 451 935 q 485 831 493 858 q 456 788 478 804 q 359 776 410 757 q 285 842 308 796 q 274 869 278 856 q 194 876 233 860 q 151 929 160 892 q 169 996 143 967 q 188 999 178 1003 q 201 987 199 996 q 196 969 203 978 q 187 947 188 960 q 193 925 186 935 q 253 903 217 897 q 267 906 260 904 q 318 1038 265 982 q 449 1110 368 1092 q 609 1113 529 1129 q 750 1056 689 1097 q 875 883 844 992 q 847 676 906 775 q 683 571 790 585 q 661 569 672 569 q 664 549 663 558 q 672 339 664 539 q 672 328 672 336 q 722 319 699 328 m 451 849 q 433 883 453 871 q 390 896 414 896 q 310 879 349 893 q 376 810 324 825 q 426 813 401 803 q 451 849 450 824 m 225 385 q 240 381 229 383 q 308 492 271 439 q 324 668 385 611 q 246 689 289 696 q 172 653 203 682 q 125 504 110 592 q 159 431 132 463 q 225 385 186 399 m 600 625 q 590 632 596 629 q 600 625 594 628 m 689 246 q 719 229 699 231 q 738 251 739 228 q 674 292 735 288 q 689 246 675 267 z "},"S":{"ha":729,"x_min":81,"x_max":800,"o":"m 607 832 q 610 731 607 797 q 614 636 614 665 q 579 449 615 535 q 465 311 543 363 q 340 268 408 274 q 351 233 340 250 q 424 199 376 196 q 439 190 435 199 q 439 171 443 181 q 424 161 435 161 q 351 182 383 158 q 303 267 307 213 q 143 338 210 271 q 85 495 81 408 q 150 654 89 582 q 300 736 208 725 q 380 723 342 740 q 443 672 418 706 q 467 594 467 638 q 443 517 467 551 q 378 435 418 471 q 350 328 372 379 q 343 304 346 315 q 480 372 421 318 q 560 501 539 425 q 578 599 575 549 q 576 723 581 650 q 571 822 571 796 q 458 824 515 811 q 385 853 418 829 q 335 914 353 878 q 335 983 319 949 q 385 1031 350 1018 q 447 1013 421 1038 q 467 954 472 989 q 455 941 465 943 q 437 946 444 939 q 431 964 429 953 q 415 990 435 982 q 381 988 394 999 q 366 954 368 974 q 374 918 364 935 q 447 865 400 878 q 571 860 508 846 q 576 908 572 885 q 649 1067 583 1000 q 715 1092 675 1093 q 771 1056 754 1092 q 735 918 799 996 q 610 833 685 858 l 607 832 m 665 1032 q 608 872 608 963 q 725 968 683 900 q 735 1044 754 1017 q 713 1056 726 1056 q 687 1049 699 1056 q 665 1032 675 1042 m 146 396 q 283 306 193 319 q 306 303 294 303 q 311 331 307 317 q 339 413 328 371 q 315 407 328 408 q 251 435 278 406 q 243 499 224 465 q 301 529 264 529 q 360 499 339 529 q 369 481 365 490 q 422 636 456 571 q 359 691 400 675 q 276 694 318 707 q 142 574 182 664 q 120 484 119 532 q 146 396 121 436 m 339 454 q 303 493 331 490 q 276 478 282 494 q 288 451 269 463 q 339 454 314 436 z "},"T":{"ha":706,"x_min":81,"x_max":986,"o":"m 861 1083 q 940 1091 899 1111 q 985 1025 982 1071 q 947 953 985 978 q 860 932 908 928 q 740 966 801 936 q 612 1036 678 996 q 499 1093 546 1076 q 308 1089 403 1135 q 244 1031 268 1068 q 218 948 221 993 q 234 863 215 903 q 289 796 253 822 q 376 765 328 765 q 465 793 425 764 q 505 863 500 819 q 482 940 510 907 q 409 966 453 974 q 349 918 365 958 q 335 906 346 907 q 317 910 325 904 q 314 928 310 917 q 376 995 331 975 q 467 996 421 1015 q 533 929 513 975 q 538 836 553 883 q 486 763 522 792 q 404 729 450 733 q 308 743 354 724 q 231 800 263 763 q 185 972 169 876 q 283 1118 201 1068 q 342 1142 311 1135 q 399 1151 374 1150 q 459 1142 424 1151 q 515 1126 494 1132 q 574 1099 536 1119 q 626 1072 613 1079 q 678 1042 640 1064 q 744 1004 719 1017 q 810 979 769 992 q 885 968 850 967 q 929 985 910 971 q 947 1025 949 1000 q 922 1059 946 1050 q 879 1051 899 1068 q 861 1050 869 1044 q 853 1065 853 1056 q 861 1083 853 1075 m 206 368 q 100 453 133 386 q 85 535 81 492 q 115 614 89 579 q 177 662 140 646 q 254 672 214 678 q 319 644 292 668 q 358 585 347 619 q 353 524 365 556 q 328 476 342 493 q 288 429 315 460 q 267 403 275 414 q 294 407 281 404 q 371 442 336 417 q 431 507 406 467 q 473 580 457 547 q 508 660 489 613 q 542 743 529 715 q 578 815 554 771 q 631 889 603 858 q 696 943 660 919 q 716 942 707 949 q 726 926 725 936 q 717 907 726 915 q 635 831 671 879 q 582 737 600 782 q 538 629 564 692 q 493 529 513 567 q 386 406 450 454 q 246 363 322 358 q 243 338 243 350 q 261 304 244 318 q 294 300 278 290 q 323 294 313 311 q 315 265 333 276 q 244 268 279 249 q 204 328 208 288 q 206 368 201 349 m 158 439 q 221 407 185 414 q 292 493 254 453 q 319 576 325 528 q 279 622 308 608 q 208 630 244 639 q 147 590 171 621 q 125 513 122 556 q 158 439 128 469 z "},"U":{"ha":976,"x_min":71,"x_max":1097,"o":"m 988 983 q 1068 958 1036 997 q 1064 861 1097 908 q 986 756 1029 806 q 840 568 914 663 q 825 403 828 486 q 829 282 824 343 q 903 267 872 300 q 922 228 921 251 q 908 188 924 206 q 868 174 890 174 q 828 189 846 174 q 801 229 808 206 l 797 228 q 714 196 760 201 q 635 233 664 192 q 628 321 606 275 q 644 329 635 329 q 659 320 653 329 q 660 301 665 311 q 666 252 649 275 q 711 233 683 229 q 793 267 756 242 q 792 285 792 276 q 789 418 786 351 q 796 510 790 458 q 750 451 765 471 q 703 406 735 432 q 640 368 672 379 q 547 365 594 349 q 474 424 500 381 q 463 468 464 444 q 465 513 461 492 q 480 558 469 533 q 500 601 490 583 q 522 640 510 618 q 549 683 529 651 q 578 731 569 715 q 601 774 588 747 q 620 826 614 801 q 628 876 626 851 q 597 976 629 932 q 511 1036 564 1021 q 408 1041 460 1051 q 315 996 356 1031 q 214 865 247 943 q 280 860 236 861 q 340 856 324 858 q 422 821 386 851 q 468 745 457 790 q 463 656 479 700 q 407 586 446 613 q 319 563 367 563 q 232 588 272 563 q 166 669 188 619 q 151 772 144 718 q 165 840 154 807 q 101 886 126 854 q 90 974 72 925 q 160 1025 108 1024 q 172 1020 167 1025 q 178 1008 178 1015 q 172 994 178 1000 q 160 989 167 989 q 125 963 135 988 q 126 918 115 938 q 178 874 143 886 q 239 974 200 929 q 340 1054 282 1025 q 465 1081 399 1083 q 585 1040 531 1079 q 648 963 626 1010 q 664 865 669 917 q 572 650 644 747 q 560 631 571 649 q 545 607 549 613 q 531 584 542 601 q 518 558 521 567 q 508 532 515 549 q 500 504 501 515 q 498 479 499 493 q 501 453 497 465 q 513 431 506 442 q 566 397 532 401 q 632 406 600 393 q 688 442 664 419 q 764 531 729 482 q 806 583 785 557 q 825 681 814 638 q 911 919 853 806 q 988 983 935 968 m 314 822 q 265 825 307 822 q 201 831 222 828 q 192 800 196 814 q 201 680 179 738 q 282 604 224 622 q 376 612 331 588 q 433 688 421 636 q 415 775 443 735 q 314 822 376 822 m 883 215 q 879 238 892 226 q 854 250 867 249 q 833 246 844 250 q 846 222 838 232 q 864 211 853 214 q 883 215 875 208 m 1018 858 q 1037 889 1029 874 q 1043 923 1044 904 q 1021 947 1042 942 q 942 899 976 961 q 858 660 885 785 q 857 653 858 657 q 856 649 856 650 q 907 713 871 668 q 969 792 943 758 q 1018 858 996 826 z "},"V":{"ha":925,"x_min":82,"x_max":1038,"o":"m 878 875 q 860 708 882 790 q 820 640 846 674 q 774 585 794 606 q 712 529 753 565 q 656 479 671 493 q 651 453 651 453 q 625 339 640 394 q 583 265 619 293 q 547 260 567 256 q 518 281 528 264 q 524 363 503 324 q 622 499 558 442 q 640 640 635 571 q 643 810 650 725 q 589 958 638 892 q 436 1033 529 1031 q 294 994 360 1033 q 192 888 228 956 q 272 878 231 876 q 299 878 276 878 q 329 877 322 878 q 356 876 336 876 q 385 872 375 875 q 410 865 394 869 q 438 855 425 861 q 461 840 450 849 q 510 769 494 811 q 515 685 525 728 q 422 567 497 604 q 261 559 343 528 q 146 672 179 590 q 143 869 103 769 q 99 913 114 885 q 85 974 83 942 q 113 1030 88 1007 q 172 1053 139 1053 q 188 1042 183 1051 q 188 1023 193 1032 q 172 1015 183 1014 q 138 1003 153 1017 q 121 968 122 989 q 158 904 121 925 q 236 999 188 958 q 411 1069 314 1063 q 589 1013 508 1075 q 670 871 653 957 q 681 676 688 785 q 667 538 676 610 q 774 640 722 586 q 828 726 808 678 q 839 819 840 772 q 874 1008 835 918 q 931 1078 893 1051 q 1017 1110 969 1106 q 1033 1101 1028 1110 q 1033 1082 1038 1092 q 1017 1072 1028 1072 q 940 1038 972 1069 q 878 875 878 968 m 340 840 q 176 854 257 835 q 171 836 172 840 q 184 680 147 757 q 300 585 221 603 q 396 594 349 572 q 467 660 443 615 q 476 754 492 706 q 340 840 451 835 m 586 338 q 610 431 599 379 q 550 322 567 385 q 552 300 547 308 q 571 301 557 292 q 586 338 583 317 z "},"W":{"ha":1107,"x_min":79,"x_max":1261,"o":"m 143 871 q 85 953 94 897 q 106 1023 79 993 q 174 1053 133 1053 q 189 1042 185 1051 q 189 1023 193 1032 q 174 1015 185 1014 q 135 1000 151 1017 q 122 961 119 983 q 158 904 126 924 q 256 1014 194 971 q 393 1068 318 1057 q 589 1013 504 1083 q 676 843 663 943 q 678 632 690 738 q 667 538 674 590 q 718 583 715 582 q 790 664 760 618 q 821 731 810 696 q 796 846 811 789 q 793 946 775 894 q 820 974 803 964 q 858 981 838 983 q 893 847 922 967 q 858 732 882 800 l 858 729 q 864 685 863 697 q 876 553 874 614 q 968 644 928 593 q 999 708 988 671 q 1014 768 1011 744 q 1021 839 1017 792 q 1071 1022 1022 938 q 1236 1128 1132 1108 q 1254 1121 1247 1129 q 1259 1103 1261 1113 q 1246 1092 1257 1093 q 1146 1047 1190 1082 q 1081 958 1101 1011 q 1053 778 1056 871 q 992 614 1046 688 q 878 507 939 556 q 875 431 878 467 q 844 328 871 372 q 768 274 818 283 q 744 288 750 269 q 815 496 715 392 q 839 519 824 506 q 836 608 839 569 q 831 658 835 624 q 818 636 825 647 q 681 501 757 561 q 657 479 669 492 q 638 382 647 425 q 601 279 631 326 q 566 260 588 263 q 526 271 544 257 q 522 357 500 296 q 571 442 540 403 q 624 499 594 472 q 643 664 638 585 q 635 860 654 763 q 528 1010 615 960 q 324 1010 426 1060 q 193 888 239 969 q 308 878 250 874 q 492 807 443 878 q 519 720 518 768 q 496 632 521 672 q 353 544 444 554 q 188 613 256 535 q 125 788 119 690 q 143 871 128 831 m 776 315 q 828 376 815 335 q 840 469 842 422 q 776 315 768 408 m 829 932 q 829 867 817 915 q 843 808 838 832 q 843 806 843 806 q 865 894 858 849 q 861 935 869 915 q 845 943 854 944 q 829 932 836 942 m 582 319 q 610 426 600 372 q 610 429 610 428 q 610 431 610 431 q 561 353 579 396 q 550 306 549 331 q 574 306 554 282 q 582 319 579 313 m 217 844 q 178 854 196 847 q 183 682 140 767 q 240 613 203 640 q 325 581 278 586 q 405 599 367 579 q 467 656 443 619 q 479 744 490 697 q 428 818 468 792 q 360 840 400 835 q 288 842 321 844 q 217 844 254 839 z "},"X":{"ha":896,"x_min":68,"x_max":1093,"o":"m 1068 1042 q 1088 1028 1083 1044 q 1078 1007 1093 1013 q 849 831 938 951 q 749 544 756 703 q 826 250 743 385 q 865 263 844 263 q 899 254 883 264 q 921 228 914 244 q 906 177 932 196 q 850 172 879 158 q 818 197 831 181 q 790 175 806 185 q 735 160 765 158 q 681 181 704 161 q 649 229 657 200 q 651 288 640 258 q 666 299 656 297 q 684 294 676 301 q 688 278 692 288 q 685 233 676 256 q 714 200 693 211 q 794 225 750 185 l 797 228 l 796 231 q 760 296 775 263 q 717 603 696 443 q 724 640 719 622 q 676 556 696 588 q 613 461 647 507 q 512 344 574 393 q 374 272 450 294 q 353 283 360 268 q 360 306 346 299 q 553 447 471 357 q 575 474 563 458 q 646 715 642 585 q 592 956 651 876 q 477 1027 546 1010 q 342 1018 408 1044 q 192 888 242 981 q 326 878 258 874 q 475 828 411 883 q 517 690 531 769 q 456 589 503 629 q 346 544 408 549 q 224 579 279 543 q 143 678 168 615 q 142 869 103 774 q 108 900 122 882 q 92 1001 68 946 q 124 1040 101 1025 q 172 1053 146 1054 q 188 1042 183 1051 q 188 1023 193 1032 q 172 1015 183 1014 q 140 1006 154 1017 q 122 976 126 994 q 147 913 115 938 q 158 904 153 908 q 274 1025 200 981 q 436 1071 349 1069 q 568 1026 508 1068 q 654 917 628 985 q 678 650 700 786 q 672 625 676 640 q 708 691 682 642 q 746 760 735 740 q 783 822 757 779 q 827 885 810 865 q 874 937 844 906 q 931 985 904 968 q 993 1018 957 1001 q 1068 1042 1029 1035 m 369 838 q 278 842 347 840 q 176 854 210 843 q 167 821 169 838 q 176 697 151 757 q 256 603 200 638 q 367 585 308 572 q 461 649 426 599 q 474 763 497 703 q 431 815 460 794 q 369 838 403 835 m 879 222 q 847 219 863 231 q 875 203 857 204 q 886 210 885 204 q 879 222 888 217 z "},"Y":{"ha":1003,"x_min":83,"x_max":1006,"o":"m 678 415 q 675 404 676 411 q 656 335 669 386 q 636 254 643 283 q 719 300 685 279 q 960 494 851 383 q 977 499 967 503 q 990 487 988 496 q 986 468 993 478 q 867 360 929 411 q 661 225 771 282 q 624 207 646 218 q 583 83 604 138 q 515 -61 557 8 q 415 -146 483 -125 q 355 -144 385 -154 q 308 -107 325 -133 q 308 8 279 -50 q 489 181 349 103 q 592 233 521 197 q 631 381 603 269 q 551 339 594 354 q 488 331 521 325 q 429 360 454 336 q 401 458 392 403 q 432 539 406 501 q 496 615 458 576 q 551 682 533 653 q 576 801 581 738 q 535 915 572 865 q 446 983 500 963 q 335 992 392 1004 q 192 890 242 971 q 288 881 224 881 q 372 878 353 881 q 489 814 444 871 q 515 689 529 757 q 451 589 500 628 q 340 547 403 550 q 219 585 274 549 q 142 685 165 622 q 143 874 103 779 q 132 881 136 878 q 85 958 86 906 q 110 1017 89 992 q 163 1054 132 1043 q 181 1052 172 1058 q 190 1037 190 1046 q 182 1022 190 1028 q 146 999 161 1013 q 123 965 131 985 q 133 926 115 946 q 160 906 144 914 q 231 985 186 953 q 332 1029 276 1018 q 443 1022 388 1039 q 540 967 499 1006 q 603 860 585 921 q 610 736 621 799 q 553 622 597 672 q 456 508 499 569 q 449 393 419 453 q 581 393 486 338 q 644 436 614 413 q 733 692 678 568 q 810 822 765 761 q 908 919 847 882 q 967 918 938 933 q 1000 871 996 903 q 1002 853 1004 865 q 1001 838 1000 842 q 997 821 1001 833 q 990 804 992 808 q 983 788 989 800 q 976 773 978 776 q 967 758 974 769 q 960 743 961 747 q 678 415 853 550 m 375 840 q 280 846 349 844 q 176 858 211 847 q 163 740 151 801 q 219 635 175 679 q 331 585 265 586 q 444 632 397 585 q 478 749 494 682 q 440 810 468 786 q 375 840 413 835 m 547 93 q 578 185 563 133 q 429 97 499 149 q 344 0 376 58 q 332 -59 331 -24 q 363 -107 333 -94 q 426 -102 394 -122 q 481 -49 458 -82 q 547 93 521 19 m 776 697 q 693 475 725 590 q 810 592 756 529 q 900 715 860 650 q 938 781 919 747 q 965 854 960 814 q 950 884 965 876 q 915 881 935 892 q 860 826 883 858 q 776 697 811 767 z "},"Z":{"ha":806,"x_min":68,"x_max":807,"o":"m 767 488 q 781 499 771 497 q 799 494 792 501 q 803 476 807 488 q 583 233 756 339 q 546 211 567 224 q 479 17 547 101 q 339 -81 428 -58 q 263 -66 297 -92 q 229 3 229 -40 q 250 59 231 32 q 288 100 269 86 q 338 135 306 114 q 506 232 367 154 q 492 282 503 258 q 476 315 485 299 q 452 351 467 332 q 422 381 438 371 q 388 397 407 392 q 350 390 368 403 q 326 397 335 382 q 332 422 317 413 q 425 478 394 460 q 502 536 456 497 q 578 614 549 575 q 623 698 607 654 q 641 790 639 742 q 619 883 643 839 q 545 967 593 935 q 440 1008 497 1000 q 242 943 328 1018 q 194 886 214 918 q 313 878 253 874 q 457 843 390 883 q 519 719 518 796 q 481 613 518 660 q 385 551 443 565 q 265 557 324 535 q 171 631 207 579 q 126 743 133 681 q 142 864 118 806 q 142 867 142 865 q 143 869 143 868 q 101 908 118 883 q 94 1006 68 954 q 127 1041 106 1028 q 172 1053 149 1054 q 188 1042 183 1051 q 188 1023 193 1032 q 172 1015 183 1014 q 143 1007 157 1017 q 125 982 129 997 q 143 917 113 943 q 160 903 151 908 q 299 1022 210 985 q 529 1021 415 1074 q 625 943 586 993 q 675 831 664 893 q 660 692 682 760 q 592 574 639 625 q 414 428 514 486 q 481 372 450 413 q 529 289 511 332 q 540 251 536 271 q 683 357 625 301 q 767 488 742 413 m 340 840 q 178 854 258 836 q 161 754 157 806 q 205 648 167 694 q 300 585 243 601 q 406 599 356 572 q 476 678 456 626 q 457 792 496 740 q 340 840 410 843 m 458 50 q 508 192 504 113 q 433 150 442 154 q 297 58 360 113 q 268 -17 260 31 q 297 -42 278 -35 q 336 -43 317 -50 q 458 50 414 -19 z "},"[":{"ha":214,"x_min":33,"x_max":132,"o":"m 113 329 q 125 324 119 329 q 131 312 131 319 q 125 299 131 304 q 113 293 119 293 l 53 293 q 40 299 46 293 q 35 311 35 304 l 33 932 q 39 944 33 939 q 53 950 44 950 l 108 947 q 124 937 119 946 q 124 919 129 928 q 108 910 119 910 l 71 913 q 72 331 71 621 l 113 329 z "},"\\":{"ha":274,"x_min":31,"x_max":193,"o":"m 188 428 q 181 402 192 413 q 158 394 171 392 q 140 411 144 396 q 35 817 96 583 q 41 842 31 832 q 65 851 51 853 q 82 833 79 849 l 188 428 z "},"]":{"ha":208,"x_min":33,"x_max":124,"o":"m 106 950 q 118 944 113 949 q 124 932 124 939 l 122 311 q 117 299 122 304 q 104 294 111 294 l 51 293 q 38 299 43 294 q 33 311 33 304 q 38 324 33 318 q 51 329 43 329 l 86 329 q 88 913 88 621 l 54 911 q 39 919 43 910 q 39 937 35 928 q 54 946 43 946 l 106 950 z "},"_":{"ha":440,"x_min":33,"x_max":357,"o":"m 332 367 q 350 359 343 367 q 357 342 357 351 q 350 324 357 332 q 332 317 343 317 l 58 319 q 40 327 47 319 q 33 344 33 335 q 40 362 33 354 q 58 369 47 369 l 332 367 z "},"a":{"ha":351,"x_min":-76,"x_max":353,"o":"m 315 556 q 331 565 322 565 q 346 556 339 565 q 349 536 353 547 q 268 385 315 457 q 217 321 244 351 q 150 274 190 288 q 92 297 113 264 q 72 369 72 331 q 75 400 72 385 q 10 375 46 376 q -50 400 -25 375 q -67 469 -76 431 q 0 604 -51 544 q 52 650 19 635 q 121 660 85 665 q 171 615 157 650 q 225 672 196 646 q 244 676 233 679 q 256 663 254 672 q 251 646 258 654 q 140 494 179 582 q 136 483 140 493 q 133 474 136 478 l 132 469 q 114 404 119 438 q 121 321 101 361 q 183 340 139 294 q 186 343 185 342 q 242 414 218 375 q 315 556 285 482 m 97 485 q 118 535 106 510 q 132 558 125 546 q 132 576 125 568 q 129 614 146 597 q 82 624 108 632 q 8 556 33 603 q -18 506 -7 532 q -32 454 -29 481 q -12 419 -33 429 q 31 417 8 408 q 97 485 75 440 z "},"b":{"ha":319,"x_min":-72,"x_max":383,"o":"m 351 924 q 376 889 369 911 q 374 846 383 867 q 308 775 353 800 q 106 732 215 714 q 100 733 103 732 q 75 690 88 713 q 135 700 103 703 q 211 650 186 696 q 201 544 236 593 q 144 488 178 511 q 226 481 183 464 q 292 556 271 507 q 306 565 297 565 q 322 556 315 565 q 324 538 328 547 q 268 464 303 494 q 192 436 233 433 q 107 464 147 443 q 10 435 40 424 q -18 472 -15 444 q 3 513 -21 499 q 104 506 56 533 q 165 558 140 526 q 175 639 199 596 q 110 663 150 671 q 19 579 43 643 q -32 446 -8 517 q -47 434 -36 436 q -65 439 -57 432 q -68 457 -72 446 q -40 532 -56 492 q -39 540 -40 536 q -14 594 -26 571 q 46 713 14 656 q 179 888 96 813 q 231 920 204 907 q 292 938 258 933 q 351 924 326 943 m 18 474 q 61 481 21 461 q 49 483 56 483 q 41 483 46 483 q 31 483 36 483 q 22 481 25 483 q 18 474 18 478 m 304 817 q 338 886 357 858 q 269 894 321 910 q 139 792 188 864 q 122 767 136 786 q 304 817 224 756 z "},"c":{"ha":242,"x_min":-43,"x_max":249,"o":"m 233 563 q 240 538 249 553 q 103 424 196 451 q 17 421 61 408 q -23 451 -7 431 q -40 497 -39 472 q -25 574 -43 538 q 19 636 -10 610 q 128 679 64 681 q 160 667 146 681 q 175 635 174 654 q 163 599 175 615 q 131 576 150 582 q 113 580 119 572 q 108 598 106 588 q 121 611 110 608 q 136 629 133 615 q 138 638 138 633 q 136 639 138 639 q 135 642 135 640 q 131 642 131 642 l 128 642 q 114 642 121 643 q 90 636 101 640 q 84 635 88 636 q 79 633 81 633 l 79 633 q 63 624 69 629 q 22 583 38 607 q 3 547 11 565 q -7 509 -4 529 q 1 474 -10 489 q 36 451 13 458 q 108 460 74 443 q 207 556 175 490 q 233 563 217 572 z "},"d":{"ha":396,"x_min":-62,"x_max":575,"o":"m 524 925 q 564 882 554 914 q 554 824 574 850 q 440 739 511 763 q 293 725 368 713 q 288 726 290 725 q 224 606 260 679 q 151 385 168 501 q 148 353 147 374 q 165 333 149 333 q 222 378 186 335 q 249 413 231 389 q 278 447 268 436 q 324 508 294 468 q 361 558 353 547 q 390 561 374 575 q 393 540 403 553 q 353 487 385 531 q 301 419 321 443 q 232 340 278 392 q 161 297 207 303 q 110 379 107 297 q 119 453 111 417 q 97 442 108 446 q 32 435 65 426 q -24 469 -1 443 q -10 606 -62 524 q 40 658 7 640 q 111 674 74 676 q 161 637 146 668 q 161 575 176 606 q 144 566 154 565 q 128 575 133 567 q 128 593 124 583 q 122 629 139 614 q 76 635 101 646 q 7 558 25 611 q -1 514 -6 538 q 24 476 4 490 q 107 490 69 456 q 158 556 140 518 q 207 656 175 593 q 258 750 236 714 q 317 831 279 786 q 397 900 356 876 q 524 925 456 940 m 436 776 q 531 860 524 814 q 523 883 532 875 q 500 892 514 892 q 473 890 486 892 q 449 885 460 888 q 356 818 394 863 q 310 760 331 790 q 436 776 375 751 z "},"e":{"ha":211,"x_min":-39,"x_max":215,"o":"m 197 565 q 210 542 215 560 q 156 463 193 496 q 71 415 119 429 q -11 439 22 401 q -37 519 -39 475 q 31 661 -37 607 q 107 689 64 690 q 144 667 131 686 q 150 624 157 647 q 86 560 132 579 q 1 543 47 540 q 1 499 -1 521 q 31 453 4 468 q 90 461 63 444 q 175 551 149 492 q 197 565 181 569 m 31 608 q 14 581 21 596 q 71 593 44 581 q 114 643 119 618 q 75 646 110 664 q 31 608 49 632 z "},"f":{"ha":156,"x_min":-129,"x_max":385,"o":"m 374 885 q 353 811 385 846 q 276 756 321 776 q 103 729 194 715 q 97 731 100 729 q 74 689 86 711 q -3 532 49 642 q -71 379 -40 457 q -61 247 -110 258 q -2 275 -25 239 q 18 346 21 311 q 10 381 18 361 q -3 416 3 401 q -9 449 -10 431 q 4 485 -8 468 q 61 524 18 506 q 118 560 104 542 q 135 565 125 568 q 147 552 144 561 q 144 533 150 543 q 63 485 108 500 q 28 449 31 469 q 44 394 28 419 q 51 302 64 350 q -3 225 38 254 q -76 215 -36 199 q -122 272 -115 231 q -83 446 -129 364 q 6 638 -57 507 q 110 815 49 732 q 247 925 163 890 q 296 934 271 933 q 344 923 321 935 q 374 885 367 911 m 281 800 q 339 864 335 835 q 325 891 340 883 q 290 897 310 899 q 118 764 200 888 q 281 800 206 754 z "},"g":{"ha":385,"x_min":-89,"x_max":386,"o":"m 351 561 q 369 565 360 568 q 382 552 379 561 q 378 535 385 543 q 185 382 293 443 q 164 371 176 378 q 146 326 149 332 q 86 189 117 257 q 78 174 85 188 q 70 156 72 160 q 63 140 68 151 q 52 124 57 129 q 40 110 47 118 q 26 98 33 103 q 10 90 18 93 q -37 92 -14 82 q -69 126 -61 103 q -44 235 -87 188 q 136 397 28 335 q 164 471 151 439 q 146 456 156 463 q 77 430 115 432 q 7 449 39 428 q -33 515 -25 475 q -19 589 -40 554 q 40 645 3 625 q 119 665 76 665 q 206 654 164 669 q 218 646 213 650 q 224 643 221 644 q 226 653 225 651 q 240 666 229 664 q 258 661 250 668 q 263 643 265 654 q 185 425 226 533 q 258 474 224 446 q 351 561 299 508 m 38 172 q 111 338 76 254 q 10 244 56 297 q 3 237 10 243 q -4 228 -3 231 q -11 219 -6 226 q -19 210 -17 213 q -25 200 -21 207 q -31 189 -29 193 q -35 178 -32 185 q -38 167 -37 172 q -39 157 -39 163 q -37 146 -39 151 q -22 126 -35 132 q 4 128 -8 119 q 38 172 28 144 m 149 508 q 193 619 185 558 q 161 628 178 626 q 83 622 121 632 q 33 597 54 617 q 4 549 13 576 q 12 499 -3 522 q 53 468 26 475 q 106 475 81 464 q 149 508 132 486 z "},"h":{"ha":318,"x_min":-72,"x_max":381,"o":"m 347 928 q 373 893 367 915 q 371 850 379 871 q 306 778 350 804 q 101 736 213 718 q 97 738 100 736 q 24 603 56 672 q 27 606 25 603 q 31 610 29 608 q 89 665 57 640 q 160 699 118 694 q 194 688 179 699 q 214 660 208 678 q 190 592 221 619 q 132 517 158 556 q 93 428 107 474 q 86 406 89 418 q 81 375 83 393 q 83 346 79 357 q 100 335 88 335 q 112 338 106 335 q 122 343 118 340 q 133 352 126 346 q 142 362 139 358 q 150 372 144 365 q 157 381 156 379 q 186 416 167 393 q 213 449 206 439 q 260 509 231 469 q 297 560 289 549 q 326 563 310 575 q 329 540 338 553 q 288 486 319 529 q 238 421 256 443 q 168 342 214 393 q 97 299 142 303 q 57 313 71 299 q 42 351 43 328 q 44 396 40 375 q 54 438 47 417 q 160 610 89 533 q 163 613 160 610 q 167 618 167 617 q 171 623 168 619 q 175 628 174 626 q 178 634 176 631 q 181 640 181 638 q 181 645 181 642 q 178 651 181 649 q 174 656 176 654 q 111 636 156 672 q 54 582 81 611 q -28 443 0 519 q -47 431 -33 432 q -67 442 -60 431 q -72 453 -71 446 q -70 468 -72 460 q -66 482 -68 476 q -60 497 -64 488 q -56 508 -56 506 q -26 581 -42 544 q 42 715 4 650 q 175 890 92 817 q 227 923 200 910 q 288 941 254 936 q 347 928 322 946 m 300 821 q 335 890 353 863 q 265 899 318 914 q 136 794 183 868 q 118 771 132 790 q 300 821 219 758 z "},"i":{"ha":196,"x_min":-69,"x_max":199,"o":"m 157 553 q 174 563 164 563 q 192 553 185 563 q 192 532 199 543 q 117 433 157 468 q 15 389 67 392 q -38 404 -14 388 q -67 450 -62 421 q -67 466 -69 454 q -66 482 -65 478 q -62 497 -67 486 q -58 513 -58 508 q -51 528 -57 517 q -44 543 -46 539 q -37 558 -43 547 q -31 572 -32 568 q 36 690 -1 632 q 56 699 43 700 q 73 690 68 699 q 72 669 78 681 q -1 540 29 607 q -7 528 -1 539 q -15 511 -12 517 q -22 494 -17 506 q -27 476 -26 483 q -27 460 -28 468 q -22 445 -26 451 q -11 435 -18 439 q 86 460 29 414 q 157 553 125 492 m 79 747 q 69 765 72 756 l 68 776 q 71 792 68 785 q 79 804 74 799 q 93 813 85 811 q 108 817 100 817 l 115 817 q 136 811 126 817 q 140 808 138 810 q 144 804 143 806 q 154 786 151 797 l 156 776 q 153 761 157 768 q 144 747 150 753 q 132 739 139 742 q 115 736 124 735 l 108 736 q 88 742 97 736 q 83 744 86 742 q 79 747 81 746 z "},"j":{"ha":131,"x_min":-346,"x_max":136,"o":"m 26 742 q 17 757 19 749 l 15 767 q 27 793 17 782 q 53 804 38 804 l 60 804 q 78 799 69 804 l 86 793 q 96 778 93 786 l 97 767 q 74 733 96 743 q 60 731 67 731 l 53 731 q 35 735 43 731 l 26 742 m 97 560 q 123 560 110 572 q 124 533 136 547 q 32 458 81 492 q -53 413 -8 432 q -71 403 -57 410 q -78 388 -72 400 q -89 369 -85 376 q -161 249 -122 307 q -250 144 -197 189 q -300 132 -272 125 q -339 165 -328 139 q -335 222 -344 194 q -303 267 -325 249 q -99 431 -215 367 l -92 443 q -35 554 -47 525 q -8 619 -25 576 q 15 676 8 661 q 42 688 22 694 q 51 667 57 682 q 24 600 47 657 q -12 514 1 543 q -40 460 -24 490 q -4 479 -21 468 q 97 560 51 514 m -217 235 q -133 365 -171 297 q -244 275 -193 325 q -260 260 -247 272 q -278 242 -272 249 q -292 224 -283 236 q -304 203 -301 213 q -306 183 -307 193 q -217 235 -294 133 z "},"k":{"ha":267,"x_min":-68,"x_max":389,"o":"m 356 926 q 382 892 375 914 q 379 849 389 869 q 314 778 358 803 q 111 735 221 717 q 106 736 108 735 q 61 660 82 699 q 78 668 69 664 q 151 664 115 688 q 167 633 165 651 q 160 597 169 614 q 96 561 136 564 q 89 560 94 561 q 82 558 83 558 q 76 557 81 558 q 70 555 72 556 q 65 552 68 554 q 61 547 63 550 q 58 540 60 544 q 57 479 53 510 q 56 464 57 472 q 57 447 56 456 q 60 433 58 439 q 69 422 63 426 q 83 415 75 417 q 171 460 138 418 q 242 556 214 503 q 258 565 249 565 q 274 556 268 565 q 274 538 279 547 q 219 460 251 496 q 76 385 136 371 q 24 442 33 399 q 22 544 13 493 q 40 579 25 565 q 76 594 56 593 q 86 597 78 596 q 97 598 94 597 q 108 601 100 599 q 119 606 115 604 q 126 613 122 608 q 131 622 129 617 q 117 638 133 638 q 92 633 100 639 q 17 564 42 611 q -28 449 -8 506 q -41 437 -31 439 q -59 442 -51 435 q -62 458 -67 449 q 50 715 -18 592 q 185 889 101 815 q 237 922 210 910 q 297 940 264 935 q 356 926 331 944 m 310 819 q 343 889 363 861 q 275 897 326 913 q 144 793 193 867 q 128 769 140 788 q 310 819 229 757 z "},"l":{"ha":260,"x_min":-93,"x_max":378,"o":"m 338 925 q 370 892 363 914 q 371 849 378 871 q 347 808 364 828 q 107 726 274 710 q 99 731 103 726 q 57 657 81 700 q -15 492 14 578 q -40 406 -31 449 q -49 331 -54 369 q -28 317 -43 318 q 7 326 -12 317 q 40 344 26 336 q 64 360 54 353 q 225 557 161 444 q 242 565 231 567 q 258 556 253 564 q 257 538 263 549 q 209 464 231 494 q 156 396 188 433 q 90 332 125 358 q 15 292 54 306 q -56 286 -19 274 q -87 350 -93 307 q -67 451 -83 401 q -33 550 -53 501 q 63 740 6 650 q 181 885 107 824 q 338 925 269 954 m 324 838 q 328 889 349 875 q 267 890 297 903 q 143 796 190 863 q 119 763 131 779 q 324 838 267 751 z "},"m":{"ha":515,"x_min":-65,"x_max":519,"o":"m 481 557 q 505 562 490 571 q 513 538 519 553 q 381 344 458 450 q 315 258 351 299 q 282 239 303 243 q 243 246 261 235 q 224 311 211 272 q 258 404 238 360 l 296 507 q 317 561 304 529 q 329 601 326 581 q 321 617 331 615 q 301 611 311 619 q 272 571 283 593 l 215 481 q 171 408 175 417 q 143 361 158 383 q 100 349 122 335 q 89 410 78 364 q 100 447 92 422 q 111 486 108 472 q 135 583 133 582 q 135 605 139 594 q 117 612 131 615 q 86 583 104 608 q 69 556 78 571 q 49 524 60 542 q 31 497 38 507 q 18 473 28 492 q 1 443 8 454 q -19 422 -6 432 q -46 414 -32 413 q -58 420 -53 415 q -64 433 -64 425 q -40 540 -57 488 q -10 665 -35 558 q 3 677 -7 675 q 22 672 14 679 q 26 654 29 665 q -1 538 4 560 q -15 492 -3 535 q -12 497 -14 496 q 6 526 -4 511 q 28 560 15 542 q 46 589 40 579 q 107 647 65 631 q 142 646 125 653 q 169 622 160 639 q 164 544 179 582 q 140 451 143 458 q 135 433 139 446 q 129 414 131 421 q 125 403 128 413 q 133 418 132 415 q 160 466 146 442 q 197 523 175 490 q 226 569 218 556 q 237 585 226 569 q 250 606 247 601 q 263 624 253 611 q 281 642 274 638 q 298 652 288 646 q 319 657 308 658 q 340 650 329 656 q 363 628 357 642 q 366 596 369 615 q 358 563 363 576 q 344 528 354 550 q 333 501 335 506 q 309 441 325 481 q 281 369 293 401 q 261 308 269 338 q 260 284 257 297 q 278 276 264 271 q 308 308 286 281 q 369 392 339 350 q 481 557 433 479 z "},"n":{"ha":368,"x_min":-46,"x_max":374,"o":"m 332 557 q 358 563 342 572 q 364 538 374 554 q 233 344 311 450 q 168 260 204 299 q 134 239 154 243 q 96 246 114 235 q 76 311 64 272 q 118 436 93 375 q 178 564 144 501 q 199 604 190 583 q 205 617 200 606 q 210 631 210 628 q 207 644 210 635 q 176 651 194 658 q 96 601 131 636 q -7 451 26 539 q -10 446 -8 449 q -31 437 -17 433 q -46 454 -44 440 q 14 682 -46 575 q 30 690 21 690 q 45 681 39 690 q 46 663 51 672 q 3 550 17 610 q 72 631 32 594 q 232 683 174 719 q 235 589 272 657 q 171 461 199 528 q 114 308 125 349 q 113 284 108 297 q 131 276 117 271 q 160 308 139 281 q 222 392 192 350 q 332 557 286 479 z "},"o":{"ha":299,"x_min":-39,"x_max":300,"o":"m 288 558 q 297 547 294 554 q 294 532 299 539 q 229 500 278 508 q 154 506 181 492 q 103 454 131 475 q 43 426 76 433 q -17 447 10 419 q -19 451 -18 450 q -38 508 -39 475 q -25 570 -37 542 q 7 624 -12 599 q 69 675 33 656 q 158 690 111 703 q 186 672 175 685 q 178 546 213 638 q 175 539 176 542 q 189 532 182 535 q 215 531 201 529 q 261 550 242 531 q 263 551 261 550 q 288 558 272 567 m 90 493 q 125 529 110 510 q 110 604 97 563 q 132 618 114 622 q 146 594 150 613 q 143 589 144 590 q 143 586 143 588 q 143 578 143 582 l 143 576 q 143 571 143 572 q 146 564 144 568 l 146 565 q 156 590 151 576 q 163 621 160 604 q 158 648 165 638 q 132 657 150 658 q 71 633 97 654 q 1 531 15 594 q 10 474 -8 500 q 47 465 26 457 q 90 493 72 475 z "},"p":{"ha":371,"x_min":-115,"x_max":371,"o":"m 343 563 q 361 563 353 568 q 370 547 369 557 q 363 531 371 538 q 189 469 285 474 q 168 468 179 468 q 154 451 158 456 q 97 404 128 425 q 42 383 72 385 q 16 397 26 386 q 6 424 6 408 q 35 472 7 457 q 151 503 90 500 q 199 586 182 542 q 194 649 215 633 q 99 622 158 676 q -15 433 15 543 q -21 425 -17 429 q -75 236 -43 329 q -88 224 -78 226 q -106 229 -99 222 q -110 246 -114 236 q -21 658 -42 447 q -10 674 -19 669 q 8 674 0 679 q 17 658 17 669 q 6 567 13 615 q 18 586 15 583 q 136 690 63 656 q 192 691 164 700 q 235 658 219 682 q 229 565 254 610 q 199 507 217 535 q 221 508 210 507 q 343 563 289 522 m 60 425 q 111 460 88 439 q 65 446 88 456 q 43 431 46 436 q 48 421 44 421 q 60 425 51 421 z "},"q":{"ha":313,"x_min":-65,"x_max":318,"o":"m 278 563 q 307 558 293 574 q 304 536 318 546 q 251 497 289 524 q 193 456 213 471 q 165 392 163 431 q 161 304 165 342 q 53 81 143 133 q -31 74 13 53 q -54 171 -65 96 q 46 418 -28 304 q -21 421 11 401 q -49 479 -50 443 q 6 618 -46 558 q 67 671 33 653 q 136 672 101 689 q 174 617 169 654 q 174 607 174 611 q 221 660 197 635 q 238 665 228 668 q 251 652 249 661 q 247 633 254 643 q 76 399 147 526 q -18 164 7 290 q -19 121 -25 143 q 11 103 -12 99 q 88 172 65 121 q 124 297 117 231 q 128 368 126 326 q 129 422 126 396 q 190 499 144 474 q 278 563 242 533 m -10 465 q 6 448 -4 450 q 30 453 17 446 q 53 467 43 460 q 71 483 63 475 q 128 550 101 514 q 118 558 121 553 q 124 583 110 574 q 136 604 135 592 q 131 628 138 617 q 89 640 115 651 q 13 563 38 614 q -7 511 0 538 q -10 465 -15 488 z "},"r":{"ha":281,"x_min":-69,"x_max":281,"o":"m 243 558 q 260 567 250 568 q 276 558 271 565 q 275 539 281 550 q 144 344 222 450 q 96 281 111 300 q 46 226 74 250 q -33 207 13 194 q -67 250 -65 218 q -55 309 -68 282 q -24 361 -42 336 q 25 458 15 403 q 19 491 26 476 q -6 524 11 506 q -26 550 -22 543 q -50 604 -44 575 q -44 660 -56 633 q -3 699 -32 688 q 14 695 7 703 q 19 677 21 688 q 7 663 17 667 q -13 640 -10 657 q -12 606 -17 622 q 1 575 -7 589 q 23 547 8 564 q 47 515 38 531 q 61 483 57 500 q 56 419 68 450 q 16 353 43 389 q -19 300 -11 317 q -29 251 -35 278 q 18 254 -19 228 q 78 319 53 282 q 133 393 113 364 q 243 558 197 482 z "},"s":{"ha":228,"x_min":-74,"x_max":231,"o":"m 193 556 q 208 565 199 565 q 223 556 217 565 q 225 538 229 547 q 64 364 169 426 q 56 315 63 339 q -18 239 35 238 q -59 263 -44 242 q -65 310 -74 285 q -59 325 -62 318 q -49 338 -56 332 q -38 349 -43 344 q -24 359 -33 354 q -10 367 -14 364 q 6 375 -6 369 q 19 382 17 381 q 24 383 21 382 q 28 386 26 385 q 19 435 26 410 q 2 483 14 454 q -19 535 -10 513 q -36 585 -29 558 q -42 638 -43 611 q -28 689 -40 664 q 7 731 -17 715 q 58 747 31 746 q 107 733 85 749 q 138 692 129 718 q 138 638 146 663 q 110 593 131 613 q 69 560 89 574 q 19 533 49 547 q 54 451 39 493 q 63 407 60 429 q 193 556 147 464 m 7 568 q 99 640 67 586 q 92 700 115 672 q 32 703 63 722 q -1 651 6 688 q 1 586 -8 614 q 7 568 3 579 m 6 289 q 26 343 22 314 q -26 306 -7 333 q -25 279 -35 292 q 6 289 -12 267 z "},"t":{"ha":211,"x_min":-97,"x_max":215,"o":"m 175 560 q 203 563 188 576 q 206 542 215 553 q 165 487 197 531 q 114 421 133 443 q 44 342 92 393 q -26 299 19 304 q -53 305 -42 299 q -68 324 -64 311 q -74 348 -72 338 q -74 379 -76 358 q -71 409 -72 400 q -65 439 -69 418 q -60 461 -61 460 q 33 692 -35 585 q -87 733 -29 704 q -96 748 -96 739 q -87 763 -96 757 q -68 765 -78 769 q 56 726 -10 735 q 172 867 107 801 q 197 867 185 879 q 197 840 210 854 q 100 724 144 786 q 138 737 121 724 q 158 771 154 750 q 182 783 164 788 q 194 761 199 778 q 153 704 188 724 q 79 686 119 685 q 77 687 79 686 q 75 688 75 688 q 46 639 58 661 q -36 385 -19 521 q -38 354 -39 374 q -22 335 -37 335 q -10 338 -17 335 q 0 343 -4 340 q 10 352 4 346 q 18 362 15 358 q 26 372 21 365 q 33 381 32 379 q 63 416 43 393 q 90 449 82 439 q 137 509 107 469 q 175 560 167 549 z "},"u":{"ha":367,"x_min":-62,"x_max":372,"o":"m 331 560 q 360 563 343 575 q 363 542 371 553 q 322 487 354 531 q 271 421 289 443 q 201 342 249 393 q 131 299 175 304 q 103 306 114 299 q 87 325 92 313 q 81 351 82 338 q 81 384 79 365 q 85 416 83 403 q 92 447 88 429 q 96 471 96 464 q 56 429 79 446 q 0 416 31 410 q -46 449 -31 422 q -31 565 -61 510 q 36 671 -6 624 q 53 676 43 679 q 65 664 63 674 q 63 644 68 654 q 1 544 22 600 q -14 496 -8 521 q -8 458 -19 476 q 26 456 8 446 q 60 483 47 467 q 131 592 100 535 q 133 596 132 593 q 150 626 139 606 q 167 657 161 647 q 183 667 174 667 q 199 658 193 667 q 199 639 204 649 l 182 608 q 144 521 158 567 q 121 385 128 454 q 117 354 117 374 q 135 335 118 335 q 146 338 140 335 q 156 343 151 340 q 167 352 161 346 q 175 362 172 358 q 183 372 178 365 q 190 381 189 379 q 219 416 200 393 q 247 449 239 439 q 293 509 264 469 q 331 560 322 549 z "},"v":{"ha":232,"x_min":-60,"x_max":239,"o":"m 222 563 q 229 538 238 553 q 170 503 207 507 q 106 525 133 499 q -35 439 44 469 q -52 444 -44 435 q -57 463 -60 453 q -1 672 -28 572 q 21 685 3 690 q 33 663 39 681 q -11 489 8 567 q 85 556 42 515 q 82 610 74 582 q 104 622 88 628 q 118 600 122 618 q 115 594 117 597 l 115 592 l 115 586 q 174 668 149 624 q 189 678 179 678 q 204 669 199 678 q 206 650 210 660 q 133 550 176 594 l 135 550 l 135 549 q 136 548 135 549 q 139 546 138 547 q 143 544 142 544 l 144 543 q 154 540 150 542 l 157 540 q 161 540 158 540 q 165 540 163 540 q 167 540 167 540 l 168 540 l 169 540 q 179 543 174 542 l 181 544 q 186 547 183 544 q 188 548 186 547 q 189 549 189 549 q 190 549 189 549 q 192 550 192 550 q 196 554 193 553 l 197 556 l 197 557 q 222 563 207 572 z "},"w":{"ha":389,"x_min":-51,"x_max":394,"o":"m 378 563 q 385 538 394 554 q 322 503 361 506 q 265 522 290 501 q 222 474 246 496 q 126 443 165 422 q 100 506 93 465 q 57 468 79 485 q -39 457 -8 418 q -49 492 -50 469 q -46 524 -49 514 q -33 561 -43 535 q 18 668 -14 617 q 35 676 24 676 q 51 667 46 675 q 50 649 56 658 q 1 547 19 601 q -12 501 -7 525 q -7 478 -17 481 q 28 493 3 474 q 61 519 46 506 q 140 614 107 561 q 142 618 140 615 q 143 622 143 621 q 147 628 144 625 q 167 665 158 646 q 192 672 176 682 q 199 647 207 663 q 172 594 188 621 q 138 514 149 557 q 157 474 131 469 q 190 494 176 479 q 218 522 206 507 q 243 551 232 536 q 235 576 238 564 q 253 638 233 610 q 271 664 260 649 q 322 681 297 699 q 329 656 332 669 q 288 553 315 600 q 314 539 299 542 q 335 543 325 539 q 346 549 342 546 q 349 553 347 550 q 353 556 351 556 q 378 563 363 572 z "},"x":{"ha":338,"x_min":-47,"x_max":340,"o":"m 303 556 q 317 565 308 565 q 333 556 326 565 q 335 538 339 547 q 213 429 297 456 q 150 428 182 418 q 100 465 118 438 q 93 483 96 474 q 25 444 60 461 q 6 447 15 440 q -3 462 -3 453 q 7 476 -3 471 q 89 525 50 497 q 108 596 94 561 q 100 658 124 646 q 71 657 86 665 q 46 635 56 649 q 22 583 39 624 q -14 525 6 542 q -33 521 -22 517 q -45 534 -43 525 q -39 551 -47 543 q -4 611 -21 567 q 28 672 13 656 q 85 698 50 699 q 140 669 119 697 q 149 650 146 660 q 152 633 151 640 q 150 615 153 626 q 146 597 147 603 q 140 578 144 592 q 133 561 135 564 q 135 563 133 561 q 139 565 138 565 q 190 693 219 640 q 191 713 185 704 q 206 722 197 721 q 222 713 215 722 q 178 551 263 636 q 125 506 153 526 q 147 468 126 482 q 192 463 168 454 q 258 496 229 471 q 303 556 288 521 z "},"y":{"ha":368,"x_min":-131,"x_max":369,"o":"m 336 560 q 354 565 344 568 q 367 551 364 561 q 363 532 369 542 q 158 376 276 433 q 125 360 149 371 q 64 242 99 299 q -24 132 32 178 q -78 122 -49 114 q -119 158 -108 131 q -124 215 -131 186 q -99 265 -118 244 q 21 347 -46 317 q 97 386 49 363 q 135 496 119 440 q 135 498 135 496 q 136 500 135 500 q 26 453 92 450 q -25 488 -6 461 q -42 549 -44 515 q 26 686 -35 632 q 44 691 35 694 q 57 678 54 688 q 53 660 60 669 q -4 549 3 617 q 14 500 -6 518 q 63 494 33 482 q 153 571 117 522 q 233 694 165 650 q 256 692 246 701 q 258 669 265 682 q 186 554 231 607 q 183 540 185 547 q 146 413 168 475 q 336 560 256 467 m 21 243 q 72 333 49 286 q 67 330 71 332 q 60 326 63 328 q -54 256 -1 297 q -78 228 -68 244 q -92 192 -89 211 q -75 160 -94 172 q -61 156 -69 154 q -47 160 -53 158 q -33 171 -40 163 q -19 185 -25 179 q -7 201 -14 190 q 4 217 0 211 q 14 232 8 224 q 21 243 19 240 z "},"z":{"ha":401,"x_min":-75,"x_max":406,"o":"m 367 557 q 385 565 374 565 q 400 556 396 564 q 399 538 404 547 q 200 383 317 439 q 200 382 200 383 q 89 199 167 276 q -8 138 54 146 q -56 160 -37 138 q -68 211 -74 182 q -7 292 -50 260 q 85 360 36 329 q 167 407 113 378 q 164 428 167 418 q 144 450 157 443 q 115 454 131 457 l 96 432 q 74 429 86 422 q 65 450 61 436 q 88 479 72 468 q 182 592 135 536 q 213 644 222 642 q 203 643 208 646 q 193 635 199 640 q 183 624 188 629 q 174 614 179 619 q 168 608 169 608 q 46 543 117 557 q -12 551 14 538 q -42 597 -39 565 q -34 614 -43 610 q -15 613 -25 618 q -4 597 -6 608 q 67 589 -1 564 q 138 629 107 601 q 149 642 140 632 q 165 657 158 651 q 181 669 171 663 q 198 680 190 676 q 215 683 206 683 q 233 678 225 682 q 214 572 279 650 l 144 490 q 175 475 161 486 q 201 426 197 456 q 367 557 299 474 m 57 219 q 153 357 115 281 q -6 242 65 311 q -28 185 -42 203 q 57 219 -4 151 z "},"{":{"ha":292,"x_min":28,"x_max":211,"o":"m 176 339 q 195 342 185 346 q 208 330 206 339 q 203 313 210 321 q 161 301 185 297 q 124 324 138 304 q 103 431 99 374 q 88 540 103 486 q 71 574 81 558 q 61 586 67 581 q 57 592 57 593 q 36 603 43 588 q 43 625 29 619 q 108 694 88 649 q 117 788 128 739 q 113 810 117 793 q 107 836 108 828 q 105 858 106 844 q 107 884 104 872 q 115 906 110 896 q 147 938 125 928 q 193 942 169 949 q 205 928 203 939 q 200 910 207 918 q 182 906 193 903 q 156 903 165 911 q 144 876 146 894 q 144 844 143 858 q 149 817 146 829 q 154 726 161 772 q 90 611 144 657 q 126 542 117 581 q 140 426 139 485 q 146 365 140 396 q 158 342 149 354 q 176 339 167 331 z "},"}":{"ha":292,"x_min":31,"x_max":214,"o":"m 199 625 q 207 603 214 619 q 185 592 200 588 q 179 585 183 589 q 169 571 174 578 q 153 539 160 556 q 140 431 139 485 q 117 321 144 372 q 80 300 103 303 q 40 313 57 297 q 35 329 32 319 q 47 342 38 339 q 67 339 57 344 q 85 342 76 329 q 97 368 94 356 q 103 431 101 399 q 115 542 104 486 q 151 611 126 579 q 88 726 97 656 q 93 817 82 772 q 97 844 96 829 q 97 876 99 858 q 87 902 96 893 q 60 906 78 911 q 42 910 49 903 q 37 928 35 918 q 50 942 39 939 q 96 938 74 949 q 129 904 118 926 q 125 788 146 846 q 135 694 114 739 q 199 625 156 649 z "},"~":{"ha":401,"x_min":29,"x_max":322,"o":"m 279 729 q 312 685 303 713 q 314 631 321 658 q 290 588 308 606 q 246 569 271 571 q 185 599 208 569 q 151 661 164 626 q 111 710 142 693 q 88 706 99 714 q 74 683 78 697 q 79 629 67 656 q 118 592 92 603 q 125 567 135 582 q 100 560 115 551 q 47 610 65 576 q 35 681 29 643 q 67 736 39 715 q 132 740 97 758 q 179 690 164 724 q 210 626 190 657 q 244 606 219 604 q 275 631 268 607 q 278 668 282 649 q 260 697 275 686 q 252 714 251 703 q 261 730 253 725 q 279 729 269 735 z "},"":{"ha":475,"x_min":0,"x_max":0,"o":""},"":{"ha":382,"x_min":22,"x_max":299,"o":"m 218 804 q 273 764 251 792 q 296 700 294 736 q 288 683 297 688 q 267 683 278 678 q 256 700 257 688 q 210 764 251 746 l 157 499 q 239 533 207 493 q 258 539 247 543 q 272 525 269 535 q 268 504 275 515 q 149 460 221 449 q 140 415 146 444 q 131 369 133 385 q 119 356 129 358 q 101 361 108 354 q 94 379 93 368 q 114 471 103 419 q 36 588 47 511 q 75 742 22 672 q 181 808 114 797 l 199 896 q 211 909 201 907 q 228 904 221 911 q 235 886 236 897 l 218 804 m 122 514 q 172 765 154 671 q 93 693 117 746 q 81 576 63 638 q 122 514 92 539 z "},"":{"ha":369,"x_min":26,"x_max":289,"o":"m 226 801 q 272 758 256 786 q 285 697 288 729 q 274 679 285 685 q 253 679 263 674 q 244 697 243 685 q 233 744 249 722 q 192 769 217 765 q 140 755 163 772 q 114 708 118 738 q 115 647 110 678 q 138 644 126 646 q 147 646 143 644 l 149 646 l 151 646 q 154 647 153 646 l 157 647 q 163 651 160 650 q 191 644 181 661 q 183 615 201 626 q 122 606 154 599 q 124 583 124 592 q 115 522 125 553 q 151 515 133 522 q 193 486 172 501 q 228 479 215 472 q 256 472 246 489 q 249 444 265 454 q 194 440 222 429 q 150 467 171 450 q 113 482 135 481 q 83 465 94 481 q 64 461 75 457 q 43 473 50 461 q 47 496 36 485 q 82 606 96 540 l 81 606 q 76 603 78 604 l 75 603 l 74 601 l 72 600 q 72 599 72 600 q 44 592 61 582 q 36 619 26 601 q 76 646 51 642 q 100 774 58 715 q 158 808 124 800 q 226 801 193 815 z "},"":{"ha":315,"x_min":32,"x_max":233,"o":"m 231 799 l 156 600 q 154 588 154 594 l 176 586 q 191 580 185 586 q 197 565 197 574 q 191 551 197 557 q 176 546 185 546 l 151 547 q 150 525 150 533 l 176 524 q 191 518 185 524 q 197 504 197 513 q 191 490 197 496 q 176 483 185 483 l 151 485 q 153 464 151 468 q 147 449 153 454 q 132 443 140 443 q 117 449 124 443 q 111 464 111 456 q 111 486 111 468 l 93 488 q 78 493 85 488 q 72 507 72 499 q 78 522 72 515 q 93 528 85 528 l 110 528 q 111 549 110 539 l 93 549 q 78 556 85 550 q 72 569 72 561 q 78 584 72 578 q 93 590 85 590 l 114 589 q 114 597 114 594 l 35 803 q 36 818 32 811 q 49 828 40 825 q 74 814 68 833 q 102 740 82 793 q 133 658 122 688 l 190 810 q 215 824 196 829 q 228 815 224 822 q 231 799 232 807 z "},"":{"ha":625,"x_min":28,"x_max":554,"o":"m 536 693 q 492 505 553 590 q 328 403 431 419 q 286 400 307 400 q 112 469 185 400 q 34 640 39 539 q 94 817 29 740 q 260 904 160 893 q 440 854 360 915 q 536 693 521 793 m 465 524 q 506 636 501 575 q 482 752 510 697 q 401 840 454 807 q 288 872 349 872 q 251 869 269 872 q 127 803 178 857 q 69 674 76 749 q 100 537 61 600 q 209 447 139 474 q 350 442 279 421 q 465 524 421 464 m 410 665 q 417 640 425 656 q 286 529 378 554 q 215 538 249 519 q 175 600 179 558 q 190 676 172 640 q 235 739 206 713 q 343 782 279 783 q 376 770 363 783 q 390 738 390 757 q 378 701 390 717 q 346 679 365 685 q 328 683 335 675 q 323 701 321 690 q 336 714 325 711 q 351 732 349 718 q 353 740 353 736 q 353 742 353 742 l 350 743 q 346 744 346 744 l 344 744 l 343 744 q 329 744 336 746 q 306 739 317 743 q 299 738 303 739 q 296 736 296 736 l 294 736 l 294 735 q 278 726 285 731 q 238 686 253 710 q 218 586 196 622 q 258 564 231 564 q 306 576 286 564 q 385 658 360 604 q 410 665 393 675 z "},"":{"ha":0,"x_min":0,"x_max":0,"o":""},"":{"ha":625,"x_min":28,"x_max":554,"o":"m 536 693 q 492 505 553 590 q 328 403 431 419 q 286 400 307 400 q 113 469 186 400 q 34 640 39 539 q 94 817 29 740 q 260 904 160 893 q 440 854 360 915 q 536 693 521 793 m 465 524 q 503 688 518 597 q 429 819 490 767 q 288 872 368 872 q 251 869 269 872 q 127 803 178 857 q 69 674 76 749 q 100 537 61 600 q 209 447 139 474 q 350 442 279 421 q 465 524 421 464 m 321 626 q 294 613 307 621 q 292 608 292 608 q 297 603 292 607 q 353 561 299 601 q 358 536 368 551 q 333 529 350 519 q 278 572 306 550 q 258 626 243 597 q 269 639 263 633 q 287 650 275 644 q 301 657 299 656 q 329 688 321 668 q 328 724 338 706 q 300 742 319 743 q 246 676 260 739 q 250 563 233 619 q 247 544 254 551 q 228 540 239 538 q 215 553 218 542 q 213 700 192 626 q 240 750 219 729 q 290 778 261 771 q 341 765 318 782 q 368 719 364 747 q 359 666 372 692 q 321 626 346 640 z "},"":{"ha":285,"x_min":29,"x_max":210,"o":"m 194 524 q 194 494 208 508 q 165 494 179 479 q 110 561 138 524 q 72 494 93 533 q 55 485 65 485 q 38 494 44 485 q 36 515 31 504 q 83 599 61 560 q 38 674 58 635 q 38 694 32 685 q 55 705 44 704 q 72 694 65 706 q 106 639 86 669 l 157 733 q 176 743 165 743 q 192 733 186 743 q 193 713 199 724 l 131 601 q 194 524 160 560 z "},"":{"ha":303,"x_min":33,"x_max":218,"o":"m 197 622 q 212 616 206 622 q 218 601 218 610 q 212 587 218 593 q 197 581 206 581 l 54 583 q 40 590 46 583 q 33 604 33 596 q 40 619 33 613 q 54 625 46 625 l 197 622 m 113 668 q 107 678 108 672 l 106 683 q 108 690 106 688 q 118 701 111 699 q 126 704 122 704 l 128 704 q 138 700 133 703 l 142 697 q 147 689 146 693 l 147 683 q 146 675 147 679 q 142 668 144 671 q 135 664 139 665 q 128 663 132 663 l 126 663 q 117 665 121 663 l 113 668 m 142 551 q 147 542 146 547 l 149 536 q 146 529 149 532 q 142 522 144 525 q 128 517 136 517 l 126 517 q 117 519 121 517 l 113 522 q 107 532 108 526 l 107 538 q 108 544 106 542 q 119 556 111 553 q 126 557 122 557 l 128 557 q 138 554 133 557 l 142 551 z "},"":{"ha":172,"x_min":31,"x_max":92,"o":"m 74 857 q 86 833 92 851 q 71 721 68 779 q 63 704 72 710 q 43 704 53 699 q 35 721 33 710 q 51 844 31 785 q 74 857 56 861 z "},"":{"ha":172,"x_min":29,"x_max":92,"o":"m 88 839 q 71 717 90 776 q 47 703 65 699 q 35 726 29 708 q 50 839 53 781 q 56 852 50 847 q 69 857 61 857 q 82 852 76 857 q 88 839 88 847 z "},"":{"ha":228,"x_min":31,"x_max":149,"o":"m 74 857 q 88 833 92 851 q 71 721 68 779 q 66 708 71 714 q 53 703 61 703 q 40 708 46 703 q 35 721 35 714 q 51 844 31 785 q 74 857 56 861 m 131 857 q 143 833 149 851 q 128 721 125 779 q 119 704 129 710 q 100 704 110 699 q 92 721 90 710 q 107 844 88 785 q 131 857 113 861 z "},"":{"ha":228,"x_min":29,"x_max":149,"o":"m 143 839 q 126 717 147 776 q 104 703 122 699 q 92 726 86 708 q 107 839 110 781 q 113 852 107 847 q 126 857 118 857 q 138 852 133 857 q 143 839 143 847 m 68 857 q 81 851 76 857 q 86 839 86 846 q 71 717 90 776 q 47 703 65 699 q 35 726 29 708 q 50 839 54 781 q 56 851 50 846 q 68 857 61 857 z "},"":{"ha":392,"x_min":33,"x_max":310,"o":"m 301 775 q 306 756 310 767 q 292 742 301 744 q 272 747 282 739 q 224 768 253 767 q 174 751 196 769 q 136 700 147 731 l 183 697 q 198 691 192 697 q 204 676 204 685 q 198 662 204 668 q 183 656 192 656 l 124 660 q 122 644 124 653 q 121 622 122 635 l 174 619 q 188 613 182 619 q 194 599 193 607 q 188 585 194 590 q 174 579 182 579 l 122 582 q 138 517 124 547 q 173 481 150 493 q 219 485 196 469 q 240 489 229 493 q 254 475 251 485 q 249 457 257 465 q 187 437 221 435 q 128 463 153 439 q 82 581 82 513 q 82 585 82 582 l 54 586 q 40 592 46 586 q 33 607 35 599 q 40 622 33 615 q 54 628 46 628 l 81 625 q 83 663 81 644 l 65 664 q 51 669 57 664 q 44 684 44 675 q 51 699 44 693 q 65 704 57 704 l 93 703 q 101 724 96 714 q 190 804 128 783 q 301 775 254 824 z "},"":{"ha":447,"x_min":33,"x_max":364,"o":"m 178 926 q 192 921 186 926 q 197 908 197 915 q 192 895 197 900 q 178 890 186 890 l 135 890 l 135 756 q 129 743 135 749 q 116 738 124 738 q 103 743 108 738 q 97 756 97 749 l 97 890 l 53 890 q 39 895 44 890 q 33 908 33 900 q 39 921 33 915 q 53 926 44 926 l 178 926 m 326 915 q 348 926 333 929 q 364 908 363 924 l 364 756 q 358 742 364 747 q 344 736 353 736 q 331 742 336 736 q 325 756 325 747 l 325 838 l 301 797 q 294 789 299 792 q 269 796 279 781 l 246 838 l 246 756 q 240 743 246 749 q 227 738 235 738 q 214 743 219 738 q 208 756 208 749 l 208 900 q 211 908 208 904 q 219 921 213 917 q 244 914 236 931 l 285 843 l 326 915 z "},"":{"ha":996,"x_min":-74,"x_max":911,"o":"m 874 629 q 883 644 874 640 q 901 644 893 649 q 910 629 910 640 q 858 542 906 572 q 757 532 810 513 q 685 581 735 542 q 601 624 635 619 q 503 592 546 633 q 474 496 461 550 q 489 448 476 481 q 504 397 501 415 q 490 286 514 343 q 431 197 471 235 q 339 143 390 160 q 235 133 289 125 q 140 174 181 142 q 81 251 103 204 q 57 347 60 297 q 60 389 57 368 q 10 375 33 375 q -49 400 -26 375 q -67 469 -74 426 q 0 604 -56 535 q 122 660 57 676 q 171 615 157 650 q 225 672 196 646 q 244 676 233 679 q 257 663 254 672 q 251 646 260 654 q 240 636 246 640 q 149 511 190 588 q 94 378 100 421 q 104 289 90 335 q 154 210 119 243 q 235 169 189 178 q 365 192 303 157 q 454 293 426 228 q 460 424 482 358 q 435 511 436 490 q 464 601 432 560 q 536 653 492 638 q 622 657 581 669 q 696 615 651 649 q 746 578 740 582 q 813 563 782 556 q 854 586 838 568 q 874 629 871 604 m 32 417 q 57 431 46 422 q 78 455 68 440 q 93 479 88 469 q 108 508 99 489 q 119 535 117 528 q 133 558 125 546 q 133 576 126 567 q 129 614 147 596 q 83 622 114 631 q 10 556 47 613 q -17 506 -6 531 q -31 454 -31 472 q -11 418 -32 428 q 32 417 10 408 z "},"":{"ha":1064,"x_min":-72,"x_max":979,"o":"m 943 682 q 955 694 946 693 q 972 690 964 696 q 976 674 979 683 q 943 610 969 636 q 881 579 917 585 q 833 583 856 576 q 777 611 811 590 q 736 636 743 632 q 631 651 688 663 q 542 593 574 639 q 532 421 492 522 q 547 385 542 396 q 558 350 551 374 q 563 313 564 326 q 561 275 563 300 q 494 164 549 207 q 375 126 442 122 q 258 175 308 131 q 194 306 217 213 q 183 352 186 339 q 168 392 179 365 q 142 433 157 418 q 104 457 126 449 q 10 435 43 422 q -18 471 -17 444 q 3 513 -19 497 q 104 506 38 533 q 165 558 146 532 q 175 639 199 604 q 110 663 153 669 q 18 579 56 653 q -32 446 -10 517 q -47 434 -36 436 q -65 439 -57 432 q -68 456 -72 446 q -14 594 -44 525 q 46 713 14 657 q 179 886 115 836 q 231 919 204 907 q 292 937 258 932 q 351 924 326 942 q 376 889 371 911 q 374 846 382 867 q 308 775 360 808 q 106 732 218 715 q 100 733 104 732 q 74 690 88 713 q 133 700 103 703 q 211 649 190 693 q 200 543 236 599 q 139 479 179 511 q 192 421 172 460 q 218 343 211 382 q 242 262 225 304 q 288 196 260 219 q 389 160 331 158 q 488 204 447 163 q 504 399 556 276 q 488 563 464 494 q 589 674 514 642 q 753 667 672 710 q 790 644 761 663 q 838 618 819 625 q 905 625 874 606 q 943 682 936 644 m 139 792 q 122 767 135 786 q 304 817 224 754 q 338 886 357 858 q 269 894 321 910 q 139 792 201 874 m 18 474 q 61 481 21 461 q 49 483 54 482 q 41 483 46 483 q 31 483 36 483 q 21 480 25 482 q 18 474 17 478 z "},"":{"ha":1013,"x_min":-44,"x_max":928,"o":"m 890 617 q 899 632 890 628 q 916 632 907 636 q 925 617 925 628 q 903 537 928 574 q 836 479 878 500 q 631 486 751 438 q 524 539 603 499 q 507 547 521 540 q 488 557 493 554 q 469 566 482 560 q 448 575 456 572 q 429 581 440 578 q 408 586 418 585 q 389 588 399 588 q 217 500 308 590 q 154 446 176 458 q 104 424 131 433 q 18 421 56 408 q -40 497 -33 439 q -25 574 -43 531 q 19 636 -8 611 q 128 679 69 683 q 162 667 149 678 q 175 635 175 656 q 163 599 175 615 q 131 576 150 582 q 113 580 119 572 q 108 598 106 588 q 121 611 110 608 q 138 629 133 615 q 138 638 138 629 q 138 639 138 639 q 135 640 138 639 q 131 642 131 642 l 129 642 l 128 642 q 114 642 122 643 q 90 636 104 640 q 85 635 89 636 q 81 633 82 633 q 63 624 68 628 q 24 583 40 608 q 4 547 11 565 q -6 509 -3 529 q 2 474 -8 489 q 38 451 13 458 q 108 460 69 442 q 189 525 136 472 q 317 608 249 582 q 381 621 349 621 q 439 613 413 621 q 500 589 465 604 q 570 553 515 582 q 663 510 625 524 q 739 496 700 497 q 845 526 797 492 q 890 617 893 560 z "},"":{"ha":1028,"x_min":-62,"x_max":942,"o":"m 904 632 q 915 648 906 643 q 933 648 924 653 q 940 632 942 643 q 889 546 936 576 q 789 536 842 515 q 715 583 765 544 q 632 628 665 622 q 535 594 578 636 q 504 499 493 553 q 520 451 508 483 q 535 400 532 418 q 522 289 544 346 q 462 200 501 238 q 369 146 422 163 q 267 137 321 129 q 171 178 213 144 q 112 254 133 208 q 89 351 90 300 q 107 444 88 403 q 102 442 106 444 q 97 440 99 440 q 31 434 67 426 q -24 469 -4 442 q -10 604 -62 522 q 111 674 42 685 q 161 635 144 667 q 161 574 178 604 q 144 565 154 564 q 128 574 133 565 q 128 592 124 582 q 122 628 140 610 q 76 635 106 643 q 7 557 33 621 q 24 475 -18 499 q 107 489 64 454 q 158 554 133 510 q 207 654 175 592 q 258 749 238 713 q 317 830 279 785 q 397 899 356 875 q 524 924 469 942 q 564 881 556 911 q 554 822 572 850 q 440 738 524 768 q 293 724 371 711 q 289 725 292 724 q 224 604 260 678 q 165 485 174 501 q 135 293 107 378 q 185 213 150 246 q 267 172 219 181 q 396 197 335 161 q 485 297 457 232 q 490 426 513 361 q 465 514 468 494 q 494 604 463 563 q 567 656 522 640 q 654 660 611 672 q 727 618 682 651 q 778 581 772 585 q 843 565 814 560 q 885 589 868 571 q 904 632 903 607 m 356 817 q 310 758 333 792 q 436 775 375 750 q 531 858 524 813 q 523 882 532 874 q 500 890 514 890 q 473 888 486 890 q 449 883 460 886 q 356 817 401 865 z "},"":{"ha":994,"x_min":-43,"x_max":911,"o":"m 874 617 q 881 632 872 628 q 899 632 890 636 q 908 617 908 628 q 885 537 910 574 q 818 479 860 500 q 614 486 733 438 q 507 539 585 499 q 489 547 503 540 q 469 557 475 554 q 451 566 464 560 q 431 575 439 572 q 413 581 424 578 q 391 586 401 585 q 371 588 381 588 q 200 500 292 590 q 111 428 144 444 q 58 415 93 418 q 13 424 35 413 q -22 457 -10 436 q -35 547 -43 500 q 1 632 -28 594 q 74 685 33 672 q 119 683 97 692 q 146 649 142 674 q 94 567 154 603 q 1 544 51 542 q 33 454 -11 471 q 167 522 89 433 q 300 608 213 575 q 363 621 331 621 q 422 613 394 621 q 482 589 449 604 q 552 553 497 582 q 644 510 607 524 q 722 496 682 497 q 828 526 781 492 q 874 617 876 560 m 46 626 q 13 581 26 608 q 82 601 51 582 q 110 631 103 615 q 100 651 117 649 q 46 626 78 656 z "},"":{"ha":1114,"x_min":-133,"x_max":1029,"o":"m 997 706 q 1013 711 1004 714 q 1025 699 1022 708 q 1022 682 1028 690 q 896 592 971 621 q 743 576 821 564 q 654 608 715 581 q 558 636 593 636 q 522 630 538 636 q 499 610 507 624 q 487 584 492 596 q 483 549 482 572 q 483 516 483 526 q 487 481 483 506 q 490 451 490 456 q 480 363 496 404 q 429 301 464 321 q 342 303 394 281 q 299 334 319 314 q 269 369 279 354 q 240 414 258 385 q 219 449 226 439 q 197 477 213 460 q 167 504 182 494 q 116 513 143 515 q 67 497 89 511 q 44 394 15 467 q 52 301 65 351 q -1 225 39 250 q -76 214 -37 200 q -121 271 -114 228 q -82 446 -132 332 q 7 636 -56 508 q 111 815 61 749 q 249 924 175 897 q 297 933 272 932 q 346 923 322 935 q 375 885 369 911 q 354 810 386 844 q 278 756 322 776 q 103 729 196 715 q 99 731 103 729 q 75 689 88 711 q -1 532 50 642 q -24 485 -7 519 q -51 427 -40 451 q -69 379 -61 403 q -60 247 -108 258 q -14 260 -33 240 q 14 307 6 279 q 18 346 19 335 q 9 382 17 357 q -1 421 1 407 q 30 515 -10 476 q 126 551 69 554 q 247 469 194 549 q 274 426 254 461 q 308 374 294 392 q 346 340 321 356 q 399 328 371 324 q 440 349 425 332 q 456 391 454 365 q 457 440 458 417 q 451 492 456 463 q 446 535 446 522 q 497 654 443 621 q 638 650 549 688 q 676 635 663 640 q 714 621 690 629 q 751 612 738 613 q 791 608 765 611 q 833 611 817 606 q 997 706 932 628 m 292 896 q 119 764 201 888 q 282 800 207 753 q 340 864 336 833 q 326 891 342 883 q 292 896 311 899 z "},"":{"ha":1347,"x_min":-87,"x_max":1263,"o":"m 1226 686 q 1235 701 1226 696 q 1253 701 1244 706 q 1261 686 1261 697 q 1207 597 1257 621 q 1088 585 1157 574 q 1008 610 1058 590 q 918 646 957 631 q 833 662 879 661 q 754 636 788 663 q 703 575 726 614 q 665 503 679 536 q 623 438 650 471 q 558 389 596 404 q 460 370 515 371 q 359 377 404 369 q 259 383 314 385 q 163 363 204 382 q 155 345 160 358 q 147 326 150 332 q 88 189 118 256 q 81 173 86 186 q 73 156 75 160 q 65 140 71 151 q 53 123 58 128 q 42 110 49 118 q 28 98 36 103 q 11 90 21 93 q -36 92 -14 82 q -68 126 -58 103 q -43 233 -87 172 q 138 397 29 335 q 165 471 154 439 q 149 456 157 463 q 78 430 117 432 q 8 449 40 428 q -31 513 -24 472 q -18 589 -37 554 q 39 643 1 624 q 121 665 76 663 q 207 654 175 668 q 221 644 214 650 q 225 643 222 644 q 226 648 225 644 q 228 653 228 651 q 242 666 232 664 q 260 661 253 668 q 264 643 268 654 q 249 596 257 619 q 179 406 221 511 q 341 411 228 422 q 506 410 454 400 q 578 444 547 418 q 625 501 610 471 q 663 572 640 531 q 706 638 685 613 q 767 683 733 669 q 839 693 800 697 q 908 681 878 689 q 982 654 938 672 q 1226 686 1218 561 m 39 172 q 114 338 76 249 q 13 244 57 297 q 6 237 11 243 q -2 228 0 231 q -9 219 -4 225 q -16 209 -14 213 q -22 199 -18 206 q -28 189 -26 193 q -33 178 -31 185 q -35 167 -35 172 q -36 157 -36 163 q -36 146 -36 151 q -20 126 -32 131 q 6 128 -8 121 q 39 172 22 138 m 151 508 q 194 618 181 544 q 163 626 182 625 q 85 622 118 632 q 34 595 56 614 q 7 549 13 576 q 14 498 0 521 q 56 468 28 475 q 151 508 108 457 z "},"":{"ha":968,"x_min":-72,"x_max":883,"o":"m 847 649 q 855 664 846 660 q 872 664 864 668 q 882 649 881 660 q 859 578 882 610 q 799 538 836 546 q 772 535 782 536 q 747 539 763 533 q 722 548 731 544 q 699 560 714 551 q 677 575 685 569 q 656 591 669 581 q 636 606 643 601 q 504 614 551 667 q 476 513 472 578 q 486 439 476 503 q 490 339 496 375 q 431 203 481 263 q 307 126 381 143 q 183 133 244 113 q 85 204 122 154 q 43 313 50 249 q 54 428 36 376 q 86 508 71 482 q 122 561 96 525 q 160 608 146 593 q 163 613 160 610 q 167 618 167 617 q 171 623 168 619 q 175 628 174 626 q 178 634 176 631 q 180 640 179 638 q 181 645 181 642 q 178 651 181 649 q 174 656 176 653 q 111 636 156 672 q 54 582 81 611 q -28 443 0 519 q -47 431 -33 432 q -67 442 -60 431 q -71 453 -71 446 q -69 468 -71 460 q -66 482 -68 476 q -60 497 -64 488 q -54 508 -56 506 q -26 581 -42 544 q 42 715 4 650 q 175 890 113 840 q 227 923 200 910 q 288 941 254 936 q 347 928 322 946 q 373 893 367 915 q 371 850 379 871 q 306 778 356 813 q 101 735 214 718 q 97 738 100 736 q 24 601 57 675 q 27 606 25 603 q 29 610 29 608 q 89 665 57 640 q 160 697 131 699 q 194 687 178 697 q 214 660 210 676 q 190 590 222 629 q 94 440 125 513 q 83 286 63 367 q 121 215 93 246 q 189 168 149 183 q 356 185 276 135 q 454 326 436 235 q 454 413 460 358 q 442 508 449 467 q 451 594 436 550 q 507 661 465 639 q 671 624 572 699 q 685 613 672 622 q 701 600 697 603 q 717 590 706 597 q 735 579 728 582 q 751 574 742 576 q 771 569 761 571 q 826 592 804 568 q 847 649 847 617 m 136 794 q 118 771 132 789 q 300 821 221 758 q 335 890 353 861 q 265 897 318 914 q 136 794 197 878 z "},"":{"ha":1115,"x_min":-86,"x_max":1032,"o":"m 64 739 q 53 757 56 746 l 51 767 q 56 783 51 775 q 64 796 58 790 q 76 804 69 801 q 92 807 83 808 l 100 807 q 121 801 111 807 l 128 796 q 139 778 136 789 l 140 767 q 136 751 140 758 q 128 739 135 744 q 115 731 122 733 q 100 726 108 726 l 92 726 q 72 732 82 726 l 64 739 m 1011 690 q 1026 680 1022 689 q 1026 663 1031 671 q 1011 654 1022 654 q 941 634 972 657 q 893 581 910 611 q 854 510 876 551 q 815 449 832 468 q 621 388 744 363 q 481 450 568 399 q 378 508 394 501 q 171 497 250 568 q 141 465 160 486 q 115 438 122 444 q 0 381 60 383 q -54 396 -31 379 q -82 442 -78 413 q -83 457 -85 446 q -82 473 -82 468 q -78 489 -82 478 q -74 504 -75 500 q -67 519 -72 508 q -60 535 -62 531 q -53 549 -58 539 q -47 563 -49 560 q 21 682 -18 624 q 40 690 28 692 q 56 681 51 689 q 56 661 61 672 q -17 532 14 597 q -23 519 -18 531 q -31 503 -28 508 q -37 485 -33 497 q -42 467 -42 474 q -43 451 -43 460 q -39 435 -43 442 q -26 425 -35 429 q 69 451 14 406 q 113 494 83 463 q 163 538 143 525 q 275 571 215 574 q 347 557 310 569 q 410 531 385 544 q 476 492 435 517 q 538 457 518 468 q 714 422 640 403 q 778 460 753 432 q 829 535 804 489 q 862 592 849 571 q 898 640 875 613 q 949 679 921 667 q 1011 690 978 692 z "},"":{"ha":1049,"x_min":-354,"x_max":963,"o":"m 42 740 q 32 757 35 747 l 31 767 q 33 781 31 775 q 42 793 36 788 q 53 801 46 799 q 68 804 60 804 l 75 804 q 93 799 85 804 l 100 793 q 110 776 107 786 l 111 767 q 108 753 111 760 q 100 740 106 746 q 89 733 96 736 q 75 731 82 729 l 68 731 q 49 735 57 731 l 42 740 m 953 663 q 961 649 961 657 q 953 634 961 640 q 935 633 944 628 q 888 643 908 643 q 849 628 868 643 q 816 597 831 614 q 787 554 801 579 q 761 507 772 529 q 737 463 750 485 q 714 429 724 442 q 616 374 675 385 q 503 386 557 364 q 376 460 461 401 q 236 529 290 518 q 185 535 213 538 q 138 528 158 532 q 91 513 117 525 q 47 490 65 501 q 5 462 28 479 q -35 431 -18 444 q -72 399 -51 417 q -87 369 -85 375 q -161 249 -128 296 q -249 144 -215 168 q -299 132 -272 126 q -337 165 -326 138 q -301 267 -353 208 q -97 429 -214 365 l -90 443 q -33 553 -46 525 q -7 618 -24 576 q 17 676 10 660 q 43 688 24 694 q 51 667 58 682 q 21 590 49 657 q -11 514 3 543 q -28 481 -11 514 q 174 569 78 563 q 255 560 214 572 q 322 532 296 547 q 393 488 349 517 q 458 446 438 458 q 653 422 576 378 q 688 453 672 433 q 713 487 704 472 q 735 530 721 501 q 756 568 750 558 q 842 660 789 629 q 953 663 894 692 m -217 235 q -132 365 -176 286 q -244 274 -193 325 q -258 260 -246 272 q -276 242 -271 249 q -291 224 -282 236 q -303 203 -300 213 q -304 183 -306 193 q -294 168 -301 171 q -278 172 -287 165 q -260 185 -269 178 q -241 204 -251 192 q -226 222 -231 217 q -217 235 -221 228 z "},"":{"ha":1214,"x_min":-67,"x_max":1131,"o":"m 1111 692 q 1126 683 1121 692 q 1126 665 1131 674 q 1111 657 1121 657 q 1040 635 1071 658 q 992 583 1008 613 q 953 513 976 554 q 915 451 931 471 q 721 390 843 365 q 580 452 667 401 q 478 510 493 503 q 342 536 400 546 q 236 475 292 526 q 220 460 231 469 q 203 443 210 450 q 184 426 196 436 q 165 410 172 415 q 144 397 157 404 q 122 388 131 389 q 99 383 113 386 q 76 385 86 381 q 24 442 38 394 q 22 544 13 485 q 76 594 29 586 q 86 596 78 594 q 97 598 94 597 q 108 601 100 599 q 119 606 115 603 q 126 613 122 608 q 131 622 129 617 q 117 638 133 638 q 92 633 101 639 q 17 564 49 617 q -26 449 -7 507 q -41 436 -31 438 q -59 442 -51 435 q -62 458 -67 449 q 51 715 -17 594 q 185 889 121 839 q 237 922 210 908 q 298 940 264 935 q 357 926 332 944 q 382 892 376 914 q 379 849 388 869 q 314 778 365 811 q 111 735 224 717 q 106 736 110 735 q 61 660 82 700 q 78 668 71 665 q 151 664 124 686 q 167 632 165 651 q 160 597 169 613 q 96 561 143 568 q 89 559 94 560 q 82 558 83 558 q 76 557 81 558 q 70 554 72 556 q 65 551 68 553 q 61 547 63 550 q 58 540 60 543 q 56 479 54 526 q 56 464 57 472 q 57 447 56 456 q 60 433 58 439 q 69 422 63 426 q 83 415 75 417 q 124 424 103 414 q 156 444 144 433 q 185 475 167 456 q 195 485 188 476 q 206 497 203 494 q 216 507 208 499 q 227 518 224 515 q 238 527 231 521 q 249 537 244 533 q 261 545 254 540 q 275 553 268 550 q 289 560 282 557 q 419 568 349 585 q 490 542 456 558 q 572 497 525 525 q 636 460 618 469 q 813 424 739 404 q 878 463 851 435 q 928 536 904 492 q 960 594 947 574 q 997 642 974 615 q 1048 681 1019 669 q 1111 692 1076 693 m 144 793 q 128 769 140 789 q 310 819 229 757 q 343 889 363 861 q 275 897 326 913 q 144 793 207 876 z "},"":{"ha":1169,"x_min":-90,"x_max":1086,"o":"m 1065 651 q 1081 642 1076 651 q 1081 625 1085 633 q 1065 617 1076 617 q 995 596 1026 619 q 947 543 964 572 q 908 472 931 514 q 869 411 886 431 q 675 350 799 325 q 535 412 622 361 q 433 469 449 463 q 308 496 363 503 q 201 435 260 490 q 174 408 196 429 q 144 378 153 388 q 117 355 135 369 q 85 329 100 340 q -56 286 -10 264 q -87 349 -89 301 q -67 451 -86 382 q -33 550 -54 500 q 61 740 3 643 q 181 885 122 840 q 336 925 269 954 q 369 892 363 914 q 369 849 376 871 q 347 807 363 828 q 107 726 274 710 q 99 729 103 726 q 57 657 79 700 q -17 492 11 572 q -40 406 -31 449 q -44 388 -40 403 q -49 369 -49 374 q -51 349 -50 364 q -49 331 -53 333 q -28 317 -43 317 q 7 326 -12 317 q 40 344 26 335 q 64 360 54 353 q 123 415 88 379 q 182 475 158 451 q 245 517 206 499 q 329 533 285 535 q 402 519 364 532 q 465 493 440 507 q 531 455 489 479 q 592 419 572 431 q 768 383 694 364 q 833 423 807 394 q 883 496 860 451 q 916 554 903 533 q 952 602 929 575 q 1003 641 975 629 q 1065 651 1032 653 m 143 796 q 119 763 131 779 q 324 836 267 751 q 326 889 349 875 q 267 889 306 901 q 143 796 203 869 z "},"":{"ha":1421,"x_min":-65,"x_max":1338,"o":"m 1318 649 q 1333 640 1328 649 q 1333 622 1338 631 q 1318 614 1328 614 q 1247 592 1279 615 q 1199 540 1215 569 q 1161 469 1183 511 q 1122 408 1139 428 q 928 347 1050 322 q 787 409 874 358 q 685 467 700 460 q 524 485 590 511 q 445 428 481 468 q 375 335 410 388 q 315 258 340 283 q 244 244 278 221 q 225 311 214 267 q 233 340 228 325 q 247 376 239 356 q 258 404 254 396 q 277 455 264 421 q 296 507 290 489 q 306 532 299 513 q 317 561 313 551 q 329 601 329 594 q 321 617 331 615 q 301 611 311 619 q 272 571 293 606 q 244 526 263 556 q 215 481 225 496 q 171 408 175 417 q 143 361 151 372 q 100 349 122 335 q 89 410 78 364 q 100 447 92 422 q 111 486 108 472 q 135 583 135 582 q 135 605 139 594 q 117 612 131 615 q 86 583 104 608 q 31 496 85 581 q 18 473 28 492 q 1 443 8 454 q -19 422 -6 432 q -46 414 -32 413 q -58 420 -53 415 q -64 433 -64 425 q -39 540 -62 454 q -10 665 -35 558 q 3 677 -7 675 q 22 672 14 679 q 26 654 29 665 q -1 538 4 560 q -15 492 -3 536 q -12 497 -12 496 q 47 589 -10 503 q 63 614 57 606 q 82 633 69 622 q 108 647 94 644 q 144 646 126 653 q 169 622 161 639 q 174 608 172 615 q 174 590 175 600 q 172 575 172 581 q 167 558 171 569 q 164 544 164 547 q 140 451 143 461 q 135 433 139 446 q 129 414 131 421 q 126 403 128 411 q 135 418 133 415 q 161 466 146 442 q 197 523 176 490 q 226 568 218 556 q 238 585 228 569 q 251 606 247 601 q 264 624 254 611 q 281 642 274 638 q 298 652 288 646 q 319 657 308 658 q 342 650 331 656 q 363 628 357 642 q 366 595 369 614 q 358 563 363 576 q 344 527 354 549 q 333 500 335 506 q 310 441 326 481 q 283 369 294 401 q 263 308 271 338 q 261 283 257 294 q 281 278 265 271 q 308 308 289 283 q 343 357 319 324 q 381 410 367 390 q 419 453 396 429 q 467 494 443 478 q 533 523 499 515 q 596 528 568 531 q 662 512 624 526 q 722 485 700 497 q 785 450 744 474 q 843 417 826 426 q 1019 381 947 361 q 1085 420 1060 392 q 1135 493 1111 449 q 1167 551 1154 531 q 1203 599 1181 572 q 1255 638 1226 626 q 1318 649 1283 650 z "},"":{"ha":1272,"x_min":-46,"x_max":1189,"o":"m 1168 649 q 1183 640 1179 649 q 1183 622 1188 631 q 1168 614 1179 614 q 1098 593 1129 617 q 1050 540 1067 569 q 1011 469 1033 511 q 972 408 989 428 q 778 347 901 322 q 638 409 725 358 q 536 467 551 460 q 374 485 442 511 q 295 428 329 467 q 227 337 261 389 q 167 258 193 285 q 96 246 129 221 q 76 311 67 267 q 118 436 82 338 q 176 564 138 488 q 188 581 179 567 q 199 603 196 594 q 204 616 199 604 q 209 631 210 628 q 207 644 208 635 q 176 651 197 657 q 94 600 139 640 q -7 451 25 538 q -10 446 -8 449 q -31 436 -15 433 q -46 454 -46 439 q 14 682 -46 575 q 29 690 19 690 q 45 681 39 690 q 46 663 51 672 q 3 550 17 610 q 72 631 33 594 q 231 682 174 719 q 235 589 271 657 q 169 461 183 496 q 114 308 125 349 q 112 284 108 297 q 131 276 115 271 q 142 285 136 279 q 153 299 147 290 q 163 313 160 308 q 213 381 176 328 q 275 460 250 435 q 381 522 325 507 q 428 530 404 529 q 476 525 453 531 q 522 511 500 519 q 567 490 543 503 q 610 466 592 478 q 653 440 629 454 q 694 417 678 426 q 871 381 797 361 q 936 420 910 392 q 986 493 963 449 q 1019 551 1006 531 q 1055 599 1032 572 q 1106 638 1078 626 q 1168 649 1135 650 z "},"":{"ha":1176,"x_min":-39,"x_max":1090,"o":"m 1081 614 q 1090 600 1090 608 q 1081 586 1090 592 q 1063 585 1072 581 q 1008 591 1035 600 q 963 565 981 582 q 925 517 944 547 q 892 460 906 488 q 861 406 878 433 q 831 364 844 378 q 719 307 785 319 q 594 319 654 294 q 492 407 542 342 q 429 467 460 447 q 353 489 399 488 q 290 488 340 489 q 210 491 240 486 q 154 513 179 496 q 114 468 135 488 q 73 440 94 450 q 27 432 51 431 q -17 453 3 433 q -19 457 -18 454 q -39 513 -39 479 q -26 575 -39 546 q 7 628 -12 604 q 69 681 33 661 q 158 696 122 708 q 186 676 176 689 q 192 590 208 649 q 190 585 192 588 q 172 542 185 565 q 250 521 201 524 q 338 522 299 518 q 421 513 376 526 q 480 474 451 501 q 527 422 508 447 q 576 373 546 397 q 640 342 606 349 q 736 347 689 331 q 817 400 783 363 q 863 473 838 422 q 897 538 889 524 q 979 614 931 590 q 1081 614 1028 638 m 146 569 q 156 595 151 582 q 163 625 160 608 q 158 652 165 642 q 132 663 150 663 q 71 638 106 661 q 28 594 44 619 q 1 535 8 565 q 10 479 -7 497 q 47 471 25 464 q 90 497 68 476 q 125 533 110 514 q 110 610 96 569 q 132 622 114 626 q 143 614 139 621 q 144 600 147 607 q 143 593 144 596 q 143 592 143 593 q 143 590 143 592 q 143 583 143 586 l 143 581 q 143 576 143 576 q 146 569 144 574 z "},"":{"ha":1194,"x_min":-114,"x_max":1110,"o":"m 1100 633 q 1108 618 1108 628 q 1099 604 1107 608 q 1082 604 1092 600 q 988 633 1038 632 q 894 607 939 635 q 838 544 856 582 q 808 447 819 506 q 658 236 776 293 q 531 211 599 207 q 407 250 464 215 q 349 304 381 267 q 295 375 318 342 q 237 435 272 408 q 165 464 201 463 q 154 451 154 451 q 97 404 128 424 q 42 383 64 382 q 16 397 26 385 q 6 424 6 408 q 36 472 6 453 q 153 503 72 494 q 199 586 183 544 q 194 649 215 633 q 100 622 158 676 q -15 433 17 544 q -21 425 -17 429 q -74 236 -43 328 q -88 224 -78 225 q -106 228 -99 222 q -110 246 -114 235 q -21 658 -40 449 q -10 674 -19 669 q 9 674 0 678 q 17 658 18 669 q 6 567 13 615 q 19 586 17 582 q 136 690 82 671 q 192 691 161 700 q 236 657 222 682 q 239 590 250 631 q 231 564 236 578 q 196 506 218 536 q 189 496 189 496 q 244 469 217 489 q 288 431 272 449 q 331 378 303 413 q 369 331 358 343 q 532 247 435 254 q 703 308 629 239 q 749 380 732 338 q 773 459 767 422 q 797 538 779 496 q 842 608 814 581 q 966 667 893 660 q 1100 633 1039 674 m 60 425 q 111 460 86 438 q 65 446 82 454 q 44 429 46 436 q 60 425 40 415 z "},"":{"ha":1346,"x_min":-65,"x_max":1261,"o":"m 1246 618 q 1259 608 1257 617 q 1254 591 1261 599 q 1238 585 1247 583 q 1176 592 1206 594 q 1119 568 1146 589 q 1064 497 1090 546 q 1042 453 1056 482 q 1017 401 1029 424 q 990 360 1004 379 q 895 295 951 311 q 776 294 839 279 q 685 335 729 307 q 588 407 642 363 q 510 469 535 451 q 375 528 442 517 q 249 492 318 536 q 233 483 246 490 q 218 473 221 475 q 205 463 215 471 q 192 451 194 456 q 182 440 189 447 q 173 426 175 432 q 168 410 171 419 q 165 392 165 401 q 161 304 165 340 q 53 81 144 133 q -31 74 4 51 q -54 171 -64 96 q -31 259 -49 211 q 2 338 -14 307 q 46 418 18 368 q -21 421 7 401 q -49 479 -47 439 q 6 618 -50 547 q 68 671 33 653 q 136 672 103 689 q 174 617 169 654 q 174 606 175 611 q 221 660 197 633 q 239 665 229 668 q 251 651 249 661 q 247 633 254 642 q 78 397 147 526 q 35 319 46 342 q 6 250 24 297 q -18 164 -12 203 q -18 121 -24 143 q 13 103 -12 99 q 88 172 56 111 q 124 297 115 224 q 128 368 128 325 q 143 445 129 417 q 196 504 157 474 q 271 551 243 540 q 345 568 308 567 q 415 558 382 569 q 480 528 449 546 q 543 486 511 511 q 602 439 575 461 q 662 392 629 417 q 719 354 694 368 q 913 338 831 294 q 939 357 926 346 q 959 376 951 368 q 978 404 967 385 q 992 430 989 424 q 1008 460 996 436 q 1019 486 1019 483 q 1106 601 1060 569 q 1173 626 1136 624 q 1246 618 1210 629 m -8 465 q 71 483 6 421 q 128 550 103 513 q 118 558 121 553 q 125 583 110 572 q 137 603 135 590 q 132 628 139 617 q 89 640 117 650 q 14 563 47 625 q -7 511 0 538 q -8 465 -14 481 z "},"":{"ha":997,"x_min":-78,"x_max":914,"o":"m 876 650 l 876 649 q 889 661 879 660 q 906 656 899 663 q 910 640 914 650 q 867 578 899 601 q 793 551 835 554 q 739 555 768 549 q 691 568 710 561 q 638 591 672 575 q 592 613 604 607 q 506 633 547 631 q 426 615 464 635 q 365 553 388 596 q 351 496 351 526 q 357 442 350 465 q 374 385 364 418 q 388 329 383 351 q 367 163 400 243 q 260 47 333 83 q 108 29 189 13 q -22 108 26 46 q -65 210 -54 151 q -54 319 -76 269 q -17 374 -53 322 q 19 457 18 425 q 13 490 21 475 q -11 523 6 504 q -32 549 -28 542 q -56 603 -50 574 q -49 659 -61 632 q -8 697 -37 686 q 8 694 1 701 q 13 676 15 688 q 1 661 11 665 q -19 638 -15 656 q -17 604 -22 621 q -4 574 -12 588 q 24 538 1 565 q 53 493 46 511 q 56 482 54 488 q 28 378 64 435 q 13 356 22 369 q -5 330 3 342 q -18 307 -12 318 q -14 171 -49 247 q 58 87 8 117 q 167 60 108 57 q 272 97 226 63 q 340 188 318 132 q 333 394 372 276 q 336 571 299 500 q 395 638 357 611 q 479 668 433 664 q 501 669 494 668 q 522 668 507 671 q 543 665 538 665 q 563 659 549 664 q 583 653 578 654 q 603 645 589 651 q 622 636 617 639 q 642 627 628 633 q 661 618 656 621 q 719 597 690 606 q 781 586 747 589 q 841 599 815 583 q 876 650 867 615 z "},"":{"ha":1133,"x_min":-74,"x_max":1049,"o":"m 1033 644 q 1046 634 1044 643 q 1041 617 1047 625 q 1024 611 1035 610 q 949 593 983 618 q 896 533 915 568 q 851 453 876 497 q 804 390 825 410 q 693 349 758 351 q 576 374 628 347 q 488 419 546 386 q 381 470 429 453 q 282 485 332 488 q 206 467 239 482 q 122 413 172 451 q 63 367 72 374 q 56 315 61 338 q -19 239 35 238 q -58 262 -44 239 q -67 310 -72 285 q -46 341 -61 326 q -22 361 -31 356 q 14 379 -12 367 q 26 386 22 383 q 19 433 25 411 q 1 483 14 454 q -20 534 -11 511 q -37 583 -29 557 q -42 637 -44 610 q -29 689 -40 664 q 57 747 -1 746 q 107 733 85 749 q 136 692 129 718 q 121 607 150 646 q 19 533 94 571 q 53 451 49 465 q 61 410 58 433 q 92 436 68 417 q 131 465 117 456 q 263 518 188 507 q 355 512 307 524 q 432 486 403 500 q 514 444 461 472 q 529 435 525 438 q 715 386 643 374 q 789 426 761 396 q 847 513 817 457 q 927 617 883 581 q 1033 644 971 654 m 6 568 q 43 586 29 579 q 74 608 57 593 q 97 640 90 624 q 90 700 113 679 q 61 710 79 710 q 31 703 43 711 q -3 650 4 686 q 0 586 -10 614 q 6 568 3 578 m 4 289 q 25 343 19 310 q -28 306 -19 324 q -26 279 -36 289 q 4 289 -12 267 z "},"":{"ha":835,"x_min":-149,"x_max":753,"o":"m 713 625 q 719 640 711 636 q 737 640 728 644 q 747 625 746 636 q 713 549 751 576 q 625 529 674 522 q 566 550 600 532 q 507 583 532 568 q 447 607 482 599 q 388 601 413 615 q 337 547 353 585 q 323 469 321 508 q 325 393 325 431 q 276 207 332 274 q 131 135 219 140 q -19 194 42 131 q -32 561 -126 310 q 32 693 -7 631 q 7 700 18 697 q -106 783 -68 726 q -131 914 -147 844 q -118 926 -128 924 q -101 922 -108 928 q -97 904 -94 915 q -81 808 -110 854 q -1 740 -51 763 q 54 724 25 729 q 197 876 115 811 q 215 880 206 883 q 227 868 225 876 q 222 851 229 860 q 94 721 150 794 q 101 720 94 721 q 107 719 107 719 q 151 733 132 721 q 165 753 172 744 q 162 769 158 760 q 174 781 165 779 q 190 776 182 783 q 201 742 206 760 q 183 713 196 725 q 151 694 169 701 q 69 686 118 681 q -7 529 21 611 q -31 438 -24 482 q -40 342 -39 393 q -17 250 -40 292 q 50 186 6 208 q 138 169 92 165 q 222 203 185 174 q 292 379 296 260 q 290 451 288 411 q 297 528 292 492 q 324 596 301 565 q 385 638 347 626 q 531 607 443 656 q 619 565 594 571 q 685 573 654 557 q 713 625 715 589 z "},"":{"ha":1256,"x_min":-61,"x_max":1171,"o":"m 1151 649 q 1167 640 1163 649 q 1167 622 1171 631 q 1151 614 1163 614 q 1081 592 1113 615 q 1033 540 1050 569 q 994 469 1017 511 q 956 408 972 428 q 761 347 885 322 q 622 409 708 358 q 518 467 535 460 q 351 482 421 513 q 308 455 331 474 q 273 422 286 436 q 237 379 260 407 q 206 343 214 351 q 132 297 165 297 q 105 305 115 299 q 90 324 94 311 q 83 351 85 338 q 83 383 81 364 q 88 415 86 401 q 94 447 90 429 q 99 469 97 464 q 57 429 75 440 q 1 416 33 411 q -43 449 -31 421 q -28 564 -61 486 q 38 671 -4 622 q 56 676 46 679 q 68 663 65 672 q 64 644 71 654 q 3 544 24 599 q -11 496 -7 518 q -6 458 -17 468 q 29 456 7 446 q 63 483 44 463 q 133 590 94 522 q 136 596 135 594 q 153 626 142 606 q 169 657 164 647 q 185 665 176 665 q 201 656 194 665 q 201 638 207 647 q 185 607 200 636 q 146 519 157 557 q 122 385 133 474 q 120 353 119 374 q 136 335 121 333 q 148 338 142 335 q 158 343 154 340 q 168 352 163 346 q 177 362 174 358 q 185 372 181 365 q 192 381 190 379 q 239 436 222 418 q 285 481 256 454 q 347 520 315 508 q 415 531 379 532 q 488 517 450 529 q 550 490 525 504 q 616 452 575 476 q 678 417 657 428 q 854 381 781 361 q 919 420 893 392 q 968 493 944 449 q 1001 551 988 531 q 1038 599 1014 572 q 1089 638 1061 626 q 1151 649 1117 650 z "},"":{"ha":1210,"x_min":-60,"x_max":1125,"o":"m 1110 682 q 1122 670 1119 679 q 1117 653 1124 661 q 1100 649 1111 646 q 1022 628 1057 656 q 968 563 988 601 q 922 478 949 524 q 869 415 894 433 q 635 413 778 347 q 558 453 607 425 q 489 492 508 482 q 307 531 413 531 q 144 563 197 532 q -33 439 68 478 q -51 443 -43 435 q -57 461 -58 451 q -29 567 -47 497 q -1 672 -11 638 q 12 685 1 683 q 30 681 22 688 q 35 663 38 674 q 12 576 26 633 q -11 489 -3 518 q 115 586 60 524 q 89 621 99 603 q 90 638 85 629 q 104 647 96 647 q 119 638 113 647 q 138 613 126 625 q 174 668 158 639 q 189 678 179 678 q 205 669 199 678 q 206 650 211 660 q 174 599 192 624 q 169 594 172 597 q 167 589 167 590 q 297 565 206 567 q 410 558 389 563 q 553 496 464 547 q 679 432 642 444 q 771 417 719 414 q 857 449 822 419 q 883 476 871 460 q 902 506 896 493 q 920 541 908 518 q 938 574 932 564 q 1110 682 1007 700 z "},"":{"ha":1239,"x_min":-50,"x_max":1160,"o":"m 1140 642 q 1151 619 1158 639 q 1131 608 1146 606 q 1053 585 1088 614 q 999 517 1018 557 q 953 429 979 476 q 903 363 926 382 q 819 331 867 333 q 733 342 772 328 q 651 383 693 357 q 607 414 640 390 q 550 451 574 438 q 500 475 526 465 q 418 484 469 486 q 335 485 367 482 q 267 522 296 490 q 222 472 244 493 q 128 443 167 422 q 100 504 97 458 q 57 467 81 485 q -39 456 -7 418 q -49 492 -50 469 q -45 524 -49 514 q -33 561 -42 535 q 18 667 -14 617 q 35 676 25 676 q 51 667 46 675 q 51 649 56 658 q 1 547 19 599 q -11 501 -7 521 q -7 476 -15 481 q 29 492 4 474 q 63 519 46 504 q 140 614 108 561 q 144 622 144 621 q 149 626 146 625 q 167 665 158 646 q 179 674 171 672 q 193 672 188 676 q 200 647 207 664 q 172 594 188 621 q 139 514 143 539 q 138 486 135 501 q 158 474 142 471 q 190 493 169 476 q 219 522 206 507 q 243 551 232 535 q 236 576 238 565 q 254 638 233 604 q 272 664 260 649 q 322 681 299 699 q 329 656 333 672 q 308 594 322 625 q 286 551 300 575 q 326 522 300 529 q 407 519 347 517 q 522 503 472 524 q 634 436 558 489 q 758 371 710 383 q 836 369 806 358 q 892 405 867 379 q 933 463 917 431 q 971 530 950 496 q 1012 591 992 564 q 1065 633 1032 618 q 1140 642 1099 647 z "},"":{"ha":1303,"x_min":-49,"x_max":1219,"o":"m 1199 735 q 1214 726 1210 735 q 1214 708 1218 717 q 1199 700 1210 700 q 1128 678 1160 701 q 1081 626 1097 656 q 1042 555 1064 596 q 1003 494 1019 514 q 808 433 932 408 q 669 495 756 444 q 565 553 582 546 q 554 558 560 556 q 364 547 435 608 q 321 504 351 536 q 266 455 290 472 q 211 429 242 438 q 149 428 182 418 q 100 465 115 438 q 92 482 96 474 q 25 444 57 460 q 6 447 15 440 q -3 462 -3 453 q 7 476 -3 471 q 89 525 49 496 q 107 596 90 547 q 100 658 124 644 q 70 657 86 665 q 46 635 54 649 q 22 583 38 624 q -14 524 6 542 q -33 521 -22 517 q -45 533 -43 525 q -40 550 -47 542 q -4 611 -21 567 q 28 671 13 656 q 85 697 51 696 q 140 668 119 697 q 149 650 146 660 q 151 633 151 640 q 149 614 151 626 q 146 597 147 601 q 140 578 144 592 q 133 561 135 564 q 135 563 133 561 q 139 565 138 565 q 190 693 218 640 q 190 712 185 703 q 206 721 196 721 q 222 713 215 721 q 176 551 263 636 q 125 506 156 529 q 135 479 128 490 q 192 463 153 456 q 238 481 217 467 q 283 522 258 496 q 318 558 307 549 q 463 617 389 619 q 535 602 497 615 q 597 576 572 589 q 663 538 622 563 q 725 503 704 514 q 901 467 828 447 q 966 506 940 478 q 1017 579 992 535 q 1049 638 1036 617 q 1085 685 1063 658 q 1137 724 1108 713 q 1199 735 1165 736 z "},"":{"ha":1236,"x_min":-143,"x_max":1153,"o":"m 1132 647 q 1147 637 1143 646 q 1147 619 1151 628 q 1132 613 1143 611 q 1056 592 1090 617 q 1003 534 1022 567 q 958 460 985 501 q 908 399 932 418 q 797 351 860 358 q 678 369 735 343 q 604 410 649 382 q 527 461 560 439 q 450 496 494 483 q 364 499 406 508 q 232 426 311 486 q 122 353 153 367 q 65 242 94 289 q 56 226 64 240 q 44 207 47 211 q 33 191 42 203 q 20 173 25 179 q 8 158 15 167 q -8 144 0 150 q -24 132 -15 138 q -78 122 -50 114 q -119 158 -106 131 q -97 265 -143 211 q -80 283 -90 274 q -62 297 -69 292 q -40 311 -54 303 q -21 323 -26 319 q 1 335 -15 326 q 21 347 18 344 q 97 386 49 363 q 135 496 121 442 q 136 498 136 496 q 136 500 136 500 q 28 453 76 446 q -24 486 -6 458 q -40 549 -42 514 q 28 686 -39 621 q 46 691 36 694 q 58 678 56 688 q 54 660 61 669 q -3 550 -3 606 q 15 500 -4 518 q 64 494 33 482 q 154 571 104 513 q 235 694 179 664 q 256 692 247 701 q 260 669 265 682 q 233 619 249 644 q 188 554 214 585 q 185 540 185 544 q 142 403 168 471 q 208 450 165 417 q 288 505 251 483 q 363 533 324 526 q 401 538 382 538 q 435 535 419 538 q 471 525 451 532 q 503 512 490 518 q 536 494 517 506 q 567 476 556 483 q 599 455 579 468 q 629 436 618 442 q 814 389 735 368 q 944 500 888 407 q 979 556 965 536 q 1017 601 993 575 q 1070 639 1042 628 q 1132 647 1099 650 m 21 243 q 74 332 50 286 q 67 330 72 332 q 61 326 63 328 q -54 256 -26 279 q -77 228 -67 244 q -90 191 -87 211 q -74 160 -93 171 q -60 156 -68 154 q -46 160 -51 158 q -32 170 -40 163 q -18 184 -24 178 q -6 201 -12 190 q 6 217 1 211 q 15 232 10 224 q 21 243 19 240 z "},"":{"ha":1272,"x_min":-75,"x_max":1188,"o":"m 1168 646 q 1183 635 1179 644 q 1183 618 1188 626 q 1168 611 1179 610 q 1099 591 1129 614 q 1051 537 1068 568 q 1013 466 1035 506 q 971 407 990 426 q 872 360 932 369 q 761 367 813 350 q 627 424 715 378 q 488 479 539 469 q 344 467 413 496 q 199 379 276 439 q 185 338 194 358 q 89 199 161 281 q 60 169 71 179 q 31 147 50 158 q -8 138 11 136 q -56 160 -37 138 q -68 211 -75 183 q -7 292 -60 247 q 85 360 35 328 q 167 407 113 378 q 164 429 167 419 q 143 451 158 442 q 115 456 128 460 q 106 444 113 451 q 96 432 99 436 q 74 429 88 421 q 65 450 60 438 q 88 479 71 468 q 135 536 103 499 q 182 593 167 574 q 185 596 182 593 q 190 601 188 599 q 195 608 192 604 q 201 616 199 613 q 206 624 203 619 q 211 631 210 628 q 214 637 213 633 q 215 642 215 640 q 213 644 214 643 q 203 643 208 646 q 193 635 199 640 q 183 624 188 629 q 174 615 179 619 q 168 608 169 610 q 46 544 121 557 q -13 551 13 538 q -42 597 -39 565 q -34 613 -43 608 q -15 613 -25 618 q -4 597 -6 608 q 67 589 -3 564 q 138 629 111 604 q 149 642 140 632 q 165 657 158 651 q 181 669 171 663 q 198 679 190 676 q 215 682 206 682 q 233 678 225 682 q 244 617 265 658 q 214 572 236 600 q 144 490 164 513 q 175 475 161 486 q 201 425 197 457 q 411 519 318 511 q 467 519 439 522 q 528 504 494 517 q 576 485 561 492 q 633 458 592 479 q 683 433 675 438 q 850 392 781 386 q 935 424 901 394 q 996 506 968 454 q 1027 559 1014 539 q 1062 603 1040 579 q 1110 638 1083 628 q 1168 646 1136 649 m 57 219 q 153 357 125 296 q -6 242 46 296 q -29 185 -42 203 q 57 219 -4 151 z "},"":{"ha":600,"x_min":-39,"x_max":517,"o":"m 478 557 q 492 568 482 567 q 508 563 501 569 q 513 547 515 557 q 356 306 457 400 q 253 231 307 261 q 233 219 239 222 q 215 211 228 217 q 193 203 201 206 q 174 202 185 201 q 151 207 163 203 q 124 227 133 215 q 116 256 114 239 q 121 288 118 274 q 138 324 124 301 q 159 355 153 346 q 182 385 165 364 q 199 407 199 407 q 288 535 263 492 q 294 545 289 536 q 302 558 300 554 q 308 569 304 561 q 313 583 313 578 q 314 596 314 589 q 311 608 314 603 q 301 618 308 613 q 275 633 293 624 q 249 647 257 642 q 221 550 244 596 q 182 494 211 532 q 71 417 131 429 q -12 440 17 406 q -37 521 -37 471 q -19 599 -37 561 q 31 663 -1 638 q 107 690 71 694 q 143 668 131 688 q 149 625 156 649 q 86 561 139 586 q 1 544 46 542 q 1 500 -3 521 q 29 454 8 463 q 117 478 69 438 q 189 564 164 518 q 215 685 219 621 q 201 735 200 708 q 218 782 201 763 q 261 804 235 801 q 276 797 272 806 q 276 780 281 789 q 261 769 272 771 q 236 743 240 767 q 243 704 232 719 q 282 668 253 685 q 303 656 285 665 q 327 642 321 646 q 341 626 333 638 q 350 600 349 614 q 349 587 350 593 q 347 575 349 581 q 342 562 346 569 q 338 550 339 554 q 331 538 336 546 q 325 526 326 529 q 317 515 324 524 q 311 504 311 506 q 240 404 288 467 q 167 304 178 322 q 157 246 142 264 q 200 242 169 229 q 367 367 294 282 q 478 557 439 451 m 31 610 q 13 581 21 597 q 71 594 44 582 q 114 644 119 619 q 75 647 108 665 q 31 610 49 633 z "},"":{"ha":3446,"x_min":82,"x_max":3361,"o":"m 1486 292 q 1543 242 1529 285 q 1531 165 1557 199 q 1451 131 1497 128 q 1369 167 1404 133 q 1367 169 1368 168 q 1365 171 1365 171 q 1344 140 1360 163 q 1322 108 1329 118 q 1299 81 1314 99 q 1271 56 1283 64 q 1240 42 1258 49 q 1201 36 1222 36 q 1185 44 1190 35 q 1185 65 1181 54 q 1201 75 1190 75 q 1249 90 1226 75 q 1283 119 1271 104 q 1315 165 1296 135 q 1340 206 1333 196 q 1313 372 1304 271 q 1382 593 1322 474 q 1499 797 1428 685 q 1544 865 1522 835 q 1329 710 1418 810 q 1232 564 1271 644 q 1244 483 1243 510 q 1222 389 1244 433 q 1165 344 1199 342 q 1139 396 1131 349 q 1157 475 1144 428 q 1192 569 1171 522 q 1179 660 1182 621 q 1196 881 1171 767 q 1128 782 1154 831 q 1090 678 1101 733 q 1080 622 1086 660 q 1069 565 1074 585 q 971 389 1046 460 q 801 297 899 319 q 610 307 704 275 q 497 372 549 329 q 418 469 446 414 q 388 476 410 471 q 339 487 357 483 q 290 495 321 490 q 239 497 260 500 q 194 488 218 494 q 151 465 169 482 q 122 425 133 449 q 106 414 115 414 q 90 424 96 414 q 89 444 83 433 q 181 526 118 506 q 256 537 214 538 q 326 531 297 536 q 401 514 354 525 q 393 601 389 558 q 493 754 404 697 q 706 797 579 810 q 881 708 829 786 q 903 617 908 665 q 868 529 899 569 q 794 471 839 493 q 704 449 750 449 q 621 474 658 449 q 617 473 619 474 q 614 472 615 472 q 494 460 557 458 q 469 461 483 460 q 583 360 513 396 q 754 329 664 321 q 915 392 844 338 q 1019 535 990 450 q 1042 633 1031 567 q 1064 732 1053 700 q 1217 957 1101 842 q 1099 962 1158 942 q 965 1026 1040 982 q 711 1118 810 1117 q 721 1107 718 1110 q 750 1025 749 1071 q 732 953 753 986 q 681 901 711 919 q 611 885 650 883 q 542 914 572 888 q 503 976 513 939 q 508 1047 493 1013 q 621 1144 536 1117 q 628 1146 624 1144 q 631 1147 631 1147 q 607 1264 585 1206 q 651 1317 619 1297 q 721 1331 683 1336 q 739 1310 739 1329 q 721 1292 736 1292 q 674 1285 694 1296 q 643 1250 653 1274 q 663 1169 628 1210 q 676 1156 668 1164 q 956 1076 797 1168 q 991 1056 960 1074 q 1031 1033 1022 1038 q 1069 1014 1040 1028 q 1112 997 1097 1000 q 1150 990 1126 994 q 1194 990 1174 986 q 1233 1004 1214 994 q 1278 1107 1253 1056 q 1292 1136 1288 1128 q 1310 1158 1297 1144 q 1339 1172 1324 1171 q 1376 1158 1361 1175 q 1392 1119 1392 1142 q 1385 1081 1392 1100 q 1363 1044 1378 1063 q 1335 1015 1347 1026 q 1302 985 1324 1004 q 1274 960 1281 967 q 1251 939 1264 951 q 1239 894 1244 915 q 1217 686 1213 789 q 1222 626 1218 657 q 1363 797 1279 726 q 1594 925 1465 885 q 1639 967 1617 949 q 1822 1050 1740 1049 q 1863 1040 1843 1050 q 1888 1011 1882 1031 q 1865 958 1897 983 q 1836 940 1851 947 q 1801 927 1821 932 q 1769 919 1781 922 q 1731 913 1757 917 q 1697 908 1704 910 q 1617 890 1657 903 q 1475 681 1561 831 q 1423 588 1442 624 q 1382 497 1404 551 q 1353 392 1360 443 q 1354 290 1346 340 q 1369 239 1358 264 q 1486 292 1431 300 m 1731 982 q 1674 943 1701 967 q 1681 945 1674 944 q 1690 947 1688 946 q 1727 951 1696 947 q 1771 958 1758 956 q 1805 969 1783 961 q 1840 988 1826 976 q 1851 1000 1851 996 q 1817 1011 1849 1014 q 1731 982 1779 1007 m 1310 1085 q 1281 1017 1296 1054 q 1300 1035 1294 1029 q 1350 1107 1342 1074 q 1346 1132 1356 1128 q 1332 1124 1340 1135 q 1310 1085 1326 1117 m 711 1010 q 701 1063 714 1040 q 661 1114 688 1086 q 657 1113 661 1114 q 650 1111 653 1113 q 583 1081 613 1103 q 542 1026 553 1060 q 552 960 531 992 q 611 924 574 928 q 678 946 649 919 q 711 1010 708 972 m 610 565 q 628 517 608 538 q 694 564 682 535 q 697 608 704 579 q 671 640 689 636 q 628 617 647 644 q 610 565 610 589 m 447 649 q 446 503 414 581 q 588 506 513 490 q 572 547 575 525 q 583 615 567 581 q 629 667 600 649 q 690 673 663 686 q 731 625 717 660 q 714 524 753 567 q 672 493 699 506 q 725 489 699 485 q 806 523 769 496 q 858 589 843 550 q 854 675 875 635 q 789 738 833 715 q 590 753 703 779 q 447 649 488 729 m 1197 429 q 1204 493 1206 458 q 1182 408 1194 465 q 1181 401 1182 407 q 1178 393 1179 396 q 1186 406 1186 404 q 1197 429 1193 415 m 1468 169 q 1501 192 1489 175 q 1507 228 1514 208 q 1453 249 1494 265 q 1390 203 1419 236 q 1468 169 1422 160 m 1699 786 q 1710 768 1707 778 l 1711 758 q 1707 743 1711 750 q 1699 731 1706 736 q 1686 722 1694 725 q 1672 719 1679 719 l 1664 719 q 1644 725 1654 719 q 1641 727 1643 725 q 1638 731 1639 729 q 1626 747 1629 738 l 1625 758 q 1629 774 1625 767 q 1638 786 1631 781 q 1650 793 1642 792 q 1664 797 1657 797 l 1672 797 q 1692 792 1682 797 q 1696 788 1693 790 q 1699 786 1699 786 m 3321 624 q 3332 641 3322 636 q 3351 641 3342 646 q 3360 624 3361 636 q 3304 531 3356 564 q 3197 519 3253 499 q 3118 571 3172 529 q 3029 619 3064 613 q 2924 583 2969 628 q 2892 481 2878 539 q 2908 429 2894 464 q 2924 374 2921 394 q 2910 256 2933 317 q 2844 159 2888 200 q 2746 100 2801 118 q 2635 90 2693 82 q 2533 135 2576 99 q 2469 217 2492 167 q 2443 321 2446 267 q 2464 424 2442 376 q 2488 465 2471 439 q 2513 504 2506 492 q 2510 586 2538 551 q 2472 619 2500 597 q 2367 432 2456 506 q 2272 389 2318 392 q 2222 399 2246 386 q 2185 433 2197 411 q 2172 469 2176 450 q 2135 425 2142 433 q 2068 371 2097 383 q 2004 373 2035 357 q 1960 424 1974 389 q 1954 449 1956 435 q 1826 335 1901 379 q 1821 293 1825 313 q 1751 204 1803 211 q 1703 223 1721 200 q 1692 275 1685 246 q 1697 291 1693 283 q 1707 306 1700 299 q 1718 318 1714 314 q 1733 328 1722 322 q 1748 337 1744 335 q 1765 345 1751 339 q 1781 352 1779 351 q 1785 355 1782 353 q 1789 357 1788 357 q 1786 386 1788 374 q 1751 485 1781 419 q 1696 417 1725 443 q 1599 375 1647 378 q 1547 390 1569 374 q 1519 433 1524 406 q 1519 449 1517 438 q 1520 464 1521 460 q 1523 479 1519 468 q 1528 494 1526 490 q 1534 509 1529 499 q 1540 524 1539 519 q 1547 538 1542 528 q 1554 551 1553 547 q 1618 665 1582 610 q 1637 674 1625 675 q 1653 664 1649 672 q 1653 644 1658 656 q 1582 521 1613 585 q 1576 509 1582 519 q 1569 493 1571 499 q 1563 476 1567 488 q 1558 458 1558 465 q 1557 443 1557 451 q 1561 428 1557 435 q 1574 418 1565 422 q 1667 443 1611 400 q 1733 531 1703 474 q 1726 665 1704 608 q 1811 736 1751 729 q 1865 728 1840 740 q 1901 689 1890 715 q 1906 629 1913 658 q 1878 576 1899 600 q 1781 513 1851 546 q 1815 432 1811 444 q 1826 379 1824 406 q 1963 536 1915 440 q 1974 546 1967 544 q 1992 585 1978 557 q 2113 779 2039 688 q 2079 797 2107 782 q 2043 815 2051 811 q 2010 829 2035 818 q 1974 842 1986 840 q 1941 849 1963 844 q 1905 851 1919 853 q 1872 844 1890 849 q 1839 829 1854 839 q 1819 828 1828 822 q 1810 844 1810 835 q 1818 863 1810 854 q 1889 888 1851 883 q 1967 881 1926 893 q 2036 858 2008 869 q 2107 825 2064 846 q 2138 810 2122 817 q 2188 864 2163 839 q 2206 868 2196 872 q 2219 855 2217 864 q 2214 836 2222 846 q 2175 793 2196 818 q 2267 778 2225 775 q 2333 800 2310 781 q 2346 838 2365 825 q 2337 856 2336 844 q 2346 872 2338 867 q 2365 871 2354 876 q 2391 837 2388 857 q 2384 799 2394 817 q 2354 765 2374 781 q 2188 747 2289 718 q 2149 763 2169 753 q 2011 536 2063 657 q 1994 444 1988 476 q 2014 413 1999 425 q 2047 404 2029 400 q 2061 410 2054 406 q 2072 417 2068 414 q 2083 426 2076 419 q 2093 437 2090 433 q 2103 449 2096 440 q 2113 458 2111 457 q 2171 526 2129 478 q 2211 622 2178 579 q 2289 678 2246 665 q 2338 676 2314 686 q 2367 640 2361 667 q 2311 551 2375 590 q 2213 528 2267 525 q 2208 511 2215 518 q 2246 431 2204 446 q 2372 493 2300 410 q 2436 646 2431 560 q 2439 654 2436 650 q 2432 667 2435 660 q 2431 737 2419 703 q 2477 790 2443 771 q 2547 794 2511 808 q 2560 778 2558 789 q 2554 759 2561 767 q 2536 756 2547 751 q 2478 742 2500 771 q 2464 692 2458 715 q 2502 643 2468 671 q 2540 610 2536 615 q 2562 567 2557 589 q 2559 520 2567 544 q 2543 481 2551 496 q 2518 438 2535 465 q 2483 354 2488 392 q 2494 258 2478 307 q 2547 174 2510 208 q 2635 129 2585 139 q 2774 155 2708 117 q 2870 263 2840 193 q 2876 403 2900 332 q 2850 497 2851 475 q 2881 594 2846 549 q 2958 649 2911 632 q 3051 653 3006 667 q 3131 609 3082 644 q 3185 569 3179 574 q 3256 553 3224 546 q 3301 578 3283 558 q 3321 624 3319 597 m 2258 617 q 2222 567 2236 596 q 2297 589 2264 567 q 2326 619 2321 604 q 2317 643 2335 640 q 2258 617 2292 647 m 1761 571 q 1767 550 1763 561 q 1808 569 1793 561 q 1840 592 1822 576 q 1864 628 1857 608 q 1854 689 1879 668 q 1796 692 1829 710 q 1758 638 1767 676 q 1761 571 1750 600 m 1758 249 q 1786 313 1776 261 q 1733 275 1742 292 q 1733 248 1724 260 q 1758 249 1743 236 z "},"":{"ha":3706,"x_min":83,"x_max":3622,"o":"m 3588 414 q 3605 420 3594 424 q 3618 406 3615 417 q 3614 386 3621 396 q 3574 364 3600 368 q 3528 371 3549 360 q 3503 387 3515 376 q 3486 405 3492 397 q 3469 429 3481 413 q 3453 451 3457 446 q 3408 485 3435 476 q 3353 481 3382 494 q 3278 401 3324 463 q 3220 313 3257 372 q 3164 226 3183 254 q 3032 121 3099 138 q 2944 128 2988 111 q 2875 185 2901 146 q 2869 371 2824 261 q 2918 457 2888 413 q 2944 492 2925 468 q 2972 529 2964 515 q 2997 640 3019 600 q 2973 653 2989 653 q 2938 644 2957 654 q 2907 626 2919 635 q 2883 610 2894 618 q 2761 446 2797 540 q 2760 446 2761 446 l 2760 444 q 2740 427 2758 426 q 2721 446 2721 428 q 2725 511 2721 478 q 2647 508 2688 490 q 2609 466 2631 485 q 2564 435 2588 447 q 2515 425 2540 422 q 2469 447 2489 428 q 2465 451 2467 449 q 2444 506 2447 475 q 2378 508 2411 493 q 2339 466 2360 485 q 2294 435 2318 447 q 2244 425 2269 422 q 2199 447 2219 428 q 2196 451 2197 449 q 2176 496 2179 471 q 2132 446 2147 463 q 2067 390 2096 403 q 2009 390 2036 379 q 1965 428 1982 401 q 1879 272 1931 338 q 1851 241 1865 256 q 1818 210 1838 226 q 1780 188 1799 194 q 1740 183 1761 181 q 1700 203 1718 186 q 1675 251 1681 221 q 1679 307 1669 282 q 1694 337 1685 321 q 1709 360 1704 353 q 1731 389 1714 368 q 1750 411 1749 410 q 1796 532 1801 475 q 1735 638 1792 583 l 1731 642 q 1651 442 1703 535 q 1589 349 1625 393 q 1514 269 1546 293 q 1442 261 1476 242 q 1403 324 1413 278 q 1401 394 1396 356 q 1329 367 1368 367 q 1265 394 1290 367 q 1251 413 1257 403 q 1221 361 1238 385 q 1127 249 1178 300 q 1016 160 1076 199 q 885 104 956 121 q 740 100 814 88 q 513 224 604 121 q 407 476 419 325 q 451 728 397 603 q 314 756 371 758 q 194 708 247 751 q 125 600 142 664 q 110 587 121 589 q 92 592 100 585 q 88 610 83 599 q 139 708 101 665 q 233 776 178 753 q 347 793 289 799 q 468 764 400 789 q 640 976 531 886 q 760 1056 696 1022 q 894 1108 824 1089 q 1038 1119 965 1128 q 1171 1071 1111 1111 q 1285 865 1282 996 q 1210 654 1288 744 q 1116 578 1174 610 q 997 535 1058 547 q 876 542 936 524 q 779 613 815 561 q 757 660 764 633 q 729 660 743 660 q 579 676 638 660 q 488 714 560 682 q 472 363 408 529 q 631 178 517 243 q 869 139 746 114 q 1093 271 986 164 q 1224 443 1181 358 q 1251 499 1233 460 q 1285 565 1269 538 q 1319 617 1300 593 q 1451 676 1381 694 q 1506 628 1490 667 q 1565 690 1533 663 q 1585 694 1575 699 q 1599 681 1596 690 q 1593 664 1601 672 q 1472 496 1514 593 q 1467 485 1471 493 q 1464 474 1467 479 q 1463 472 1464 474 q 1463 471 1463 471 q 1444 408 1451 440 q 1442 331 1435 358 q 1472 293 1451 290 q 1488 297 1481 293 q 1502 308 1494 301 q 1515 321 1510 315 q 1528 335 1519 326 q 1538 347 1536 344 q 1699 676 1654 479 q 1682 749 1672 714 q 1715 792 1689 778 q 1767 793 1740 806 q 1776 778 1776 788 q 1767 762 1776 768 q 1747 760 1758 756 q 1725 751 1733 765 q 1719 724 1717 736 q 1758 669 1724 703 q 1825 579 1807 624 q 1779 386 1861 488 q 1763 366 1775 381 q 1744 343 1751 351 q 1730 322 1738 335 q 1718 297 1722 308 q 1715 251 1708 278 q 1746 222 1722 225 q 1819 264 1776 218 q 1878 336 1851 296 q 1965 557 1931 417 q 1972 568 1967 564 q 1989 606 1978 581 q 2086 769 2028 690 q 2053 787 2081 772 q 2011 808 2026 801 q 1818 817 1892 864 q 1799 817 1808 811 q 1790 833 1790 824 q 1799 851 1789 843 q 1838 869 1817 863 q 1876 878 1860 875 q 1918 876 1893 881 q 1957 868 1943 871 q 1999 854 1971 865 q 2036 838 2026 843 q 2076 819 2046 833 q 2111 801 2106 804 q 2185 883 2147 846 q 2203 888 2193 892 q 2217 875 2214 885 q 2213 856 2219 865 q 2147 785 2179 822 q 2292 775 2231 751 q 2333 811 2324 788 q 2319 842 2343 835 q 2305 855 2307 844 q 2310 874 2303 865 q 2329 879 2318 882 q 2373 838 2365 869 q 2358 779 2381 807 q 2292 734 2336 746 q 2203 729 2249 722 q 2122 753 2167 735 q 2010 556 2053 660 q 1992 465 1985 496 q 2012 432 1997 444 q 2046 425 2026 419 q 2058 430 2051 426 q 2070 437 2065 433 q 2082 447 2075 440 q 2092 457 2089 454 q 2101 469 2094 460 q 2110 479 2108 478 q 2149 525 2124 494 q 2179 558 2175 556 q 2185 564 2181 561 q 2222 632 2197 600 q 2289 688 2250 667 q 2383 703 2344 717 q 2421 663 2413 692 q 2423 606 2429 633 q 2403 550 2417 579 q 2399 542 2401 547 q 2407 539 2406 540 q 2410 539 2408 539 q 2414 539 2413 539 q 2421 539 2415 539 q 2432 542 2426 540 q 2435 543 2433 543 q 2440 546 2438 544 q 2442 547 2440 547 q 2443 549 2443 549 q 2444 549 2443 549 q 2446 550 2444 550 q 2450 554 2447 551 q 2451 555 2450 554 q 2451 556 2451 556 q 2452 558 2451 557 q 2453 558 2453 558 q 2493 632 2465 599 q 2560 688 2521 667 q 2653 703 2615 717 q 2692 663 2683 692 q 2693 606 2700 633 q 2674 550 2686 579 q 2669 542 2671 547 q 2676 539 2675 540 q 2679 539 2678 539 q 2685 539 2683 539 q 2690 539 2686 539 q 2701 542 2697 540 q 2704 543 2703 543 q 2710 546 2707 544 q 2713 547 2711 547 q 2713 549 2713 549 q 2714 549 2713 549 q 2715 550 2715 550 q 2719 554 2717 551 q 2721 557 2721 556 q 2736 565 2728 564 q 2783 686 2753 629 q 2800 695 2790 696 q 2817 685 2810 694 q 2817 665 2824 676 q 2772 547 2786 610 q 2858 639 2810 600 q 3011 681 2956 717 q 3036 576 3054 651 q 3017 530 3029 551 q 2981 477 3006 508 q 2951 438 2957 446 q 2890 250 2875 328 q 2945 172 2901 199 q 3038 164 2989 146 q 3087 196 3063 174 q 3124 235 3111 218 q 3157 285 3136 253 q 3192 341 3164 297 q 3238 413 3219 385 q 3278 465 3257 440 q 3351 524 3318 511 q 3443 514 3400 540 q 3465 497 3454 507 q 3481 479 3475 488 q 3497 457 3488 471 q 3511 436 3506 443 q 3533 415 3521 424 q 3560 402 3544 406 q 3588 414 3576 399 m 771 1018 q 571 851 654 954 q 504 749 532 804 q 586 715 565 721 q 713 699 633 700 q 751 699 732 699 q 777 814 749 758 q 859 899 806 869 q 971 911 913 929 q 1031 853 1017 897 q 1024 768 1044 810 q 906 683 996 711 q 799 663 858 668 q 863 592 817 615 q 976 572 921 567 q 1088 607 1032 578 q 1224 749 1185 656 q 1247 856 1246 800 q 1222 961 1247 911 q 1146 1040 1194 1010 q 1040 1079 1097 1071 q 771 1018 914 1097 m 799 765 q 790 701 788 733 q 868 714 832 704 q 981 774 950 733 q 996 826 997 796 q 945 876 994 869 q 856 849 896 883 q 799 765 815 815 m 1354 411 q 1426 488 1389 425 q 1440 519 1433 506 q 1464 567 1450 543 q 1465 586 1458 576 q 1461 628 1481 608 q 1410 639 1443 647 q 1328 564 1369 628 q 1300 510 1311 536 q 1283 453 1283 472 q 1305 413 1282 425 q 1354 411 1328 401 m 2311 494 q 2347 533 2331 513 q 2331 613 2318 569 q 2354 626 2336 631 q 2367 617 2363 625 q 2368 603 2371 610 q 2367 596 2367 599 q 2367 594 2367 596 q 2367 593 2367 593 q 2365 585 2365 588 l 2367 582 q 2367 578 2367 578 q 2369 571 2368 575 q 2380 598 2375 583 q 2387 630 2385 613 q 2381 658 2389 647 q 2356 668 2374 668 q 2290 642 2328 668 q 2244 596 2264 624 q 2217 535 2224 567 q 2226 475 2208 494 q 2265 467 2243 460 q 2311 494 2288 474 m 2582 494 q 2617 533 2601 513 q 2601 613 2588 569 q 2625 626 2607 631 q 2636 617 2632 625 q 2639 603 2640 610 q 2636 596 2638 599 q 2636 594 2636 596 q 2636 593 2636 593 q 2636 585 2636 588 l 2636 582 q 2638 578 2638 578 q 2639 571 2638 575 l 2640 571 q 2650 598 2646 583 q 2657 630 2654 613 q 2652 658 2660 647 q 2625 668 2644 668 q 2561 642 2597 668 q 2515 596 2533 624 q 2488 535 2494 567 q 2497 475 2478 494 q 2536 467 2513 460 q 2582 494 2557 474 z "}}}
